<?xml version="1.0" standalone="no"?>
<!DOCTYPE svg PUBLIC "-//W3C//DTD SVG 1.1//EN" "http://www.w3.org/Graphics/SVG/1.1/DTD/svg11.dtd" >
<svg xmlns="http://www.w3.org/2000/svg" xmlns:xlink="http://www.w3.org/1999/xlink" version="1.1">
<metadata>
Created by FontForge 20170924 at Fri Feb  3 19:31:50 2012
 By www-data
Copyright (c) 2011 by vernon adams. All rights reserved.
</metadata>
<defs>
<font id="Norican" horiz-adv-x="928" >
  <font-face 
    font-family="Norican"
    font-weight="400"
    font-stretch="ultra-condensed"
    units-per-em="2048"
    panose-1="2 0 5 4 0 0 0 2 0 4"
    ascent="1638"
    descent="-410"
    x-height="807"
    cap-height="1530"
    bbox="-445.641 -791 2935 2095"
    underline-thickness="102"
    underline-position="-307"
    unicode-range="U+000D-FB06"
  />
<missing-glyph horiz-adv-x="748" 
d="M68 0v1365h544v-1365h-544zM136 68h408v1229h-408v-1229z" />
    <glyph glyph-name="ff" unicode="ff" horiz-adv-x="983" 
d="M549 1358q-67 0 -137 -254q-43 -156 -108 -518q19 32 93 151.5t146.5 262t72.5 250.5t-67 108zM1273 1301q0 -270 -336 -703q90 3 140 3q89 0 89 -64q0 -25 -22 -53t-49 -28q-118 0 -284 2l-52 -265q0 -26 -49 -265.5t-56 -263.5h-198l165 797q-111 1 -187 1h-151
l-54 -269q-7 -35 -47.5 -253t-57.5 -276h-198l165 799q-41 1 -98 1h-3q-54 0 -54 41.5t130 45.5q32 1 46 2q75 348 150 637q27 97 147.5 186.5t239.5 89.5q86 0 93 -103q1 -15 1 -56t-19 -134q-45 -221 -337 -601q131 7 263 13q72 329 142 602q27 97 147.5 186.5t239.5 89.5
q86 0 93 -103q1 -15 1 -59zM1077 1355q-64 0 -135 -246q-43 -153 -108 -507q19 31 92.5 147t146.5 255.5t73 245t-69 105.5z" />
    <glyph glyph-name="ffl" unicode="ffl" horiz-adv-x="1548" 
d="M1077 1355q-64 0 -135 -246q-43 -153 -108 -507q19 31 93 147t146.5 255.5t72.5 245t-69 105.5zM793 372l-34 -179q0 -16 -48 -257t-57 -272h-198q40 295 140 735.5t196 787.5q27 97 147.5 186.5t239.5 89.5q86 0 93 -103q1 -15 1 -38q0 -118 -49.5 -249.5t-120 -239
t-141 -201t-120 -163t-49.5 -97.5zM1095 456l-667 6q-111 0 -435 2q-57 0 -57 41q0 31 49 37q102 13 551 36t621 23q9 0 9 -44.5t-22 -72.5t-49 -28zM549 1358q-67 0 -137 -254q-43 -156 -108 -518q19 32 93 152t146.5 262t72.5 250t-67 108zM263 372l-34 -179
q0 -16 -48 -257t-57 -272h-198q40 296 140 737.5t196 788.5q27 97 147.5 186.5t239.5 89.5q86 0 93 -103q1 -15 1 -38q0 -119 -49.5 -250.5t-120 -239.5t-141 -201.5t-120 -163.5t-49.5 -98zM1700 1191q0 88 -33 88q-5 0 -10 -2q-87 -36 -166 -194t-173 -475q78 36 144 100
q110 107 174 256.5t64 226.5zM1814 1188q0 -270 -209 -489q-154 -162 -320 -237l-9 -46q-30 -141 -30 -215t35 -74q28 0 157 106.5t235 206.5v-112q-172 -185 -284.5 -267.5t-209.5 -89.5q-105 -1 -109 179q0 24 -0.5 104t33.5 235.5t94.5 311.5t135 290t165 217.5
t175.5 83.5q141 0 141 -204z" />
    <glyph glyph-name="ll" unicode="ll" horiz-adv-x="1098" 
d="M609.5 982.5q101.5 234.5 101.5 334.5t-43 100q-77 0 -148.5 -200.5t-165.5 -620.5q154 152 255.5 386.5zM170 -29q-35 0 -48 18q-13 19 -20 31q-22 38 -22 148v39q0 193 53.5 427t137 432t195.5 332t218 134q65 0 102.5 -44.5t37.5 -132t-28 -197.5q-50 -192 -156 -355
q-152 -236 -314 -381l-10 -41q-29 -119 -29 -191.5t35 -72.5q25 0 137 110t205 213v-112q-172 -185 -284.5 -267.5t-209.5 -89.5zM1217 1061q39 111 39 183.5t-43 72.5q-53 0 -103 -101q-79 -160 -207 -638q105 92 190 232t124 251zM725 -29q-35 0 -48 18q-13 19 -20 31
q-22 38 -22 148v39q0 178 53 394.5t134.5 399.5t192 307t214.5 124q65 0 102.5 -44.5t37.5 -126.5t-28 -180q-49 -170 -153.5 -319t-192 -233.5t-114.5 -106.5l-9 -41q-30 -123 -30 -193.5t35 -70.5q25 0 137 110t205 213v-112q-172 -185 -284.5 -267.5t-209.5 -89.5z" />
    <glyph glyph-name="ck" unicode="ck" horiz-adv-x="1599" 
d="M1007 457h67q91 1 160 33q129 61 129 156t-78 95q-36 0 -99.5 -45.5t-118 -114.5t-60.5 -124zM624 151q-201 -180 -397 -180q-115 0 -173 72t-58 192t36.5 233t98 194t147 129t162 48t112.5 -23t68 -76q-81 98 -81 277.5t176 288.5q98 61 187 61q156 0 213 -63.5t57 -143
t-19 -148.5l-102 -338q59 72 143 120q84 47 172 47q166 0 166 -152q0 -118 -104 -181q-57 -34 -123 -56.5t-80 -27.5q11 2 22 2q68 0 105 -43t37 -117l-2 -72q0 -75 18 -75q31 0 326 321v-112q-72 -64 -140.5 -134.5t-78.5 -80.5q-10 -9 -33 -33q-107 -109 -186 -110
q-95 0 -95 130l15 189q0 63 -47 81t-106 18l-54 -1h-14l-6 -27q-28 -127 -57.5 -211.5t-80.5 -148.5h-159l239 933q5 20 26 84t21 102q0 87 -120 87q-67 0 -117 -32q-100 -65 -100 -186q0 -76 54.5 -170.5t54.5 -149.5t-37.5 -83.5t-94.5 -28.5q-37 0 -67 94
q-12 36 -36.5 64.5t-59.5 28.5q-63 0 -119 -65t-87 -158t-31 -182q0 -214 155 -214q94 0 227 121z" />
    <glyph glyph-name="o_x" unicode="ox" horiz-adv-x="1802" 
d="M684 827q0 -29 -22 -43q-246 0 -356 -176q-66 -105 -66 -229t54 -186t132 -62q105 0 198 122q-71 43 -110 112t-39 143.5t48 124t139 49.5t132.5 -49t41.5 -117q0 -136 -100 -232q39 -25 76 -25t69 43t57 107t55 139t57 139.5t63.5 107.5t74.5 43q73 0 108 -71l113 -228
l139 168q100 133 185 133q28 0 45.5 -18.5t17.5 -41.5t-26 -40.5t-63.5 -41t-73.5 -70t-169 -200.5q6 -11 36 -71q91 -183 120 -183t125 88.5t182 181.5v-116q-46 -43 -144 -139.5t-166.5 -157t-106.5 -60.5t-62 31.5t-60 99.5l-75 146q-13 -16 -51 -64t-67 -82.5t-67.5 -74
t-74 -61t-64.5 -21.5t-46 18t-17 40t25.5 40t63 42.5t56.5 47.5l186 223l-109 229q-12 25 -29 25q-22 0 -47 -78.5t-49 -133.5t-50.5 -102t-66.5 -78.5t-94.5 -31.5t-116.5 28q-154 -243 -364 -243q-179 -1 -257 153q-43 85 -43 193q0 243 172.5 383t458.5 140q22 0 22 -13z
M741 494q0 92 -81.5 92t-81.5 -97q0 -42 29.5 -91t73.5 -78q21 23 40.5 77.5t19.5 96.5z" />
    <glyph glyph-name=".notdef" horiz-adv-x="748" 
d="M68 0v1365h544v-1365h-544zM136 68h408v1229h-408v-1229z" />
    <glyph glyph-name=".null" horiz-adv-x="0" 
 />
    <glyph glyph-name="nonmarkingreturn" unicode="&#xd;" horiz-adv-x="389" 
 />
    <glyph glyph-name="NULL" horiz-adv-x="0" 
 />
    <glyph glyph-name="NULL" horiz-adv-x="0" 
 />
    <glyph glyph-name="space" unicode=" " horiz-adv-x="389" 
 />
    <glyph glyph-name="exclam" unicode="!" horiz-adv-x="608" 
d="M371 379q-25 -10 -54 -10q-22 0 -22 26.5t2 38.5l152 862q0 36 17 108t30 93t30 21h183q32 0 32 -54t-126 -406t-184.5 -514t-59.5 -165zM282 207q112 -1 112 -89q0 -44 -52 -95.5t-106 -51.5q-92 0 -92 78q0 55 41 106.5t97 51.5z" />
    <glyph glyph-name="quotedbl" unicode="&#x22;" horiz-adv-x="913" 
d="M539.5 1527.5q25.5 -10.5 25.5 -41t-26 -93t-69.5 -180.5t-48.5 -130h-55q2 43 -1 126t8.5 206t62.5 123q78 0 103.5 -10.5zM813 1403q-35 -78 -76 -191t-47 -129h-56q2 43 -1 126t8.5 206t62.5 123q78 0 103.5 -10.5t25.5 -40t-20 -84.5z" />
    <glyph glyph-name="numbersign" unicode="#" horiz-adv-x="1069" 
d="M885 512l-137 2h-41l-156 -475q-3 -11 -11 -39q-37 -141 -80 -141q-28 0 -35 15t-7 44.5t12 79t12 51.5q44 126 125 463l-217 -6l-127 -467q-3 -10 -14.5 -52.5t-30.5 -85t-46.5 -42.5t-34.5 15t-7 51.5t31 152t88 422.5q-29 0 -115 -4q-57 0 -57 41q0 69 49 86l147 10
l31 174q-31 0 -125 -4q-57 0 -57 41q0 67 28.5 80t69 13t109.5 3q77 433 80 441t13 38q18 52 30.5 80.5t38 54t143.5 25.5q12 0 24.5 -17t12.5 -36l-158 -578q192 6 203 6q98 415 100.5 421.5t11.5 37.5t23.5 74t46 67.5t146.5 24.5q12 0 24 -17t12 -36l-2 -13l-184 -557
q176 -4 176 -41q0 -30 -31.5 -63t-68.5 -33l-121 2l-57 -172h24q209 0 209 -41q0 -30 -31 -63t-69 -33zM602 647q37 155 41 172q-72 0 -207 -6l-49 -166h215z" />
    <glyph glyph-name="dollar" unicode="$" horiz-adv-x="1069" 
d="M756 1423l-35 -2l-127 -549q107 -67 219.5 -179.5t112.5 -246.5q0 -240 -238 -385q-136 -83 -309 -108l-6 -33q-3 -14 -7 -46t-7.5 -46t-16.5 -27.5t-35 -13.5q-28 0 -28 29q0 18 10 75l8 54q-14 -2 -57.5 -2t-98.5 14.5t-103 42.5t-78 75.5t-30 109.5t48.5 102t117.5 43
l43 2q-4 -54 -4 -92q1 -37 1 -50q4 -105 73 -136q38 -17 106 -19q49 233 146 629q-7 6 -73.5 60.5t-142 135t-75.5 170t43 173.5q43 83 115 143q147 122 342 157l8 47q22 126 36.5 161.5t39.5 35.5q10 0 22 -8t12 -29l-47 -197q35 5 77.5 5t98.5 -15t109 -46.5t86 -91
t33 -138.5q0 -20 -197 -135t-250 -134v99q14 9 92 45q176 83 175 123q0 198 -209 198zM709 343q0 61 -46.5 124t-132.5 137l-131 -563q117 23 213.5 101.5t96.5 200.5zM463 1303.5q-76 -74.5 -76 -172.5t139 -207l121 483q-108 -29 -184 -103.5z" />
    <glyph glyph-name="percent" unicode="%" horiz-adv-x="1401" 
d="M403 890.5q-61 -32.5 -126 -32.5q-122 0 -173 96t-51 170q0 196 107 315q72 79 188 79q172 0 220 -196q12 -50 12 -109t-20.5 -122.5t-58 -115.5t-98.5 -84.5zM423.5 1355q-18.5 38 -58.5 38t-74 -34.5t-62 -111.5t-28 -175.5t47 -98.5q56 0 103 55.5t69 123.5t22 116.5
t-18.5 86.5zM1154.5 -7.5q-51.5 -21.5 -109.5 -21.5t-101.5 29t-67.5 74q-49 92 -49 171.5t18 143.5t52.5 120t93 91t126.5 35t115 -27.5t72.5 -73.5t37.5 -95.5t12 -102.5t-12 -104.5t-38 -98.5t-62 -83t-87.5 -57.5zM1194.5 265q22.5 68 22.5 128t-24 88.5t-59 28.5
t-68.5 -35t-61 -113.5t-27.5 -177t45 -98.5q56 0 103 55.5t69.5 123.5zM944 1374q49 71 61.5 90t29.5 41t51 48t149 26q8 0 14 -10t6 -22.5t-6 -33.5l-901 -1474q-6 -11 -22 -40q-75 -140 -125 -140q-31 0 -31 24q0 48 72 166q431 820 702 1325z" />
    <glyph glyph-name="ampersand" unicode="&#x26;" horiz-adv-x="1442" 
d="M956 154q-276 -183 -470 -183q-236 0 -356 161q-60 81 -60 187q0 167 114 287.5t270 214.5q34 20 81 47.5t61 36.5q-29 109 -29 178q0 112 74 214t185 161.5t230 59.5q118 0 230 -69q54 -33 87.5 -87.5t33.5 -120.5q0 -49 -108 -105q-77 -40 -158 -73t-94 -39
q-22 24 -29 57q10 6 50.5 24t69.5 33t55 38.5t26 46.5q0 74 -58 123q-59 49 -123 49q-120 0 -166.5 -78.5t-46.5 -160.5t16.5 -149t37.5 -121.5t60 -128t65.5 -117t73.5 -118t65 -104.5q75 48 149 138.5t121 176.5q12 22 30 122.5t40 117.5l39 2q43 3 43 -43
q0 -82 -55.5 -205t-143 -235.5t-170.5 -163.5q42 -62 72 -142t30 -145q0 -119 -67 -250.5t-182.5 -224t-237.5 -92.5q-12 16 -12 32.5t25 39t60.5 51.5t71.5 67q86 90 86 232q0 74 -44 172q-14 30 -42 86zM911 238l-293 567q-206 -121 -254 -226q-22 -49 -22 -104
q0 -130 97 -230t227 -100q62 0 117 22.5t128 70.5z" />
    <glyph glyph-name="quotesingle" unicode="'" horiz-adv-x="524" 
d="M465 1403q-20 -55 -40.5 -120t-38.5 -125.5t-23 -74.5h-56q-18 104 -18 232q0 223 67 223q79 0 104 -10t25 -40t-20 -85z" />
    <glyph glyph-name="parenleft" unicode="(" horiz-adv-x="934" 
d="M666 -23l-4 -77q-80 -17 -159.5 -17t-157.5 33q-148 63 -222 229t-74 396q0 298 127 577q126 278 352 394q126 64 273 65q51 0 119 -10l-5 -103q-36 6 -71 6q-97 0 -182.5 -44t-147.5 -118q-130 -157 -189 -371.5t-59 -406.5q0 -311 135 -464q80 -91 220 -91q28 0 45 2z
" />
    <glyph glyph-name="parenright" unicode=")" horiz-adv-x="932" 
d="M268 1483l4 78q83 16 160.5 16t155.5 -33q296 -125 297 -653q0 -259 -127 -543q-126 -282 -348 -402q-124 -66 -265 -67q-70 0 -131 15l4 102q38 -6 72 -6q97 0 182.5 44t147.5 118q130 157 189 371.5t59 406.5q0 276 -106 430q-38 56 -102.5 90.5t-146.5 34.5
q-28 0 -45 -2z" />
    <glyph glyph-name="asterisk" unicode="*" horiz-adv-x="870" 
d="M383 1352q0 110 47 110h39q76 0 76 -53q0 -70 -86 -328q35 17 150.5 94.5t148 77.5t56.5 -42.5t24 -65.5t-27 -42t-155.5 -44t-176.5 -37q30 -34 96 -93.5t105 -102.5t39 -70t-34.5 -57.5t-56.5 -30.5q-43 0 -113 130t-95 189q-34 -79 -104 -198t-105 -119
q-25 0 -56.5 29.5t-31.5 57.5t37 71t106 105t96 91q-327 70 -327 129q0 28 22 70.5t43 42.5q38 0 160.5 -83t130.5 -89l2 43z" />
    <glyph glyph-name="plus" unicode="+" horiz-adv-x="1120" 
d="M799 416l-137 2h-78l-68 -273q-4 -18 -28.5 -33.5t-62.5 -15.5t-38 33q0 17 4 25l62 258l-244 -13q-49 0 -49 27q0 53 25.5 74.5t43.5 25.5q79 13 254 21l15 55q6 32 21 98t22 101q3 14 37 26.5t63 12.5q21 0 21 -56t-23 -153l-21 -80q33 2 101 2q201 0 201 -37
q0 -29 -42 -64.5t-79 -35.5z" />
    <glyph glyph-name="comma" unicode="," horiz-adv-x="483" 
d="M190 -29q-77 1 -77 89q0 44 41 95.5t97.5 51.5t80.5 -30t24 -70t-16 -85t-81 -160.5t-75 -125.5l-57 20l11 30q31 92 52 185z" />
    <glyph glyph-name="hyphen" unicode="-" horiz-adv-x="862" 
d="M655 614l-137 2q-78 0 -305 -18q-57 0 -57 41q0 72 49 86q30 6 161 16.5t181 10.5q209 0 209 -41q0 -30 -31.5 -63.5t-69.5 -33.5z" />
    <glyph glyph-name="period" unicode="." horiz-adv-x="422" 
d="M216 207q112 -1 112 -89q0 -44 -52 -95.5t-106 -51.5q-92 0 -92 78q0 55 41 106.5t97 51.5z" />
    <glyph glyph-name="slash" unicode="/" horiz-adv-x="1014" 
d="M778 1374q39 126 78.5 165.5t130.5 39.5q8 0 14.5 -10t6.5 -25t-7 -31l-778 -1556q-6 -11 -23 -53t-53.5 -84.5t-117.5 -42.5q-23 0 -23 32t33 89.5t55.5 117.5t195.5 402.5t328.5 641.5t159.5 314z" />
    <glyph glyph-name="zero" unicode="0" horiz-adv-x="1210" 
d="M98 360q-57 328 92 692q80 194 219 330t318 136q234 0 331 -200t59 -502q-53 -409 -275 -660q-76 -85 -180 -135t-202.5 -50t-160 35t-99.5 89q-75 106 -102 265zM890 1305q-30 22 -68 22q-75 0 -181 -80q-185 -151 -292 -407t-95 -508q9 -189 129 -189q82 0 163 51
q82 50 146 132q134 170 210 394q116 341 36 526q-16 37 -48 59z" />
    <glyph glyph-name="one" unicode="1" horiz-adv-x="709" 
d="M649 1518q25 0 25 -28t-2 -38l-277 -1231q-1 -5 -2 -15q-21 -206 -67 -206h-203q-27 0 -27 46t22 146.5t46 193t55 205t109 416t80 306.5q-92 -73 -206 -150.5t-153 -77.5q-26 10 -26 39.5t61 67.5q512 326 565 326z" />
    <glyph glyph-name="two" unicode="2" horiz-adv-x="1149" 
d="M339.5 -15.5q-141.5 -13.5 -211.5 -13.5q-71 -1 -71 47q0 28 52.5 77t120.5 111l119 108q317 289 429 513q76 153 76 298t-42 214.5t-143 69.5t-208 -98q-52 -48 -85.5 -129.5t-33.5 -182.5q41 -58 93 -83t52 -64q0 -17 -12 -32t-39.5 -15t-154.5 89t-127 112
q0 119 39 217t105 162q138 133 352 133q213 0 324 -116t111 -265q1 -253 -267 -566q-132 -155 -330 -315q-58 -48 -83.5 -66.5t-46.5 -34.5t-24 -18q21 3 192.5 39.5t259.5 36.5q148 0 148 -68q0 -45 -29 -109.5t-72.5 -64.5t-138 13.5t-154 13.5t-201 -13.5z" />
    <glyph glyph-name="three" unicode="3" horiz-adv-x="1188" 
d="M549 698q-60 0 -60 50t24 59t60 9q98 0 174 75.5t115 169t39 180t-42 139t-128 52.5q-45 0 -118.5 -49t-131 -118.5t-57.5 -119.5q14 -23 60.5 -63t58.5 -52q-5 -53 -39 -53q-27 0 -143.5 77.5t-116.5 96.5q0 88 65.5 173t173.5 139.5t201 54.5t151 -8q134 -19 212.5 -88
t78.5 -210t-100.5 -255.5t-237.5 -172.5q105 -29 170.5 -116.5t65.5 -192t-52.5 -201.5t-136 -162t-188 -103t-186.5 -38t-147 17t-125.5 48t-100 84.5t-39.5 117.5t45.5 107.5t108.5 43.5t80.5 -82t37.5 -134q38 -97 129.5 -97t168 66.5t118 162.5t41.5 188.5t-45.5 149.5
t-140.5 57z" />
    <glyph glyph-name="four" unicode="4" horiz-adv-x="1264" 
d="M403 494q100 -31 205 -50q62 159 148 367q17 27 104 27h92q-17 -73 -153 -410q131 0 209 43q14 4 77.5 44t110.5 79l49 -86q-51 -37 -132 -105t-119 -91q-70 -42 -193 -42q-41 0 -64 2l-71 -176l-8 -24q-7 -24 -21.5 -48t-28.5 -24h-153l-6 20q66 184 100 271
q-128 20 -283 49q-81 -43 -131.5 -43t-82.5 30t-32 73t24 60t60 29l111 39l293 680q67 188 89 216q52 64 99 79t103 15t67 -19q-119 -271 -463 -1005z" />
    <glyph glyph-name="five" unicode="5" horiz-adv-x="1327" 
d="M253 119q-28 45 -28 93.5t49.5 95t126.5 46.5q1 -95 31 -159q57 -121 186 -121q239 0 338 208q50 105 50 212.5t-88.5 188.5t-208.5 81t-234 -131q-30 4 -41 26q27 113 116.5 449t104.5 350.5t25 14.5h6q257 -25 382.5 -25t295.5 20l57 -18q-4 -41 -23.5 -75.5
t-27.5 -48.5q-46 -86 -77.5 -105t-175.5 -19t-238 47q-11 6 -53 32t-81 26q-15 -48 -74 -220t-71 -221q145 80 288.5 80t247 -101.5t103.5 -242.5t-57 -256t-149 -196.5t-211.5 -130t-218.5 -48.5t-169 25t-111.5 51.5t-69.5 71.5z" />
    <glyph glyph-name="six" unicode="6" horiz-adv-x="1094" 
d="M414 -29q-284 -1 -338 285q-59 311 214 706q91 131 207 273t167.5 184.5t103.5 42.5h156q-250 -257 -385.5 -443t-184.5 -305q-100 -238 -100 -419q0 -78 15 -119t52.5 -64.5t99 -23.5t128.5 56t118 134.5t86 162.5t39 146t-5.5 106t-25.5 68.5t-65.5 38t-175.5 13.5
q28 54 64.5 72t99.5 18q173 0 259 -73.5t73 -243.5q-8 -113 -60.5 -224t-133.5 -197.5t-191.5 -140t-216.5 -53.5z" />
    <glyph glyph-name="seven" unicode="7" horiz-adv-x="1022" 
d="M1004 1354q-70 -148 -194 -376q-301 -551 -407 -839q-11 -30 -35.5 -84.5t-23.5 -54.5h-229q59 295 298 688q93 152 357 537q-76 -43 -225 -67.5t-262 -24.5t-158 8t-45 35q0 21 14 45t24.5 43.5t15.5 28.5q4 9 12 29q37 99 69 99q188 -22 298 -22t236.5 12t206.5 12
q10 0 31 -16t21 -28.5t-4 -24.5z" />
    <glyph glyph-name="eight" unicode="8" horiz-adv-x="1286" 
d="M159.5 21q-106.5 78 -106.5 241q0 67 33 131t81 111t96.5 85t85 65t40.5 38q-168 145 -168 264.5t58.5 221.5t153.5 176t221 119t257 45q57 0 119 -12q120 -24 119.5 -76.5t-38 -106t-75.5 -53.5q-87 116 -218 116t-224.5 -77.5t-93.5 -180.5q0 -138 174 -233
q14 7 146 83q281 160 390 165l33 -47q-34 -19 -109 -60t-153.5 -85.5t-194.5 -139.5q156 -140 204 -228.5t48 -179t-40 -165.5q-71 -135 -241.5 -215t-330.5 -80t-266.5 78zM508 590q-236 -185 -236 -375q0 -75 50 -124.5t150.5 -49.5t192 72.5t91.5 171t-72 176t-176 129.5
z" />
    <glyph glyph-name="nine" unicode="9" horiz-adv-x="1094" 
d="M825 1174q0 229 -163 229q-72 0 -143.5 -51t-123 -128t-84 -170t-32.5 -185t53 -155t164 -63q43 0 67 2q-9 -103 -103 -113q-14 -2 -36 -1q-162 0 -271.5 96t-109.5 260q0 115 47 228t125.5 199.5t191 140t234.5 53.5q186 0 290.5 -106t104.5 -295q0 -248 -134 -516
q-134 -267 -324 -445q-90 -84 -188.5 -135t-184.5 -51l-70 30q302 221 496 557t194 619z" />
    <glyph glyph-name="colon" unicode=":" horiz-adv-x="422" 
d="M216 965q112 -1 112 -89q0 -44 -52 -95.5t-106 -51.5q-92 0 -92 78q0 54 41 106t97 52zM216 207q112 -1 112 -89q0 -44 -52 -95.5t-106 -51.5q-92 0 -92 78q0 55 41 106.5t97 51.5z" />
    <glyph glyph-name="semicolon" unicode=";" horiz-adv-x="483" 
d="M190 -29q-77 1 -77 89q0 44 41 95.5t97.5 51.5t80.5 -30t24 -70t-16 -85t-81 -160.5t-75 -125.5l-57 20l11 30q31 92 52 185zM300 965q112 -1 112 -89q0 -44 -52 -95.5t-106 -51.5q-92 0 -92 78q0 54 41 106t97 52z" />
    <glyph glyph-name="less" unicode="&#x3c;" horiz-adv-x="1544" 
d="M1432 -113q0 -55 -94 -55q-42 0 -77 25t-79 65t-84.5 88t-72 89t-69.5 100.5t-62 97.5t-63.5 105.5t-73.5 121t-34 81t4.5 40.5t17 29.5t24 29.5t36.5 40t71 79t124 140.5t116 132.5t94 106t91.5 95.5t73 55t75 21.5t64 -14t26.5 -38t-31 -50.5t-75.5 -53.5t-108.5 -81
t-115 -119q-115 -149 -317 -369l174 -252q130 -203 247.5 -333.5t117.5 -176.5z" />
    <glyph glyph-name="equal" unicode="=" horiz-adv-x="1120" 
d="M852 614l-137 2q-121 0 -449 -18q-57 0 -57 41q0 71 49 86q36 7 189 17t329 10t176 -41q0 -30 -31.5 -63.5t-68.5 -33.5zM811 389l-137 2q-121 0 -449 -18q-57 0 -57 41q0 71 49 86q35 7 188.5 16.5t329.5 9.5t176 -41q0 -30 -31.5 -63t-68.5 -33z" />
    <glyph glyph-name="greater" unicode="&#x3e;" horiz-adv-x="1544" 
d="M1145 397l235 252q-148 221 -204 326q-89 166 -185 234.5t-96 100.5t31.5 48t62 16t45.5 -3q49 -9 92.5 -62.5t178.5 -270.5q36 -68 98.5 -163t101.5 -156.5t39 -83.5q0 -45 -76 -131q-24 -28 -98 -116.5t-155 -182.5q-194 -224 -410 -357q-27 -16 -72 -16q-78 0 -78 43
q0 33 55.5 88t186.5 177.5t248 256.5z" />
    <glyph glyph-name="question" unicode="?" horiz-adv-x="999" 
d="M334 424q-76 0 -76 41q0 121 104 237q62 69 166 159q104 89 150 137q104 107 104 208q0 66 -44 118q-85 100 -236 101q-84 0 -120.5 -18t-56.5 -30.5t-36 -34.5t-27 -38t-21 -44t-15.5 -43.5t-14 -46t-12.5 -42.5l-43 2q-119 5 -119 97q0 29 10 51q29 78 103 135
q135 105 323 105q189 0 339 -88q72 -42 115.5 -112t43.5 -151t-30 -148t-78 -114.5t-107 -89.5t-119 -79q-61 -36 -111 -71q-114 -79 -125 -167q-10 -37 -29 -55.5t-38 -18.5zM344 207q112 -1 111 -89q0 -44 -52 -96q-51 -51 -105 -51q-92 0 -93 78q0 55 41.5 106.5
t97.5 51.5z" />
    <glyph glyph-name="at" unicode="@" horiz-adv-x="1587" 
d="M1495 748.5q31 -105.5 31 -214t-25.5 -197t-72.5 -165t-123 -124.5t-174 -48t-165 55t-67 144q-29 -96 -127.5 -163t-197 -67t-159.5 63t-61 182.5t54 230.5t142.5 198t212 142t253.5 55q62 0 168 -33q-3 -18 -53.5 -253t-58 -275t-7.5 -78q0 -115 79.5 -115t166 123
t86.5 303q0 372 -283 476q-81 30 -191.5 30t-241 -50.5t-237 -136t-174 -212.5t-67.5 -267q0 -254 151.5 -398t403 -144t532.5 114l60 -123q-249 -114 -570 -114q-232 0 -420.5 100t-263.5 302q-41 110 -41 246.5t52 264.5q96 235 336 387t503 152q307 1 465 -213
q53 -72 84 -177.5zM995 764q-108 0 -209 -77t-160 -189t-59 -209t30.5 -143t80.5 -46t105 46t98 126z" />
    <glyph glyph-name="A" unicode="A" horiz-adv-x="1391" 
d="M1313 1518zM1319 1272q27 0 27 -33q0 -12 -3 -16q-88 -236 -213 -894q-25 -131 4 -155q9 -8 23 -8h22q37 3 80 37t254 239v-112q-30 -31 -99 -106q-69 -74 -126 -130q-152 -150 -253 -150.5t-126.5 75.5t-13.5 174q-108 -112 -238 -181t-235 -69q-178 0 -260 96.5
t-82 288.5q0 138 51.5 284.5t139.5 276.5q184 272 470.5 450.5t571.5 178.5q101 0 205 -32q198 -60 198 -165q0 -42 -63.5 -100t-108.5 -70q-58 270 -291 270q-178 0 -394 -149.5t-368.5 -374.5t-152.5 -434q0 -159 76.5 -243.5t210.5 -84.5q89 0 181 73.5t112.5 181.5
t95 428t96 387t209.5 67z" />
    <glyph glyph-name="B" unicode="B" horiz-adv-x="1667" 
d="M211 303l-2 -90q0 -98 26.5 -135t83.5 -37q137 0 222 273q30 95 71 311l107 567q9 57 229 57l-8 -61q-27 -183 -43 -241.5t-32.5 -139.5t-53.5 -259t-76 -282q29 -80 114 -134t198.5 -54t179 78t65.5 193t-65 232.5t-168 174.5v116q136 7 222.5 71t86.5 163
q0 285 -475 285q-155 0 -323 -73t-236 -183q-40 -63 -39 -131q0 -113 162 -170q0 -89 -23 -166q-112 35 -206.5 117t-94.5 200t71 219q70 101 188 169q251 145 567 145q315 0 473 -135q114 -97 114 -257q0 -78 -34 -135t-72 -90q-86 -76 -244 -78q192 -98 286.5 -231
t94.5 -246q0 -208 -140.5 -305.5t-318 -97.5t-279 52.5t-165.5 160.5q-94 -121 -181.5 -167t-188.5 -46q-102 1 -192 55q-44 26 -71 72t-27 102q0 131 197 131z" />
    <glyph glyph-name="C" unicode="C" horiz-adv-x="1268" 
d="M954 1518zM1096 1149q-54 268 -170 268q-110 -4 -210 -51q-186 -87 -302.5 -288.5t-116.5 -440.5t120.5 -375.5t317.5 -136.5q155 0 329 83.5t339 242.5v-111q-420 -397 -787 -397q-308 -1 -452 267q-82 154 -82 351q0 281 155 543q105 178 287.5 296t431.5 118
q149 0 254 -103t105 -237q0 -58 -45 -80.5t-257.5 -140t-232.5 -117.5q-39 0 -39 41q-1 49 177 126q66 29 122 68t56 74z" />
    <glyph glyph-name="D" unicode="D" horiz-adv-x="1726" 
d="M152 326l-7 -105q0 -82 25.5 -131t93.5 -49q39 0 75 26.5t58 75.5q74 152 146 451l119 614q13 39 129 39h94q-13 -74 -34 -229.5t-36.5 -250.5t-57 -236t-102.5 -267q29 -88 113 -146.5t173.5 -58.5t176 50.5t155 138.5t110.5 220t42 260q-1 129 -21 222
q-43 197 -182.5 320t-381.5 123q-145 0 -288.5 -58t-233 -147t-89.5 -174q0 -117 164 -180q0 -46 -9 -96.5t-17 -65.5q-149 47 -224 134.5t-75 177.5q0 267 323 426q219 108 580 108q145 0 265 -42q217 -76 332 -259t115 -375.5t-56.5 -356t-153 -282.5t-233 -189.5
t-290.5 -70.5q-228 0 -366 190q-78 -112 -168 -150t-205 -38t-189.5 75.5t-74.5 163.5q0 142 205 142z" />
    <glyph glyph-name="E" unicode="E" horiz-adv-x="1403" 
d="M948 1518zM1053 805l219 -6q37 0 37 -31.5t-31.5 -64.5t-69.5 -33q-295 0 -434 -11v-2q-51 -187 -190 -419l32 2l58 -2q24 0 37 2q7 -2 163 -61.5t197 -59.5t92 26q26 4 146.5 99.5t214.5 193.5v-110q-30 -28 -88 -80q-171 -155 -261 -214q-138 -91 -282 -91q-6 0 -20 8
q-88 53 -431 158q-91 -72 -183.5 -119t-158.5 -47q-23 0 -51 13q-57 26 -57 87q0 53 122 105q26 11 31 14l256 117q26 38 113 352q-9 -1 -60.5 -14.5t-115.5 -19.5t-64 39q0 44 33 58q78 33 244 66q7 26 23.5 84t23 81t21.5 71.5t23 70t23 60.5t27 59l30 50q42 71 120 124
q-101 8 -207 8q-250 0 -367.5 -60t-117.5 -165q0 -56 51 -106t145 -85q0 -35 -9 -76.5t-20 -50.5q-154 54 -234.5 132.5t-80.5 162.5q0 179 176 288.5t479 109.5h291q621 0 621 -27q0 -12 -19 -31l-100 -114q-52 -35 -104.5 -35t-187 21t-195.5 24q-8 -30 -62.5 -236.5
t-91.5 -324.5q130 10 244 10z" />
    <glyph glyph-name="F" unicode="F" horiz-adv-x="1313" 
d="M899 1339l-45 2q-116 0 -228.5 -29t-194.5 -74.5t-132.5 -103t-50.5 -112.5q0 -122 160 -193q0 -42 -10 -98.5t-19 -68.5q-159 65 -237.5 158t-78.5 196q0 187 203 324.5t547 166.5q158 11 314 11t247 -1t135 -1l-141 -211q-94 0 -214 13.5t-165 16.5q-21 -110 -55 -301
t-43 -239q85 10 174.5 10t206.5 -6q37 0 37 -35t-31.5 -75t-69.5 -40q-235 0 -348 -10q-73 -354 -158 -515.5t-191 -232.5t-259 -71q-187 0 -253 152q-17 39 -17 77q0 156 213 156q-11 -61 -11 -133q0 -149 105 -152.5t193 215.5q71 178 141 465l-86 -25q-5 0 -18 -0.5
t-26.5 10.5t-13.5 36t11 47.5t51 40t116 41.5q15 62 26.5 113.5t20.5 90.5t15 62t23 93t42 112q53 79 115 118z" />
    <glyph glyph-name="G" unicode="G" horiz-adv-x="1458" 
d="M743 -467q-66 0 -133.5 29.5t-115.5 87.5q-48 60 -48 118q0 124 82 144l457 133l11 41q34 141 42 199l17 86q-103 -100 -251 -177t-253 -77q-235 0 -361 336l-120 -70q-56 -32 -76 -44t-46 -26t-37.5 -14t-19.5 18.5t-8 48t21 37.5q21 13 142.5 77.5t125.5 78.5
q0 188 69.5 363.5t188 306.5t287.5 210t356 79q76 0 146.5 -30t118.5 -77q106 -104 106 -223q0 -72 -33 -101q-15 -13 -74 -38l-63 -29l-830 -434q27 -117 105 -205t180 -88q156 0 332 141q4 9 23 84.5t24 102.5h199l-119 -502q129 60 395 321v-110q-83 -89 -224.5 -202.5
t-201.5 -137.5q-46 -224 -155.5 -340.5t-258.5 -116.5zM954 -74q-38 -16 -106 -33.5t-112 -29.5t-79.5 -39t-35.5 -78.5t39 -102.5t92 -51q92 0 146 144q43 116 56 190zM1160 1046q70 31 71 84q0 107 -61.5 203.5t-127.5 96.5q-101 0 -197 -44q-178 -82 -298.5 -285.5
t-120.5 -422.5l418 209q54 27 166.5 85t149.5 74z" />
    <glyph glyph-name="H" unicode="H" horiz-adv-x="1870" 
d="M322 819q-119 46 -189 104q-129 107 -129 226q0 211 240 313q128 54 251 54t306 -36t253 -36t143 21.5t106 23.5q-10 -63 -40.5 -118.5t-76.5 -84.5q-54 -80 -75 -123t-29.5 -59t-22 -50t-19 -46.5t-19.5 -51.5t-29 -78t-25 -73q125 12 278 18q80 213 216 395t304 257
q92 41 163.5 41t135.5 -18.5t118 -61t54 -87.5t-68.5 -110.5t-105.5 -67.5l-8 21q-46 156 -151 156q-183 0 -351 -246q-82 -120 -149 -273h74q231 0 243.5 -12.5t12.5 -34t-31.5 -55t-69.5 -33.5q-138 0 -270 -6q-43 -148 -43 -295t41 -225t111.5 -78t166.5 54
q160 90 357 298l-2 -114q-148 -164 -319.5 -273.5t-305.5 -109.5q-94 0 -150.5 83.5t-56.5 275.5t45 376q-117 -8 -274 -23q-6 -19 -14 -52q-73 -285 -140 -408q-137 -252 -395 -252q-83 0 -150 27t-103 67q-74 82 -75 156q1 100 151 116q36 4 85 4v-59q0 -147 47 -185
q22 -18 42 -18t27 1q149 12 231 290q21 73 64 287l-213 -31q-57 0 -57 41q0 57 28 75q10 6 23 11q104 25 252 47q40 189 81.5 277t87 135t108.5 80q-54 5 -202.5 33t-216 28t-129.5 -8t-134.5 -27t-121 -58.5t-48.5 -92.5q0 -105 192 -187q0 -96 -30 -135z" />
    <glyph glyph-name="I" unicode="I" horiz-adv-x="1061" 
d="M403 303l-2 -90q0 -96 27 -134t84 -38q130 0 213 244q38 109 80 340l14 77q-273 20 -392 126q-65 58 -65 126q0 118 154 276q102 104 272 179.5t390 75.5q45 0 117.5 21.5t105.5 23.5q-12 -75 -51 -136.5t-101 -82.5q-125 -215 -192 -518l-33 -146q-57 -289 -121 -424
q-65 -135 -145 -194q-117 -86 -264 -86q-98 1 -188 55q-44 26 -71.5 72t-27.5 102q0 131 196 131zM526 950q0 -90 328 -108q45 168 110 282.5t181 178.5q-126 0 -235 -31q-178 -51 -281 -158t-103 -164z" />
    <glyph glyph-name="J" unicode="J" horiz-adv-x="1077" 
d="M1073 1311q-105 -183 -172 -471q133 0 275 22q0 -80 -31 -114q-130 -36 -273 -48l-118 -567q25 15 124.5 69t171.5 106t160 138v-112q-77 -92 -234 -192t-245 -132q-46 -214 -152 -326t-249 -112q-65 0 -131.5 29.5t-113 87.5t-46.5 117q0 133 84 155l418 113
q18 111 72.5 347.5t62.5 276.5v2q-324 18 -440 148q-32 36 -43 74q-14 27 3 84t42 94.5t66 91.5t145 127t246 119.5t306 46.5q45 0 118 21.5t106 23.5q-12 -75 -51 -136.5t-101 -82.5zM350 950q0 -44 88.5 -73.5t268.5 -36.5q39 165 99 282t163 181q-126 0 -235 -31
q-178 -51 -281 -158t-103 -164zM524 -66q-35 -12 -116.5 -29.5t-115.5 -29.5q-70 -25 -70.5 -82t34 -103t82.5 -46q83 0 130 112q35 84 56 178z" />
    <glyph glyph-name="K" unicode="K" horiz-adv-x="1888" 
d="M317 819q-117 45 -187 104q-130 107 -130 226q0 211 240 313q128 54 249 54t297 -36t245 -36t141.5 21.5t105.5 23.5q-23 -145 -117 -203q-76 -103 -126.5 -220.5t-96.5 -272.5l-18 -62q136 139 269 295q234 273 376.5 382.5t296.5 109.5q45 0 111.5 -15.5t111 -33.5
t77.5 -51.5t33 -73.5t-68.5 -105.5t-105.5 -67.5l-8 21q-46 156 -151 156q-138 0 -236 -87.5t-164 -181.5q-130 -186 -229 -276l209 -410q18 -33 60 -112t75 -127.5t72.5 -35.5t117 83t242.5 235v-112q-343 -377 -436 -377q-68 0 -137 75.5t-152 247.5l-199 449l-194 -94
q-77 -300 -145 -427q-66 -126 -144 -179q-109 -74 -244 -74q-83 0 -149.5 27t-102.5 67q-74 82 -75 156q-1 100 149 116q36 4 86 4v-59q0 -147 47 -185q22 -18 63 -18t81.5 24.5t70 70.5t52 97.5t40.5 119t29.5 120.5t24.5 118t20 95l21 95q61 289 163 393q46 46 109 80
q-42 5 -187 33t-211.5 28t-128.5 -8t-134.5 -27t-121 -58.5t-48.5 -92.5q0 -107 192 -187q0 -97 -31 -135z" />
    <glyph glyph-name="L" unicode="L" horiz-adv-x="1255" 
d="M324 117q-222 -146 -363 -146q-21 -1 -50 13q-58 27 -58 88q0 37 44 64.5t109 53.5l262 119l232 828q19 63 51.5 90.5t54.5 43t49 35.5t94 65t163.5 96t140.5 51q129 0 233.5 -105t104.5 -235q0 -58 -44 -80t-257.5 -140t-233.5 -118q-39 0 -39 41q-1 49 175 125
q66 28 122 67t57 74l-5 28q-52 242 -165 242q-48 -6 -117 -75t-120.5 -149.5t-61.5 -125.5q-99 -487 -233 -801q13 -4 39.5 -13t38 -12t175.5 -62.5t218 -59.5q88 1 280 169q72 64 156 150v-112q-226 -226 -360.5 -304.5t-261.5 -78.5q-8 0 -20.5 7t-76.5 39t-333 128z" />
    <glyph glyph-name="M" unicode="M" horiz-adv-x="1712" 
d="M639 -18q-53 15 -53 59l28 1087h-14l-479 -997q-43 -77 -122 -165t-182 -157t-182 -69q-47 0 -47 137q0 61 98 99.5t167 69.5q136 61 196 167q81 175 285.5 603t273.5 575q41 75 120.5 122.5t166.5 47.5q0 -1 12 -7q-35 -266 -52.5 -617.5t-23.5 -451.5h15
q18 39 125 242.5t354 704.5l-2 -2q27 44 131.5 95.5t161.5 53.5l8 -4q-6 -33 -43 -223q-170 -875 -170 -1114q0 -97 47 -97q72 0 375 297v-114q-390 -379 -549 -379q-113 0 -113 209q0 152 36.5 372.5t64.5 376.5t43.5 229t15.5 86t-12 13t-16 -12q-615 -1211 -664 -1237z
" />
    <glyph glyph-name="N" unicode="N" horiz-adv-x="1473" 
d="M549 1040q400 476 721 476q84 0 84 -93q0 -27 -42 -233q-124 -616 -124 -829.5t69 -213.5q37 0 84 48l256 245l-2 -110q-9 -10 -66.5 -68.5t-68.5 -68.5l-28 -25q-27 -25 -36.5 -33.5t-39 -35t-46 -39t-44.5 -34.5t-80 -52.5t-86 -30.5q-137 0 -137 319q0 508 137 940
q11 28 11 55t-12 44t-30 17t-36 -9q-159 -81 -293 -219q-263 -271 -369 -648q-23 -82 -57 -246t-42 -196h-206q0 93 36.5 249t99 382t93.5 364l82 318l-322 -228l-30 -10q-27 0 -27 51q0 24 25 41l430 271q121 78 170 78q20 0 20 -19q0 -58 -39 -210.5t-39 -164.5z" />
    <glyph glyph-name="O" unicode="O" horiz-adv-x="1653" 
d="M1553 976q32 -92 32 -184.5t-12 -154.5q137 21 280 106v-92q-135 -106 -313 -141q-61 -168 -194.5 -299t-298.5 -199.5t-332 -68.5q-322 1 -492 247q-123 178 -123 474q0 248 164 478q165 230 432 324q147 52 310 52q61 0 137 -13l-4 -102q-47 8 -137 8q-90 -1 -204 -41
q-210 -74 -340 -253.5t-130 -368.5q0 -344 219 -498q128 -90 306 -90t320 93.5t222 242.5h-13q-214 0 -369 110t-155 334q0 119 91 209t268 90q143 0 251 -114q54 -56 85 -149zM1030 999q0 -159 118 -264t300 -108q27 85 27 172q0 143 -73.5 235t-211.5 92q-81 0 -120.5 -34
t-39.5 -93z" />
    <glyph glyph-name="P" unicode="P" horiz-adv-x="1317" 
d="M63 176l-2 -110q0 -148 117 -148q170 0 273 440q11 46 51 256l110 576q6 29 54.5 43t85.5 14l88 2q-11 -78 -45 -255.5t-60 -282.5h25q248 0 381 110t133 246.5t-124 231t-351 94.5q-119 0 -253.5 -36.5t-235.5 -107.5t-101 -149.5t41 -117t123 -69.5q0 -104 -27 -159
q-166 50 -252 172q-47 66 -47 156.5t71 177.5q72 86 189 142q243 116 553 116q394 0 568 -178q100 -103 100 -240q0 -93 -48 -183.5t-132.5 -163.5t-213.5 -118t-278 -45q-68 0 -141 12q-75 -508 -301 -688q-118 -94 -246 -94t-214.5 61t-86.5 172q0 123 196 123z" />
    <glyph glyph-name="Q" unicode="Q" horiz-adv-x="1632" 
d="M754 -229q248 38 301 77l10 -120q-41 -22 -156.5 -46t-179.5 -30q-30 -72 -111 -121t-194.5 -49t-205.5 50q-48 26 -77.5 72t-29.5 107q0 80 67 80l385 -27q29 35 87.5 195t93.5 257q36 98 42 114q16 40 191 41zM422 -334l-121 10q-29 0 -37 -3t-8 -19q0 -24 53.5 -51
t99.5 -27q45 0 63 8q35 16 65 82h-115zM1514 976.5q32 -92.5 32 -185t-12 -154.5q137 21 280 106v-92q-135 -106 -313 -141q-61 -168 -194.5 -299t-298.5 -199.5t-332 -68.5q-322 1 -492 247q-123 178 -123 474q0 248 165 478q164 230 431 324q147 52 310 52q61 0 137 -13
l-4 -102q-47 8 -136 8q-90 -1 -204 -41q-210 -74 -340.5 -253.5t-130.5 -368.5q0 -344 219 -498q128 -90 306 -90t320 93.5t222 242.5h-13q-214 0 -369 110t-155 334q0 119 91 209t268 90q142 0 250 -114q54 -56 86 -148.5zM991 999q0 -159 118 -264t300 -108q27 85 27 172
q0 143 -73.5 235t-211.5 92q-81 0 -120.5 -34t-39.5 -93z" />
    <glyph glyph-name="R" unicode="R" horiz-adv-x="1616" 
d="M891 1518zM762 688q114 0 214 38.5t164.5 98t101 128t36.5 130.5q0 123 -115 216.5t-293 93.5q-228 1 -426 -79q-94 -38 -152.5 -98t-58.5 -128.5t44 -106.5t118 -68q0 -91 -26 -159q-119 38 -208 115t-89 189.5t71.5 198.5t187.5 142q246 119 530 119t479 -112
q92 -52 148 -132.5t56 -173.5q0 -183 -145 -282t-418 -169q54 -30 113 -123t100 -187t80.5 -168.5t60.5 -74.5t60.5 26t88.5 70t92.5 85.5t93 90.5t67.5 66l2 -102q-11 -12 -70 -77t-125 -131t-158 -128q-122 -82 -241 -40q-75 26 -141 144q-20 35 -31 50q-114 302 -225 450
q-3 -10 -15.5 -57.5t-40.5 -143.5q-26 -96 -72 -180q-78 -142 -155 -196q-115 -80 -243 -80t-232.5 68t-104.5 194q0 55 62.5 84.5t154.5 29.5q7 0 15 -4q-4 -40 -4 -73q0 -189 125 -189q67 0 128 103q62 102 104 257q72 263 113.5 499t55.5 272t41 47q45 18 98 18t80 -2
q-26 -217 -96 -559z" />
    <glyph glyph-name="S" unicode="S" horiz-adv-x="1069" 
d="M805 1518zM446 1285q-59 -70 -59 -141t29.5 -124t77.5 -99.5t149.5 -133t175.5 -175.5q107 -129 107 -288q0 -96 -41 -180q-74 -151 -255 -237.5t-378 -86.5q-116 0 -219 60t-103 182q0 62 48 102t118 43l43 2q-4 -54 -4 -91q1 -102 15 -130q40 -76 167 -76
q176 0 303 114q89 80 89 190t-107 235q-54 63 -166 175q-111 110 -159 166q-107 124 -107 223t40 180q71 145 243.5 234t349.5 89q120 0 223 -62q53 -32 86 -91t33 -138q0 -20 -197 -135t-250 -134v99q14 9 92 45q176 83 175 123q0 198 -209 198q-85 0 -168 -34t-142 -104z
" />
    <glyph glyph-name="T" unicode="T" horiz-adv-x="1085" 
d="M383 672q-159 65 -237 157.5t-78 180.5q0 246 302 406q193 102 447 102q90 0 293.5 -37t279 -37t130 15t108 37.5t72.5 27.5q-37 -125 -136.5 -198t-232.5 -73q-71 0 -129 20t-111 41t-75 29q-11 -52 -30 -151q-20 -99 -38 -191q-37 -185 -88 -367q-118 -419 -327 -593
q-117 -98 -277 -98q-187 0 -253 152q-17 39 -17 77q0 156 213 156q-11 -60 -11 -133t24 -111.5t85 -42.5q74 0 143 112t121 285t92.5 344t74 327t48.5 196q62 67 156 67h2q-75 21 -137 21q-139 0 -267 -54.5t-203 -138.5t-75 -168q0 -123 160 -192q0 -43 -10 -99.5
t-19 -68.5z" />
    <glyph glyph-name="U" unicode="U" horiz-adv-x="1595" 
d="M799 1509q0 -11 -53 -130t-116 -266.5t-116 -335t-53 -320.5q0 -310 284 -310q135 0 259.5 68.5t213 178.5t144 249.5t63.5 280.5q-58 9 -114 47q-164 112 -164 264q0 107 51 196t164 89q82 0 125.5 -84t51.5 -155.5t12.5 -117t3 -79t-1 -46t0.5 -14.5l24 6q52 11 130 49
q149 71 263 182v-114q-223 -187 -419 -227q-39 -310 -217 -566q-178 -258 -431 -358q-134 -54 -260 -53q-233 0 -327 126t-94 338t89.5 465.5t224.5 438.5q0 4 -4 4t-13 -6l-114 -88q-18 -10 -150.5 -93t-298.5 -182v111q110 64 320 193.5t338.5 204.5t156 75t27.5 -21z
M1430 1028l2 39q0 100 -31 186t-80 86q-55 0 -55 -83.5t47.5 -148t116.5 -79.5z" />
    <glyph glyph-name="V" unicode="V" horiz-adv-x="1415" 
d="M-63 1057l659 398q128 75 155 75t27 -21q0 21 -59 -176t-93 -332q-82 -323 -83 -542q0 -277 155 -277q62 0 135 51q128 89 259 296.5t194 392.5q-72 11 -166 85q-48 37 -80 100t-32 148t51 174t164 89q202 0 202 -496l49 10q50 11 137 50.5t163 97.5v-115
q-180 -117 -361 -147q-41 -192 -145 -416q-105 -224 -267 -386q-79 -80 -178 -126.5t-200 -46.5q-200 0 -281.5 146t-81.5 350.5t52.5 409t117.5 302.5q25 37 54.5 90t29.5 63.5t-2.5 10.5t-11.5 -6l-115 -88q-17 -10 -161.5 -99.5t-286.5 -175.5v111zM1296 1028l2 39
q0 143 -51 229q-26 44 -59 43q-55 0 -55 -83.5t47.5 -148t115.5 -79.5z" />
    <glyph glyph-name="W" unicode="W" horiz-adv-x="1978" 
d="M1884 1028l2 39q0 143 -51 229q-26 44 -59 43q-56 0 -56 -83.5t48 -148t116 -79.5zM1221 1174q82 0 82 -115q0 -182 -169 -609l-20 -49q0 -58 35 -101q68 -83 203 -83q99 0 198 75t168 184t112.5 230.5t43.5 215.5q-58 9 -114 47q-165 111 -165 264q0 107 51 196t164 89
q195 0 193 -481v-15l47 10q46 11 128 50.5t153 97.5v-115q-173 -119 -330 -147q-15 -235 -176 -512.5t-365 -396.5q-114 -66 -205 -66t-147.5 29.5t-86 65t-53 86.5t-30.5 91q-74 -101 -203 -185.5t-218 -84.5t-153 44q-66 44 -102 114q-72 139 -72 314.5t61.5 382
t168.5 351.5q23 33 53.5 88.5t30.5 65.5t-2 10t-13 -6l-114 -88q-16 -9 -148 -91.5t-301 -183.5v111q112 64 442 268.5t373 204.5q27 0 27 -21q0 -39 -102 -282q-194 -462 -193 -674q0 -371 221 -371q52 0 126.5 44.5t107.5 99.5q-8 40 -8 124.5t9 176.5t31.5 191.5
t55.5 177t86.5 128t118.5 50.5z" />
    <glyph glyph-name="X" unicode="X" horiz-adv-x="1544" 
d="M1530 1518q92 0 92 -58q0 -51 -132 -147q-55 -40 -135.5 -120t-144.5 -175q-95 -127 -229 -291l106 -268q81 -182 127 -253t91 -71t93.5 43t77.5 72t87 88t102 102l2 -112q-17 -18 -92.5 -98.5t-129.5 -134t-128 -103t-131 -49.5q-93 0 -182.5 118t-198.5 390l-19 43
q-243 -288 -331 -381t-162 -132.5t-176 -39.5t-130 60q-12 26 -12 69t23.5 60t67.5 17l149 -12q68 0 199.5 131.5t316.5 358.5q-114 271 -188 425t-84 175t-24 40t-48.5 19t-78 -27.5t-64 -38.5t-75 -40t-134.5 -76v110q391 225 456 265.5t103 40.5q68 0 111 -91
q23 -56 221 -559q95 120 137 170q178 244 248 323t153 140q26 17 66 17z" />
    <glyph glyph-name="Y" unicode="Y" horiz-adv-x="1554" 
d="M1001 -139l-278 -162q-112 -52 -183 -116.5t-71 -131t24.5 -103.5t59.5 -42q66 0 152 64.5t159 166.5t101 203zM653 1487q47 31 111.5 31t64.5 -29q0 -17 -28 -110.5t-49.5 -178.5t-124.5 -416t-103 -426q0 -37 24 -73.5t54 -36.5q70 0 164 38t185.5 101t165 157.5
t97.5 194.5l91 375q15 68 57.5 217.5t60.5 155.5h217l-354 -1401l387 354v-112l-405 -361q-233 -605 -645 -717q-87 -24 -169 -24t-146.5 22t-110 71.5t-45.5 114.5t51 93l809 432l159 498q-163 -188 -384 -331.5t-349 -143.5q-75 0 -123.5 62t-48.5 181t22 210t32.5 135
t38 129t44.5 141t74 213l107 311l-308 -213l-10 -6q-8 -8 -16.5 -8t-18.5 9.5t-10 33.5t21 39z" />
    <glyph glyph-name="Z" unicode="Z" horiz-adv-x="1450" 
d="M236 211l247 111q160 209 238 333l446 721q-177 17 -353.5 17t-315 -39t-138.5 -74q0 -126 62 -180q0 -25 -68 -39q-118 44 -177.5 126.5t-59.5 182.5q-1 80 351 124q188 24 379 24t361.5 -17.5t196.5 -19.5l43 -97q-37 -57 -131 -218.5t-176 -299.5t-205.5 -311.5
t-237.5 -294.5q10 -3 60 -18.5t82.5 -25t179 -53.5t195.5 -44t83 16q116 55 205 133v-100q-42 -24 -143 -93.5t-170.5 -100.5t-145.5 -31q-5 0 -13 4q-113 57 -458 170q-95 -63 -193.5 -104.5t-168.5 -41.5q-19 0 -50 13q-59 25 -59 88q0 80 134 139z" />
    <glyph glyph-name="bracketleft" unicode="[" horiz-adv-x="983" 
d="M279 -76l276 2q27 -6 27 -37t-62 -69q-322 -9 -434 -10q-18 -9 -28 -9t-17.5 11.5t-7.5 30t2 24.5l403 1612q16 57 80 57h426q15 0 24 -15.5t9 -33.5t-14.5 -35.5t-34.5 -21.5l-275 -9l-93 -365q-277 -1097 -281 -1132z" />
    <glyph glyph-name="backslash" unicode="\" horiz-adv-x="821" 
d="M158 1415q4 -15 160 -314q475 -913 542 -1093q4 -11 37 -68.5t33 -89.5t-23 -32q-113 0 -161 106q-8 16 -17.5 39.5t-15.5 34.5l-779 1556q-6 21 -6 33.5t6.5 22.5t14.5 10q91 0 130 -39.5t79 -165.5z" />
    <glyph glyph-name="bracketright" unicode="]" horiz-adv-x="989" 
d="M711 1423l-277 -2q-26 6 -26 36.5t61 70.5q325 9 434 10q20 8 29 8t16.5 -11.5t7.5 -29.5t-2 -24l-403 -1612q1 -5 -9 -24q-21 -42 -46 -42q-10 0 -25 9q-103 1 -426 10q-42 38 -26.5 69.5t42.5 36.5q19 0 129.5 -1t145.5 -1q-14 3 180 742t195 755z" />
    <glyph glyph-name="asciicircum" unicode="^" horiz-adv-x="1706" 
d="M1120 1214l-456 -497l-60 43q46 80 159 226.5t230 271t156 124.5q29 0 110.5 -158.5t147 -309.5t68.5 -164l-72 -41q-20 30 -139.5 247t-143.5 258z" />
    <glyph glyph-name="underscore" unicode="_" horiz-adv-x="930" 
d="M776 -74l-137 2q-139 0 -510 -18q-57 0 -57 41q0 72 49 86q44 6 254.5 16t292.5 10q209 0 209 -40q0 -30 -31.5 -63.5t-69.5 -33.5z" />
    <glyph glyph-name="grave" unicode="`" horiz-adv-x="1706" 
d="M1053 805zM788 1083l-88 35q-18 5 -18 32t36 63t70 36q75 -4 204.5 -89t215.5 -165l-22 -55q-288 100 -398 143z" />
    <glyph glyph-name="a" unicode="a" 
d="M150 -29q-120 -1 -148 169q-6 40 -6 85q0 109 54 220t142.5 198t212 142t252.5 55q64 0 168 -33q-1 -7 -20 -91.5t-55 -248.5t-35.5 -222.5t30.5 -58.5q66 0 306 254v-112q-152 -157 -289.5 -257t-183.5 -100q-76 0 -76 131q0 43 8 97q-72 -94 -167.5 -161t-192.5 -67z
M209 281q0 -150 98 -150q42 0 103.5 44t111.5 97l115 492q-108 0 -209 -77t-160 -189t-59 -217z" />
    <glyph glyph-name="b" unicode="b" horiz-adv-x="986" 
d="M430 924q103 66 209 223.5t106 251.5q0 67 -67 67q-32 0 -93.5 -120.5t-108 -252t-46.5 -169.5zM225.5 891.5q46.5 161.5 64.5 226t61.5 145.5t102.5 153t135.5 118.5t151.5 46.5q154 0 154 -131q0 -255 -500 -717q-8 -32 -30.5 -118.5t-47 -187.5t-24.5 -191
q0 -160 117 -160q70 0 147.5 57.5t128.5 142.5t51 160q0 164 -256 164q14 55 89.5 115.5t131.5 60.5q107 0 159 -61.5t52 -169t-33.5 -216.5t-111.5 -173q69 40 178 155t129 135l-1 -114q-6 -5 -41 -40q-35 -34 -49 -48q-156 -145 -274 -200q-217 -101 -385 -101t-207.5 55
t-39.5 136.5t9 164t35.5 196.5t41.5 174.5t61.5 222z" />
    <glyph glyph-name="c" unicode="c" horiz-adv-x="696" 
d="M508 840q199 0 199 -130q0 -38 -37.5 -66t-94.5 -28q-31 0 -58 64q-10 24 -32.5 43.5t-52.5 19.5q-58 0 -109 -65t-79.5 -158t-28.5 -181.5t32 -143t97 -54.5q174 0 479 301v-112q-270 -264 -446 -330q-78 -30 -150 -29q-115 0 -173 72t-58 178.5t39 213t104.5 197
t163.5 149.5t205 59z" />
    <glyph glyph-name="d" unicode="d" horiz-adv-x="913" 
d="M850.5 737.5q-109.5 -398.5 -109.5 -468.5t28 -70t100.5 71t166.5 170v-112q-14 -14 -51.5 -52t-55.5 -56l-53 -52q-34 -34 -54.5 -52.5t-50.5 -45.5q-110 -99 -165 -99q-82 0 -82 133q0 64 17 134q-108 -126 -217 -196q-110 -71 -164 -71q-96 0 -123 68.5t-27 158.5
t49 208.5t125 213.5t173.5 157.5t172.5 62.5t146 -21l133 475q28 115 60 138t70.5 25.5t82.5 2.5h35q-4 -34 -35 -139q-62 -185 -171.5 -583.5zM657 731q-4 14 -35.5 26.5t-58.5 12.5q-86 0 -167 -79t-128 -191.5t-47 -214.5q0 -127 82 -127q64 0 160 72.5t106 113.5z" />
    <glyph glyph-name="e" unicode="e" horiz-adv-x="724" 
d="M303 565q76 -98 168 -98q58 0 100.5 57t42.5 120t-24 84q-24 22 -68 22q-86 0 -143 -64.5t-76 -120.5zM292 -31q-121 0 -193 79.5t-72 217.5t61 270.5t175.5 218t254.5 85.5q236 0 236 -176q0 -114 -92 -198.5t-207 -84.5q-46 0 -96 27t-85 81q-43 -90 -43 -176
q0 -231 168 -231q44 0 108.5 42t114 88.5t125.5 123t105 102.5v-110q-158 -174 -254 -242t-165.5 -92.5t-140.5 -24.5z" />
    <glyph glyph-name="f" unicode="f" horiz-adv-x="453" 
d="M547 1358q-46 0 -89 -91q-98 -205 -184 -681q20 32 99.5 149t161 262t81.5 253t-69 108zM575 440v-112q-184 -197 -268.5 -197t-107.5 62q0 -16 -48 -261t-57 -277h-168q40 298 140 742t196 793q27 97 147.5 186.5t239.5 89.5q86 0 93 -103q1 -15 1 -38
q0 -119 -53.5 -250.5t-129.5 -240t-152 -202t-129.5 -163.5t-53.5 -109.5t31 -80.5t66 -41t122.5 74.5t130.5 127.5z" />
    <glyph glyph-name="g" unicode="g" 
d="M424 -507q-68 -40 -122 -40t-95.5 14.5t-72 48.5t-30.5 65t3.5 45t14.5 29t17.5 24.5t26.5 26.5t27 23t34 26.5t33 25.5l277 213l32 170q-128 -114 -212.5 -153.5t-158.5 -39.5t-110.5 62t-36.5 145.5t26.5 178t77 180.5t117.5 154t156 108.5t181 40.5t302 -39l-153 -647
q27 25 81.5 76.5t95.5 90.5t116 119v-112l-314 -305q-47 -259 -183 -419q-62 -72 -130 -111zM524 -117l-164 -139q-47 -31 -73 -64t-31 -55q-6 -23 -6 -55q0 -62 77 -62t127.5 103t69.5 272zM270 324q0 -193 97 -193q86 0 217 148l116 487q-74 18 -98 18q-67 0 -130 -44
q-62 -44 -106 -111q-96 -147 -96 -305z" />
    <glyph glyph-name="h" unicode="h" horiz-adv-x="881" 
d="M732 226q0 -23 15.5 -23t118 103.5t142.5 137.5v-112q-315 -361 -412 -361q-64 0 -64 76q0 39 58.5 235t58.5 316q0 57 -57 57q-88 0 -185.5 -128.5t-132 -259t-55.5 -185.5t-53 -82h-156q17 131 309 1204q47 177 79.5 214.5t71.5 40.5t77.5 3t48.5 -4l-262 -948
q74 137 194 233.5t234 96.5q98 0 98 -117q0 -42 -64.5 -229.5t-64.5 -260.5z" />
    <glyph glyph-name="i" unicode="i" horiz-adv-x="469" 
d="M231 199q0 -66 35 -66q22 0 138.5 114.5t185.5 190.5v-112l-20 -20q-188 -186 -279.5 -258.5t-173.5 -76.5q-44 0 -66 39.5t-22 101.5t56 291t80 291t56 83.5t65 25.5t91 4h12q-158 -506 -158 -608zM511.5 1099.5q-47.5 -56.5 -101.5 -56.5q-98 0 -98 102q0 50 43 96.5
t98.5 46.5t80.5 -20t25 -66t-47.5 -102.5z" />
    <glyph glyph-name="j" unicode="j" horiz-adv-x="442" 
d="M-18 2l38 135q23 121 69 319t59.5 232t22 49.5t20.5 26.5t21 18.5t27 12t30.5 8.5t64.5 4h41q-1 -5 -19 -67q-160 -542 -161 -634q20 8 138 112t234 222v-112q-93 -94 -147 -146q-149 -144 -262 -198q-5 -24 -16 -77t-14.5 -67.5t-11.5 -53.5t-11 -51.5t-10 -43
t-11.5 -47t-11.5 -45t-14.5 -54.5t-16.5 -59q-27 -97 -147.5 -187t-239.5 -90q-33 0 -55 20t-36 71q-32 114 54.5 273.5t232.5 305.5q82 83 132 123zM-304 -650q18 -32 49.5 -32t50.5 12q30 20 74.5 110.5t106.5 442.5q-212 -250 -261 -366t-20 -167zM444 1288
q102 0 101 -80q0 -40 -47.5 -87.5t-108.5 -47.5q-72 0 -72 72q0 49 37.5 96t89.5 47z" />
    <glyph glyph-name="k" unicode="k" horiz-adv-x="905" 
d="M686 262l-2 -74q0 -67 18 -67q7 0 12.5 5.5t134 132t179.5 181.5v-112q-20 -19 -139 -136.5t-182 -169t-117 -51.5q-94 0 -94 142l14 190q0 29 -16 46q-35 38 -205 38l-6 -27q-67 -300 -138 -360h-155q16 131 309 1204q47 175 79.5 214.5t71 41.5t77 2t48.5 -4
q-38 -139 -133 -461.5t-94 -322.5q141 166 348 166q59 0 96 -41t37 -86q0 -133 -77.5 -185.5t-229.5 -103.5q104 0 134 -47t30 -115zM295 457h67q91 1 160 33q129 61 129 156t-78 95q-36 0 -99.5 -45.5t-118 -114.5t-60.5 -124z" />
    <glyph glyph-name="l" unicode="l" horiz-adv-x="603" 
d="M668 1417q-81 0 -157.5 -195t-176.5 -604q85 77 160 185.5t120 210.5q97 219 97 311t-43 92zM170 -29q-35 0 -48 18q-13 19 -20 31q-22 38 -22 148v39q0 193 53.5 427t137 432t195.5 332t218 134q65 0 102.5 -44.5t37.5 -132t-30 -197.5q-52 -191 -159.5 -352.5
t-201 -259.5t-125.5 -124l-5 -41q-16 -131 -16 -197.5t35 -66.5q27 0 150.5 124.5t225.5 240.5v-112q-190 -214 -308 -306.5t-220 -92.5z" />
    <glyph glyph-name="m" unicode="m" horiz-adv-x="1348" 
d="M705 838q77 0 77 -156q0 -68 -53 -242q71 139 191 263q60 61 130 99t134 38q112 0 112 -148t-78 -378q-22 -63 -22 -84t9.5 -21t20.5 5.5t26.5 18t30.5 26t39 37t43 42t50 49.5l53 53v-112q-125 -129 -261 -244t-185 -115q-59 0 -59 88q0 117 69.5 270.5t69.5 254.5
q0 27 -19 50t-57.5 23t-91.5 -56q-88 -93 -164.5 -278.5t-114.5 -320.5h-192q0 131 65.5 344t65.5 248.5t-14 51t-28 15.5t-26 -4q-130 -60 -258 -359q-66 -154 -102 -296h-191q8 129 69.5 403.5t111.5 354.5q18 32 60.5 40.5t145.5 8.5q-14 -70 -57.5 -203t-52.5 -164
q227 398 453 398z" />
    <glyph glyph-name="n" unicode="n" horiz-adv-x="838" 
d="M958 436v-112q-159 -162 -281.5 -257.5t-163.5 -95.5q-75 0 -75 84t37.5 200.5t75 211t37.5 126.5t-11.5 47t-27.5 15q-57 0 -123 -79.5t-118 -192.5q-108 -234 -142 -383h-191q1 108 61 358t107 369q19 48 54.5 64t95.5 16h67l-108 -363q67 126 194 254q62 62 135 102
t138 40q98 0 98 -117q0 -56 -70.5 -265.5t-70.5 -231t12.5 -21.5t33 13.5t118.5 107t118 110.5z" />
    <glyph glyph-name="o" unicode="o" horiz-adv-x="867" 
d="M240 346q0 -92 54 -153.5t132 -61.5q105 0 198 122q-71 43 -110 112t-39 143.5t48 124t139 49.5t132.5 -49t41.5 -117q0 -136 -100 -232h31q45 0 113 71q16 17 48 51.5t53 55.5v-110q-71 -76 -117.5 -109t-91 -33t-77.5 4q-154 -243 -364 -243q-179 -1 -257 153
q-43 85 -43 193q0 253 172.5 399t458.5 146q20 0 22 -13q0 -17 -3.5 -25t-18.5 -18q-246 0 -356 -185q-66 -110 -66 -275zM741 494q0 92 -81.5 92t-81.5 -97q0 -42 29.5 -91t73.5 -78q21 23 40.5 77.5t19.5 96.5z" />
    <glyph glyph-name="p" unicode="p" horiz-adv-x="836" 
d="M408 -16q-72 0 -72 52q0 37 26 68t38 46q76 86 135 214t59 209.5t-66 81.5q-113 0 -202.5 -172.5t-159.5 -398.5l-27 -86q-20 -67 -116 -431h-180q41 144 87 370q113 556 203 790q22 55 56.5 67.5t93.5 12.5h67q-52 -181 -108 -363q64 126 182 252q59 63 129.5 103.5
t134.5 40.5q129 0 129 -152q0 -132 -91.5 -304.5t-197.5 -238.5q102 1 270 147q80 70 185 177v-115q-24 -23 -68 -66.5t-63.5 -62t-56.5 -53.5t-56 -50t-51.5 -40t-54 -35.5t-53.5 -26.5q-74 -36 -172 -36z" />
    <glyph glyph-name="q" unicode="q" horiz-adv-x="897" 
d="M521 -510l-190 61l150 402q-49 -8 -108 -8q-318 0 -318 313q1 205 133 387q62 86 161 140.5t203 54.5t312 -80l-153 -637q64 72 161 162.5t150 154.5v-112l-332 -310v-4q-26 -97 -86 -291.5t-83 -232.5zM262 291q0 -230 162 -230q39 0 72 11l157 694q-73 18 -98 18
q-77 0 -146.5 -80.5t-108 -194t-38.5 -218.5z" />
    <glyph glyph-name="r" unicode="r" horiz-adv-x="639" 
d="M462 729l120 14q29 0 29 -14q1 -14 -69 -157q-158 -324 -158 -390v-8q-3 -37 23.5 -37t160 118.5t182.5 184.5v-112q-357 -357 -481 -357q-44 0 -66 39.5t-22 77.5t15 87.5t40.5 114t47.5 117t48.5 113t30.5 70.5q-57 -64 -132.5 -139t-141.5 -149v116l203 229
q-122 30 -158 94q-8 13 -8 23q0 70 53 123t141 53q45 0 45 -53q0 -31 -18 -67.5t-43 -49.5q46 -41 158 -41z" />
    <glyph glyph-name="s" unicode="s" horiz-adv-x="645" 
d="M545 367q0 -74 -70 -170l297 243v-110q-12 -10 -60 -52q-46 -42 -68 -60q-286 -247 -445 -247q-106 0 -195.5 37t-89.5 135q0 39 29 89t63.5 88t81.5 87t64 70q-27 67 -27 158.5t89.5 159t267.5 67.5q63 0 63 -34q0 -66 -77.5 -99t-160.5 -33q37 -103 137.5 -190
t100.5 -139zM195 399q-8 -9 -61 -57q-118 -106 -118 -162t58 -94.5t125 -38.5t108 22.5t41 57.5t-9 63t-28.5 58.5t-34 50t-43.5 54t-38 46.5z" />
    <glyph glyph-name="t" unicode="t" horiz-adv-x="545" 
d="M142 735q-69 0 -69 39q0 13 2.5 20t34.5 11l84 8q47 156 79 227t70 115q74 86 189 86l4 -4q0 -4 -56 -164t-85 -260l305 14l-22 -36q-25 -46 -299 -46q-1 0 -61 -221t-60 -291.5t16 -81t33 -10.5q54 0 381 310v-113q-34 -31 -94 -87t-130 -120q-176 -160 -300 -160
q-119 0 -119 166q0 91 28.5 214.5t48.5 202t44 181.5h-24z" />
    <glyph glyph-name="u" unicode="u" horiz-adv-x="993" 
d="M154 -29q-117 0 -117 168q0 57 14 111q60 227 166 532q4 25 162 25h35q0 -2 -82 -260t-82 -330t67 -72q57 0 141.5 49t98.5 78l109 416q22 85 56 102t64 17h101l-33 -117q-102 -374 -117 -444q-8 -76 -8 -91t4.5 -20.5t23 -5.5t78.5 49t279 260v-112q-24 -22 -83 -78
t-90 -84q-210 -194 -320 -193q-86 0 -86 131q0 55 10 93q-231 -224 -391 -224z" />
    <glyph glyph-name="v" unicode="v" horiz-adv-x="778" 
d="M246 -29q-62 1 -106 83q-86 159 -85 489q0 125 13 215q2 14 32.5 31.5t124.5 17.5h80q-31 -165 -31 -317.5t31.5 -262.5t69.5 -110q30 0 111 137q38 64 37 64.5t-1 51.5t9.5 132t28.5 159t52.5 128.5t75.5 50.5q51 0 51 -97.5t-42 -250.5t-70 -224q20 -39 20 -55
q26 0 63 35t59 57.5t65 66.5t73 74v-112q-163 -169 -204.5 -192t-63.5 -23q-33 0 -76 92q-82 -144 -132 -184q-50 -39 -96 -47.5t-89 -8.5z" />
    <glyph glyph-name="w" unicode="w" horiz-adv-x="1204" 
d="M254 246q0 -146 104 -146q53 0 119 60v14q0 98 35 218q68 233 160 233q51 0 51 -63.5t-36 -182.5t-36 -133q0 -70 26 -108t68.5 -38t91 61t58.5 136q4 20 13 140q9 121 35 237q36 166 126 166q22 0 36.5 -65.5t14.5 -121.5t-29.5 -157.5t-64.5 -180.5q15 -36 39 -36
t65.5 35.5t131.5 127.5v-114q-23 -20 -58.5 -54.5t-70.5 -66.5q-81 -75 -148 22q-47 -111 -129 -184.5t-188 -73.5q-61 0 -105.5 29t-66.5 78q-114 -107 -267 -107q-87 0 -138.5 58.5t-51.5 144.5q0 150 135 555q26 78 158 78h59q-5 -19 -43 -133q-94 -282 -94 -428z" />
    <glyph glyph-name="x" unicode="x" horiz-adv-x="903" 
d="M172 133l186 223l-149 289q-13 25 -28.5 25t-83.5 -57.5t-103 -96.5l-23 55q80 99 177 183t156 84t83 -41q4 -8 41 -87t82 -171l139 168q100 133 185 133q28 0 45.5 -18.5t17.5 -41.5t-26 -40.5t-63.5 -41t-73.5 -70t-169 -200.5q103 -201 152 -252q2 -2 6 -2
q27 0 123 88.5t182 181.5v-116q-46 -43 -144 -139t-166.5 -157t-111.5 -61q-42 -1 -79 61q-14 24 -38 70l-75 146q-52 -62 -140 -170q-104 -133 -184 -133q-29 0 -46 18t-17 40t25.5 40t63 42.5t56.5 47.5z" />
    <glyph glyph-name="y" unicode="y" horiz-adv-x="860" 
d="M113 -29q-117 0 -117 172q0 127 180 639q4 25 162 25h35q0 -2 -82 -260t-82 -330t67 -72q57 0 141.5 49t98.5 78l109 416q22 85 55.5 102t63.5 17h102q-27 -76 -162 -578l-18 -65q228 190 317 276v-112l-334 -301v-4q-23 -127 -72.5 -228t-111.5 -161
q-127 -123 -260 -123q-69 0 -129 44t-60 104t40.5 101.5t115.5 83.5l301 191l33 160q-233 -224 -393 -224zM461 -88l-185 -117q-52 -31 -81 -60.5t-29 -72.5q0 -82 74 -82q89 0 144 91t77 241z" />
    <glyph glyph-name="z" unicode="z" horiz-adv-x="737" 
d="M569 729l119 14q27 0 27 -30q0 -11 -2 -13l-135 -282q-24 -56 -97 -205q28 -10 46 -28.5t18 -32.5q81 53 200.5 173.5t126.5 127.5l41 -74q-235 -238 -338 -316q-20 -250 -134 -417.5t-283 -180.5q-114 0 -178 45.5t-64 120.5q0 155 118.5 259t354.5 180q-11 3 -78 16
t-67 25q0 32 85.5 214.5t108.5 235.5l-61 14q-19 -19 -115 -110.5t-147 -142.5v110l194 205q-73 36 -73 133q0 59 52 114.5t136 55.5q19 0 35 -12t16 -36.5t-9 -52.5t-26.5 -45.5t-25.5 -21.5q42 -43 155 -43zM451 -4q-84 -46 -181 -76t-138.5 -76t-41.5 -155
q0 -46 20 -81.5t68 -35.5t112.5 67.5t111 168.5t49.5 188z" />
    <glyph glyph-name="braceleft" unicode="{" horiz-adv-x="813" 
d="M86 319l2 41q2 43 16.5 131t15.5 129t-3.5 58t-13.5 22.5t-18 6t-24 0.5t-26 4l26 176q31 -2 63 -2t44 7q10 7 18 24q8 19 22 79q56 266 193 444q119 154 322 154q37 0 78 -6l-21 -114q-24 8 -49 8q-60 0 -117 -48.5t-99 -125.5q-81 -149 -112.5 -294t-72.5 -181
t-105 -50q53 -31 73.5 -64t20.5 -78t-14 -169t-14 -201.5t12 -144t43.5 -111.5t72 -45t62.5 11l-12 -95q-49 -16 -100 -16q-93 0 -159 64q-124 121 -124 386z" />
    <glyph glyph-name="bar" unicode="|" horiz-adv-x="739" 
d="M459 1374l6 29q17 78 33 96.5t81.5 18.5t65.5 -5l-377 -1556q-3 -11 -6.5 -39t-7.5 -44t-17 -30t-34 -14h-113l29 137q38 169 188 783t152 624z" />
    <glyph glyph-name="braceright" unicode="}" horiz-adv-x="813" 
d="M708.5 971q-14.5 -88 -15.5 -151.5t35 -63.5h24q15 0 26 -4l-26 -177q-31 3 -63 3t-43.5 -7t-19 -24.5t-11 -33t-10 -46t-11.5 -51.5q-145 -547 -504 -547q-37 0 -78 6l21 115q24 -8 49 -8q60 0 117 48t99 126q84 156 112 297q29 140 71 176q41 36 107 51
q-53 31 -73.5 63.5t-20.5 78t14 170t14 202t-12 144t-43.5 111t-72 44.5t-62.5 -10l12 94q49 16 100 16q94 0 159 -64q122 -120 122 -386v-41q-2 -43 -16.5 -131z" />
    <glyph glyph-name="asciitilde" unicode="~" horiz-adv-x="1118" 
d="M246 1188q11 -123 82 -123q59 0 153 29.5t191 58.5t152 29q97 0 142.5 -72.5t45.5 -189.5l-125 -19q-14 129 -76 129q-79 0 -228 -62.5t-270 -62.5q-85 0 -122 60q-54 85 -54 202z" />
    <glyph glyph-name="exclamdown" unicode="&#xa1;" horiz-adv-x="608" 
d="M494 1139q23 10 45 10t26 -7t4 -26.5t-2 -32.5l-151 -862q-25 -180 -56 -211q-10 -10 -22 -10h-182q-33 0 -33 53.5t126 405t185.5 515.5t59.5 165zM582 1311q-112 0 -111 88q0 44 52 95.5t105 51.5q93 0 93 -78q0 -54 -41.5 -105.5t-97.5 -51.5z" />
    <glyph glyph-name="cent" unicode="&#xa2;" horiz-adv-x="778" 
d="M561 965q199 1 199 -129q0 -38 -37 -66.5t-94 -28.5q-29 0 -53 51.5t-58 67.5l-137 -594h16q115 0 301 144l41 -80q-227 -199 -397 -228l-106 -462q-4 -16 -8 -47t-7.5 -45.5t-16 -28t-34.5 -13.5q-29 0 -29 29q0 21 11 76l8 53q31 157 96 432q-125 7 -186.5 78
t-61.5 169.5t33.5 194t92 179.5t145 148.5t184.5 86.5l78 318q36 144 45 170t30 26q11 0 23 -7.5t12 -28.5l-108 -467zM324 383l116 477q-59 -18 -109 -84q-104 -136 -104 -313q0 -123 74 -172q8 43 23 92z" />
    <glyph glyph-name="sterling" unicode="&#xa3;" horiz-adv-x="1368" 
d="M262 117q-225 -146 -362 -146q-22 -1 -51 13q-58 27 -58 88q0 36 42.5 63t111.5 55l262 119l31 111l-144 -6q-57 0 -57 41q0 71 49 86q30 6 190 16l25 90l-166 -8q-57 0 -57 41q0 72 49 86q42 8 213 18l98 353q11 37 23.5 53.5t18.5 25t20.5 20.5t20 16.5t25 18.5
t48.5 35.5t94.5 65t162.5 95t140 51.5q129 0 233.5 -105t104.5 -235q0 -58 -45 -80.5t-257.5 -140t-232.5 -117.5q-38 0 -38 41q0 49 176 125q66 28 121.5 67t56.5 74l-6 28q-27 153 -95 214q-31 28 -69 28q-48 -6 -117 -75t-121 -149.5t-61 -125.5q-22 -106 -61 -274h32
q209 0 209 -41q0 -30 -31.5 -63.5t-68.5 -33.5l-137 2h-41q-13 -48 -27 -92q33 2 96 2q209 0 209 -41q0 -30 -31 -63t-69 -33l-137 2q-58 0 -113 -2q-7 -22 -63 -164q13 -4 39 -13t38 -12t194 -62.5t228 -59.5q45 0 79 16q111 53 206 133v-100q-42 -24 -143 -93.5
t-170.5 -100.5t-145.5 -31q-5 0 -13 4q-113 57 -458 170z" />
    <glyph glyph-name="currency" unicode="&#xa4;" horiz-adv-x="1176" 
d="M152 819q0 185 118 311l-96 127q-20 13 -39.5 46.5t-19.5 55.5t17.5 47.5t45.5 25.5t75 -50t134 -165q99 47 203.5 47t193.5 -47q16 18 68 85.5t57 75.5l-2 -2q0 4 10 16q32 40 77 40t96 -48q-5 -22 -13 -30l-192 -228q71 -95 71 -225q0 -195 -127 -317q63 -83 129 -162
t66 -98.5t-23.5 -36.5t-63.5 -17t-73 43l-145 191q-97 -47 -203.5 -47t-189.5 45l-76 -90q-74 -90 -98.5 -103.5t-41 -13.5t-42 15t-25.5 38.5t7.5 38t26.5 33.5t41.5 52.5t96.5 125.5q-63 89 -63 221zM738 1050.5q-50 61.5 -160.5 61.5t-180 -88.5t-69.5 -189.5
t47.5 -163.5t156.5 -62.5t182.5 88t73.5 190.5t-50 164z" />
    <glyph glyph-name="yen" unicode="&#xa5;" horiz-adv-x="1546" 
d="M979 -20l-137 2h-99q-41 -197 -45 -217q-40 -201 -90 -201h-178q-27 0 -27 45t27 166q5 44 33 198l-213 -10q-57 0 -57 41q0 72 49 86q38 6 250 16l18 91l-219 -9q-58 0 -58 41q0 72 50 86q25 5 196 15q-8 34 -53 202t-64 308q-14 68 -39 217.5t-36 193.5l-31 -18
q-19 -12 -68 -41v111q98 73 163.5 126t97.5 77t57.5 24t25.5 -21l6 -37q61 -415 107 -624q41 -267 94 -461l109 100q109 100 235.5 244t161.5 232q-71 11 -165 85q-48 37 -80.5 100t-32.5 148t51 174t164 89q202 0 202 -496l36 9q35 8 99 42.5t121 85.5v-115
q-138 -103 -268 -127q-52 -215 -475 -616h14q209 0 209 -41q0 -30 -31 -63t-69 -33l-137 2h-90l-21 -92l98 2q209 0 209 -41q0 -30 -31 -63t-69 -33zM1255 1069l2 39q0 100 -30.5 186t-79.5 86q-55 0 -55 -83t47.5 -148.5t115.5 -79.5z" />
    <glyph glyph-name="brokenbar" unicode="&#xa6;" horiz-adv-x="739" 
d="M96 -145l166 716q6 29 42.5 29t73 -11t38.5 -18l-148 -614q-23 -94 -38 -110.5t-27 -16.5q-107 0 -107 25zM645 1513l-153 -632q-5 -23 -25 -23q-105 0 -117 8t-12 15l121 493q4 16 9 38l7 31q13 58 36 67q23 8 78.5 8t55.5 -5z" />
    <glyph glyph-name="section" unicode="&#xa7;" horiz-adv-x="1069" 
d="M768 461q70 -74 70 -162.5t-47 -157t-120 -110.5q-153 -88 -309 -88t-238 91q-44 49 -44 110.5t41.5 95.5t101.5 36l37 3q-4 -46 -4 -78t0.5 -44t3 -34.5t8.5 -33t18 -26t29.5 -22.5t44.5 -12.5t62 -5.5t77 15t80.5 41.5t64.5 68.5t26 95.5t-48.5 108.5t-118 97.5
t-138.5 82.5q-166 95 -166 168q0 103 54.5 186t147.5 140q-100 83 -100 159q-1 76 35 139q63 111 214.5 177t295.5 66t221.5 -71t77.5 -179q0 -18 -170 -117t-215 -115v84q8 5 78 38q152 72 151 108q0 170 -172 170q-173 -1 -277 -105q-54 -54 -53.5 -106t33.5 -96
t157.5 -112.5t185.5 -116.5q93 -73 93 -165q0 -198 -188 -323zM614 880q-24 16 -69 45.5t-66 43.5q-94 -77 -94 -181q-1 -58 71 -112q43 -32 123.5 -80t112.5 -70q76 73 76 161t-154 193z" />
    <glyph glyph-name="dieresis" unicode="&#xa8;" horiz-adv-x="1706" 
d="M688 840zM510 1220q112 0 112 -88q0 -44 -53 -96t-105 -52q-92 0 -92 78q0 55 41 106.5t97 51.5zM992 1220q112 0 112 -88q0 -44 -52 -96t-106 -52q-92 0 -92 78q0 55 41 106.5t97 51.5z" />
    <glyph glyph-name="copyright" unicode="&#xa9;" horiz-adv-x="1819" 
d="M909 831q-28 1 -28 29q0 47 111.5 94t111.5 82q0 40 -30.5 100t-67.5 60q-82 0 -156 -44t-124 -113q-108 -149 -108 -298t63.5 -245.5t203.5 -96.5q205 0 428 217v-94q-268 -256 -502 -256q-109 0 -189 56q-155 109 -155 342q0 159 69 297.5t198 224.5t290 86
q91 0 162 -64.5t71 -154.5q0 -40 -29.5 -60t-169 -91t-149.5 -71zM1585 758q-6 218 -116 391q-175 276 -524 276q-125 0 -255.5 -49.5t-235 -137t-169 -221t-64.5 -281.5q0 -146 38 -264q69 -214 238.5 -324.5t364.5 -110.5q140 0 270.5 51.5t231 143t161 229t60.5 297.5z
M665.5 1470.5q138.5 47.5 288 47.5t271.5 -42q226 -79 354.5 -280.5t128.5 -451t-142 -460.5q-140 -212 -402 -296q-142 -46 -280 -45.5t-241 27.5t-200 87t-170.5 147.5t-117.5 218t-44 267t36 251t108.5 218.5t172 184t238 127.5z" />
    <glyph glyph-name="ordfeminine" unicode="&#xaa;" horiz-adv-x="885" 
d="M168 805q-115 0 -115 217q0 58 40.5 142t107.5 149.5t160.5 107t167.5 41.5t151 -24q0 -1 -23 -102.5t-42 -197t-19 -132.5t25 -37q50 0 229 190v-84q-69 -74 -188.5 -172t-169.5 -98q-58 0 -58 100q0 15 6 72q-52 -70 -125.5 -121t-146.5 -51zM213 1040q0 -114 76 -114
q31 0 78 34t82 72l90 373q-82 0 -159.5 -58.5t-122 -143t-44.5 -163.5z" />
    <glyph glyph-name="guillemotleft" unicode="&#xab;" horiz-adv-x="1122" 
d="M367 438l92 -125q127 -156 127 -217q0 -24 -21 -42.5t-64 -18.5t-114 88q-332 413 -332 493q0 36 47 87q12 13 37 40t43 48l156 174q13 15 46.5 58t56.5 69t61.5 49.5t77.5 23.5q55 0 55 -53q0 -20 -35 -52q-155 -144 -219 -231l-154 -180zM621 649l210 -295
q127 -156 127 -217q0 -24 -20.5 -42.5t-63.5 -18.5t-114 88q-311 379 -311 452q1 36 49 89t77 86l156 174q14 15 47 57.5t56.5 69t61.5 50t77 23.5q55 0 55 -53q0 -20 -35 -52q-155 -144 -219 -231z" />
    <glyph glyph-name="uni00AD" unicode="&#xad;" horiz-adv-x="1038" 
d="M506 821zM754 979l-138 2q-90 0 -346 -18q-57 0 -57 41q0 70 49 86q26 7 146.5 16.5t236.5 9.5q209 0 209 -41q0 -30 -31 -63t-69 -33z" />
    <glyph glyph-name="registered" unicode="&#xae;" horiz-adv-x="1819" 
d="M553 1008q0 -60 100 -99q0 -68 -18 -114q-82 24 -139.5 76t-57.5 120.5t38 118.5q65 85 210.5 127.5t235.5 42.5t157.5 -15t131.5 -44.5t105.5 -83t41.5 -113.5t-22 -104q-39 -77 -119 -115t-193 -68q66 -57 125 -193t72 -136q23 0 77.5 49.5t83.5 77t60 58.5t37 36v-84
q-205 -248 -320 -248q-55 0 -102.5 48t-75 107t-61 134.5t-54.5 105.5q-46 -166 -72 -212q-57 -102 -115.5 -142.5t-142.5 -40.5t-148 45t-64 125q0 61 98 77q22 4 43 3l20 -2q-6 -51 -6 -60q0 -104 70 -104q65 0 126 190q39 123 64 264t29 172t10 57q14 52 111 52h49
q-15 -127 -57 -344q65 1 132.5 29t117 83.5t49.5 117.5t-40 105q-76 81 -189 81t-211 -28q-187 -52 -187 -152zM1585 758q-6 218 -116 391q-175 276 -524 276q-125 0 -255.5 -49.5t-235 -137t-169 -221t-64.5 -281.5q0 -146 38 -264q69 -214 238.5 -324.5t364.5 -110.5
q140 0 270.5 51.5t231 143t161 229t60.5 297.5zM665.5 1470.5q138.5 47.5 288 47.5t271.5 -42q226 -79 354.5 -280.5t128.5 -451t-142 -460.5q-140 -212 -402 -296q-142 -46 -280 -45.5t-241 27.5t-200 87t-170.5 147.5t-117.5 218t-44 267t36 251t108.5 218.5t172 184
t238 127.5z" />
    <glyph glyph-name="macron" unicode="&#xaf;" horiz-adv-x="1038" 
d="M506 821zM754 979l-138 2q-90 0 -346 -18q-57 0 -57 41q0 70 49 86q26 7 146.5 16.5t236.5 9.5q209 0 209 -41q0 -30 -31 -63t-69 -33z" />
    <glyph glyph-name="degree" unicode="&#xb0;" horiz-adv-x="682" 
d="M506 1274q0 158 -148 158q-78 0 -127 -62.5t-49 -132.5q0 -158 144 -158q76 0 128 61.5t52 133.5zM556.5 1464q66.5 -74 66.5 -197t-92.5 -208.5t-206 -85.5t-189.5 65.5t-76 188.5q-1 174 139 264q72 47 182 47t176.5 -74z" />
    <glyph glyph-name="plusminus" unicode="&#xb1;" horiz-adv-x="1120" 
d="M799 416l-137 2h-78l-54 -215q-4 -19 -28 -34t-62.5 -15t-38.5 32q0 18 5 25l47 201l-244 -13q-49 0 -49 27q0 53 25.5 74.5t43.5 25.5q79 13 254 21l15 55q6 32 21 98t22 101q3 14 37 26.5t63 12.5q21 0 21 -56t-23 -153l-21 -80q33 2 101 2q201 0 201 -37
q0 -29 -42 -64.5t-79 -35.5zM639 -57l-137 2q-78 0 -305 -19q-58 0 -58 41q0 71 49 86q30 6 161 16.5t181 10.5q209 0 209 -41q0 -30 -31 -63t-69 -33z" />
    <glyph glyph-name="twosuperior" unicode="&#xb2;" horiz-adv-x="817" 
d="M391 -2l-297 -18q-47 0 -47 26t37 61t108.5 100.5t115.5 107.5q296 283 296 497q0 116 -30 165.5t-100 49.5t-145 -69q-36 -33 -59.5 -90.5t-23.5 -127.5q29 -42 65.5 -59t36.5 -45q0 -11 -9 -22t-28.5 -11t-108.5 62.5t-89 79.5q0 166 98.5 262t243.5 96q206 0 280 -148
q31 -62 31 -120q0 -307 -526 -699q34 6 141 30t176 24q102 0 102 -48q0 -32 -20 -77t-45 -45z" />
    <glyph glyph-name="threesuperior" unicode="&#xb3;" horiz-adv-x="842" 
d="M389 489q-43 -1 -43 37t27 42q9 2 27 2q102 0 168 102q67 100 67 178q0 150 -119 151q-51 0 -133 -72.5t-82 -127.5q8 -13 42 -43.5t40 -36.5q0 -37 -27 -37q-18 0 -100 54t-82 67q0 95 100.5 176.5t223.5 81.5q295 0 295 -213q0 -101 -70.5 -181t-167.5 -120
q73 -20 119.5 -81t46.5 -146.5t-62 -169t-155.5 -128t-171 -44.5t-138 19.5t-108 64t-47.5 96t31.5 82t67 30.5t50 -22.5t21.5 -55t16 -64.5q22 -77 105.5 -77t151 95t67.5 198q0 64 -32 103.5t-99 39.5h-29z" />
    <glyph glyph-name="acute" unicode="&#xb4;" horiz-adv-x="1706" 
d="M1053 805zM1380 1118l-88 -35q-111 -44 -397 -143l-23 55q88 81 217 165.5t203 88.5q34 0 70.5 -36t36.5 -63t-19 -32z" />
    <glyph glyph-name="mu" unicode="&#xb5;" horiz-adv-x="993" 
d="M557 821zM627 0zM545 195q-49 -76 -145.5 -150t-174 -74t-121.5 52l-22 -216q-6 -49 -36.5 -75.5t-66.5 -26.5t-57.5 18.5t-21.5 45t4 39t65.5 197t110 351t137.5 426.5q4 25 162 25h35q0 -2 -82 -260t-82 -330t67 -72q57 0 141.5 49t98.5 78l109 416q22 85 56 102t64 17
h101l-33 -117q-102 -374 -117 -444q-8 -76 -8 -91t4.5 -20.5t23 -5.5t78.5 49t279 260v-112q-24 -22 -83 -78t-90 -84q-210 -194 -320 -193q-86 0 -86 131q0 35 10 93z" />
    <glyph glyph-name="paragraph" unicode="&#xb6;" horiz-adv-x="1217" 
d="M479 -29q25 127 158 688.5t186 731.5q-40 -2 -118 -15q-59 -235 -351 -1405h-168q25 116 189 789q-127 21 -206 105t-79 187q0 200 196.5 333t594.5 133q168 0 311 -11l-37 -116q-59 2 -233 2q28 -10 42.5 -21.5t14.5 -32.5l-174 -725q-61 -212 -162 -643h-164z" />
    <glyph glyph-name="periodcentered" unicode="&#xb7;" horiz-adv-x="422" 
d="M216 805q112 -1 112 -89q0 -44 -52 -95.5t-106 -51.5q-92 0 -92 78q0 55 41 106.5t97 51.5z" />
    <glyph glyph-name="cedilla" unicode="&#xb8;" horiz-adv-x="709" 
d="M360 0zM299 -174q-78 23 -78 89q0 31 37 58t102 27q105 0 105 -117q0 -79 -40 -173q-76 -177 -194 -202l-16 62q84 93 84 256z" />
    <glyph glyph-name="onesuperior" unicode="&#xb9;" horiz-adv-x="502" 
d="M61 834q230 148 308.5 188.5t87.5 40.5q16 0 16 -27v-20l-194 -860q-1 -6 -3 -20q-15 -136 -47 -136h-141q-18 0 -18 33t17 111.5t55.5 221t53 199t41 159.5t37.5 146.5t13 49.5q-60 -49 -141.5 -104.5t-108.5 -55.5q-19 5 -19 25.5t43 48.5z" />
    <glyph glyph-name="ordmasculine" unicode="&#xba;" horiz-adv-x="838" 
d="M670 1208q0 -102 -70 -190q20 -8 33 -8t36 10t146 141v-86q-47 -47 -68 -66q-61 -55 -106.5 -55t-73.5 11q-56 -72 -136.5 -117t-158.5 -45q-78 1 -127 41q-88 73 -88 221q0 184 131 290.5t349 106.5q15 0 18 -8q0 -23 -18 -35q-147 0 -225.5 -82t-78.5 -186t45 -164.5
t111.5 -60.5t124.5 67q-58 37 -88.5 95t-30.5 118.5t36 97.5t105.5 37t101.5 -36.5t32 -96.5zM596 1200q0 70 -61.5 70t-61.5 -77q0 -35 21 -76.5t57 -67.5q15 24 30 69.5t15 81.5z" />
    <glyph glyph-name="guillemotright" unicode="&#xbb;" horiz-adv-x="1544" 
d="M827 1176q0 20 56 20t116 -88q298 -415 291 -494q-3 -27 -29.5 -51.5t-48 -45t-38.5 -36.5l-173 -174q-13 -14 -50.5 -58t-62.5 -69.5t-65.5 -49.5t-70.5 -24q-61 0 -60 54q2 25 62 73q128 101 217 209l168 181l-121 211l-82 124q-114 158 -109 218zM735 653l-186 295
q-114 157 -109 217q0 21 54 21t118 -88q280 -380 273 -453q-3 -26 -28.5 -50.5t-49 -46t-39.5 -36.5l-170 -174q-15 -15 -52.5 -58.5t-62.5 -69.5t-65.5 -49.5t-79.5 -23.5q-54 0 -49 53q1 19 38 52t108.5 96.5t129.5 134.5z" />
    <glyph glyph-name="onequarter" unicode="&#xbc;" horiz-adv-x="1630" 
d="M244 49q610 1161 679 1285t75.5 136.5t20.5 35.5t40.5 48t116.5 25q8 0 14 -10t6 -22.5t-6 -33.5l-840 -1474q-33 -66 -66 -111.5t-51 -57t-36 -11.5q-25 0 -25 24q0 48 72 166zM1120 203l-199 35q-58 -31 -82 -31t-39 4.5t-33 22t-18 41.5t11 40t49 27l76 29l206 475
q46 132 62 151q39 46 70.5 56t71 10t46.5 -14q-102 -230 -323 -703q66 -21 143 -35q72 180 102 256q13 19 74 19h64q-8 -38 -107 -287q91 0 146 31q9 2 54.5 30t78.5 56l34 -60q-41 -29 -87 -69q-46 -41 -68 -57q-55 -42 -156 -42q-28 0 -45 2l-51 -122q-20 -68 -39 -68
h-109l-4 14q48 131 72 189zM96 1307q230 148 308.5 188.5t87.5 40.5q16 0 16 -27v-20l-194 -860q0 -5 -2 -19q-15 -137 -48 -137h-141q-18 0 -18 33t17 111.5t55.5 221t53 199t41 159.5t37.5 146.5t13 49.5q-60 -49 -141.5 -104.5t-108.5 -55.5q-19 5 -19 25.5t43 48.5z" />
    <glyph glyph-name="onehalf" unicode="&#xbd;" horiz-adv-x="1640" 
d="M891 1319q42 75 59 107q51 94 81.5 123.5t119.5 29.5q8 0 14 -10t6 -22.5t-6 -33.5l-839 -1474q-35 -69 -67.5 -113t-50.5 -55.5t-36 -11.5q-25 0 -25 33t32 87.5t351 659t361 680.5zM1229 -2l-297 -18q-47 0 -47 26t37 61t108.5 100.5t115.5 107.5q296 283 296 497
q0 116 -30 165.5t-100 49.5t-145 -69q-36 -33 -59.5 -90.5t-23.5 -127.5q29 -42 65.5 -59t36.5 -45q0 -11 -9 -22t-28.5 -11t-108.5 62.5t-89 79.5q0 166 98.5 262t243.5 96q206 0 280 -148q31 -62 31 -120q0 -307 -526 -699q34 6 141 30t176 24q102 0 102 -48
q0 -32 -20 -77t-45 -45zM98 1307q230 148 308.5 188.5t87.5 40.5q16 0 16 -27v-20l-194 -860q0 -5 -2 -19q-15 -137 -48 -137h-141q-18 0 -18 33t17 111.5t55.5 221t53 199t41 159.5t37.5 146.5t13 49.5q-60 -49 -141.5 -104.5t-108.5 -55.5q-19 5 -19 25.5t43 48.5z" />
    <glyph glyph-name="threequarters" unicode="&#xbe;" horiz-adv-x="1833" 
d="M1279.5 1502q16.5 28 43 52.5t115.5 24.5q8 0 14 -10t6 -22.5t-6 -33.5l-840 -1474q-45 -90 -66 -115t-40.5 -45t-45.5 -20t-26 24q0 42 32 97t268 503t382.5 719.5t163 299.5zM1317 203l-199 35q-58 -31 -82 -31t-39 4.5t-33 22t-18 41.5t11 40t49 27l76 29l206 475
q46 132 62 151q39 46 70.5 56t71 10t46.5 -14q-102 -230 -323 -703q66 -21 143 -35q72 180 102 256q13 19 74 19h64q-8 -38 -107 -287q91 0 146 31q9 2 54.5 30t78.5 56l34 -60q-41 -29 -87 -69q-45 -41 -67 -57q-55 -42 -157 -42q-28 0 -45 2l-51 -122q-20 -68 -39 -68
h-109l-4 14q48 131 72 189zM389 962q-43 0 -43 38t27 42q9 2 27 1q102 0 168.5 101.5t66.5 179.5q0 150 -119 150q-51 0 -133 -72.5t-82 -127.5q8 -13 42 -43.5t40 -36.5q0 -37 -27 -37q-18 0 -100 54t-82 67q0 95 100.5 176.5t223.5 81.5q295 0 295 -213q0 -101 -70.5 -181
t-167.5 -120q73 -20 119.5 -81t46.5 -146.5t-62 -169t-155.5 -128t-171 -44.5t-138 19.5t-108 64t-47.5 96t31.5 82t67 30.5t50 -22.5t21.5 -54.5t16 -64q21 -78 105 -78t151.5 95t67.5 198q0 64 -32 103.5t-99 39.5h-29z" />
    <glyph glyph-name="questiondown" unicode="&#xbf;" horiz-adv-x="999" 
d="M37 0zM674 1065q76 0 76 -41q0 -121 -104 -237q-62 -69 -166 -159q-104 -89 -150 -137q-104 -107 -104 -208q0 -66 44 -118q85 -100 236 -101q84 0 120.5 18t56.5 30.5t36 34.5t27 38t21 44t15.5 43.5t14 46t12.5 42.5l43 -2q119 -5 119 -97q0 -29 -10 -51
q-29 -78 -103 -135q-135 -105 -323 -105q-189 0 -339 88q-72 42 -115.5 112t-43.5 151t30 148t78 114.5t107 89.5t119 79q61 36 111 71q114 79 125 167q10 37 29 55.5t38 18.5zM664 1282q-112 1 -111 89q0 44 52 96q51 51 105 51q92 0 93 -78q0 -55 -41.5 -106.5
t-97.5 -51.5z" />
    <glyph glyph-name="Agrave" unicode="&#xc0;" horiz-adv-x="1391" 
d="M80 0zM1313 1518zM1048 1796l-88 35q-18 5 -18 32t36 63t70 36q75 -4 204.5 -89t215.5 -165l-22 -55q-288 100 -398 143zM1313 1518zM1319 1272q27 0 27 -33q0 -12 -3 -16q-88 -236 -213 -894q-25 -131 4 -155q9 -8 23 -8h22q37 3 80 37t254 239v-112q-30 -31 -99 -106
q-69 -74 -126 -130q-152 -150 -253 -150.5t-126.5 75.5t-13.5 174q-108 -112 -238 -181t-235 -69q-178 0 -260 96.5t-82 288.5q0 138 51.5 284.5t139.5 276.5q184 272 470.5 450.5t571.5 178.5q101 0 205 -32q198 -60 198 -165q0 -42 -63.5 -100t-108.5 -70
q-58 270 -291 270q-178 0 -394 -149.5t-368.5 -374.5t-152.5 -434q0 -159 76.5 -243.5t210.5 -84.5q89 0 181 73.5t112.5 181.5t95 428t96 387t209.5 67z" />
    <glyph glyph-name="Aacute" unicode="&#xc1;" horiz-adv-x="1391" 
d="M80 0zM1313 1518zM1640 1831l-88 -35q-111 -44 -397 -143l-23 55q88 81 217 165.5t203 88.5q34 0 70.5 -36t36.5 -63t-19 -32zM1313 1518zM1319 1272q27 0 27 -33q0 -12 -3 -16q-88 -236 -213 -894q-25 -131 4 -155q9 -8 23 -8h22q37 3 80 37t254 239v-112
q-30 -31 -99 -106q-69 -74 -126 -130q-152 -150 -253 -150.5t-126.5 75.5t-13.5 174q-108 -112 -238 -181t-235 -69q-178 0 -260 96.5t-82 288.5q0 138 51.5 284.5t139.5 276.5q184 272 470.5 450.5t571.5 178.5q101 0 205 -32q198 -60 198 -165q0 -42 -63.5 -100
t-108.5 -70q-58 270 -291 270q-178 0 -394 -149.5t-368.5 -374.5t-152.5 -434q0 -159 76.5 -243.5t210.5 -84.5q89 0 181 73.5t112.5 181.5t95 428t96 387t209.5 67z" />
    <glyph glyph-name="Acircumflex" unicode="&#xc2;" horiz-adv-x="1391" 
d="M80 0zM1313 1518zM1380 1927l-262 -270l-59 43q78 137 185.5 266t164.5 129q29 0 79 -101t83 -189.5t37 -106.5l-72 -41q-18 25 -75.5 127.5t-80.5 142.5zM1313 1518zM1319 1272q27 0 27 -33q0 -12 -3 -16q-88 -236 -213 -894q-25 -131 4 -155q9 -8 23 -8h22q37 3 80 37
t254 239v-112q-30 -31 -99 -106q-69 -74 -126 -130q-152 -150 -253 -150.5t-126.5 75.5t-13.5 174q-108 -112 -238 -181t-235 -69q-178 0 -260 96.5t-82 288.5q0 138 51.5 284.5t139.5 276.5q184 272 470.5 450.5t571.5 178.5q101 0 205 -32q198 -60 198 -165
q0 -42 -63.5 -100t-108.5 -70q-58 270 -291 270q-178 0 -394 -149.5t-368.5 -374.5t-152.5 -434q0 -159 76.5 -243.5t210.5 -84.5q89 0 181 73.5t112.5 181.5t95 428t96 387t209.5 67z" />
    <glyph glyph-name="Atilde" unicode="&#xc3;" horiz-adv-x="1391" 
d="M80 0zM1312 1518zM1130 1901q11 -82 82 -82q39 0 145.5 38t153.5 38q88 0 134 -61t46 -160l-125 -19q-16 88 -75 88q-33 0 -134 -42t-151 -42q-91 0 -137.5 61t-46.5 160zM1313 1518zM1319 1272q27 0 27 -33q0 -12 -3 -16q-88 -236 -213 -894q-25 -131 4 -155q9 -8 23 -8
h22q37 3 80 37t254 239v-112q-30 -31 -99 -106q-69 -74 -126 -130q-152 -150 -253 -150.5t-126.5 75.5t-13.5 174q-108 -112 -238 -181t-235 -69q-178 0 -260 96.5t-82 288.5q0 138 51.5 284.5t139.5 276.5q184 272 470.5 450.5t571.5 178.5q101 0 205 -32q198 -60 198 -165
q0 -42 -63.5 -100t-108.5 -70q-58 270 -291 270q-178 0 -394 -149.5t-368.5 -374.5t-152.5 -434q0 -159 76.5 -243.5t210.5 -84.5q89 0 181 73.5t112.5 181.5t95 428t96 387t209.5 67z" />
    <glyph glyph-name="Adieresis" unicode="&#xc4;" horiz-adv-x="1391" 
d="M80 0zM1313 1518zM1135 1898q112 0 112 -88q0 -44 -53 -96t-105 -52q-92 0 -92 78q0 55 41 106.5t97 51.5zM1617 1898q112 0 112 -88q0 -44 -52 -96t-106 -52q-92 0 -92 78q0 55 41 106.5t97 51.5zM1313 1518zM1319 1272q27 0 27 -33q0 -12 -3 -16q-88 -236 -213 -894
q-25 -131 4 -155q9 -8 23 -8h22q37 3 80 37t254 239v-112q-30 -31 -99 -106q-69 -74 -126 -130q-152 -150 -253 -150.5t-126.5 75.5t-13.5 174q-108 -112 -238 -181t-235 -69q-178 0 -260 96.5t-82 288.5q0 138 51.5 284.5t139.5 276.5q184 272 470.5 450.5t571.5 178.5
q101 0 205 -32q198 -60 198 -165q0 -42 -63.5 -100t-108.5 -70q-58 270 -291 270q-178 0 -394 -149.5t-368.5 -374.5t-152.5 -434q0 -159 76.5 -243.5t210.5 -84.5q89 0 181 73.5t112.5 181.5t95 428t96 387t209.5 67z" />
    <glyph glyph-name="Aring" unicode="&#xc5;" horiz-adv-x="1391" 
d="M80 0zM1313 1518zM1471 1835q0 97 -90 97q-52 0 -82.5 -38.5t-30.5 -83.5q0 -100 86 -100q52 0 84.5 38.5t32.5 86.5zM1502.5 1952q42.5 -47 42.5 -124t-58.5 -131t-130 -54t-119 41t-47.5 119t52 137t135 59t125.5 -47zM1313 1518zM1319 1272q27 0 27 -33q0 -12 -3 -16
q-88 -236 -213 -894q-25 -131 4 -155q9 -8 23 -8h22q37 3 80 37t254 239v-112q-30 -31 -99 -106q-69 -74 -126 -130q-152 -150 -253 -150.5t-126.5 75.5t-13.5 174q-108 -112 -238 -181t-235 -69q-178 0 -260 96.5t-82 288.5q0 138 51.5 284.5t139.5 276.5
q184 272 470.5 450.5t571.5 178.5q101 0 205 -32q198 -60 198 -165q0 -42 -63.5 -100t-108.5 -70q-58 270 -291 270q-178 0 -394 -149.5t-368.5 -374.5t-152.5 -434q0 -159 76.5 -243.5t210.5 -84.5q89 0 181 73.5t112.5 181.5t95 428t96 387t209.5 67z" />
    <glyph glyph-name="AE" unicode="&#xc6;" horiz-adv-x="1878" 
d="M1092 240l57 -2q25 0 37 2q7 -2 163 -61.5t205 -59.5q94 0 288 168q74 64 157 151v-110q-31 -28 -88 -79.5t-84 -75.5q-187 -166 -318 -208q-67 -22 -141 -22q-5 0 -19 8q-97 56 -431 158l-21 86q-113 -112 -243 -182t-232 -70q-178 0 -260 96.5t-82 288.5
q0 282 182.5 557t493 454t667.5 179q621 0 621 -27q0 -12 -19 -31l-100 -114q-52 -35 -104.5 -35t-187 21t-195.5 24q-8 -27 -62 -235t-92 -326q130 10 238 10t225 -6q37 0 37 -31.5t-31.5 -64.5t-69.5 -33q-294 0 -434 -11v-2q-53 -193 -190 -419zM989 631
q-91 -12 -190 -37q-49 0 -49 43q0 8 1 14q8 44 82 67q28 9 193 42q115 405 186 502q37 52 105 98l41 61q-230 -2 -469 -152.5t-395 -373t-156 -432.5q0 -159 76.5 -243.5t210.5 -84.5q59 0 129.5 40t122.5 101v3q25 38 112 352z" />
    <glyph glyph-name="Ccedilla" unicode="&#xc7;" horiz-adv-x="1268" 
d="M82 0zM616 0zM555 -174q-78 23 -78 89q0 31 37 58t102 27q105 0 105 -117q0 -79 -40 -173q-76 -177 -194 -202l-16 62q84 93 84 256zM954 1518zM1096 1149q-54 268 -170 268q-110 -4 -210 -51q-186 -87 -302.5 -288.5t-116.5 -440.5t120.5 -375.5t317.5 -136.5
q155 0 329 83.5t339 242.5v-111q-420 -397 -787 -397q-308 -1 -452 267q-82 154 -82 351q0 281 155 543q105 178 287.5 296t431.5 118q149 0 254 -103t105 -237q0 -58 -45 -80.5t-257.5 -140t-232.5 -117.5q-39 0 -39 41q-1 49 177 126q66 29 122 68t56 74z" />
    <glyph glyph-name="Egrave" unicode="&#xc8;" horiz-adv-x="1403" 
d="M0 0zM949 1518zM684 1796l-88 35q-18 5 -18 32t36 63t70 36q75 -4 204.5 -89t215.5 -165l-22 -55q-288 100 -398 143zM948 1518zM1053 805l219 -6q37 0 37 -31.5t-31.5 -64.5t-69.5 -33q-295 0 -434 -11v-2q-51 -187 -190 -419l32 2l58 -2q24 0 37 2q7 -2 163 -61.5
t197 -59.5t92 26q26 4 146.5 99.5t214.5 193.5v-110q-30 -28 -88 -80q-171 -155 -261 -214q-138 -91 -282 -91q-6 0 -20 8q-88 53 -431 158q-91 -72 -183.5 -119t-158.5 -47q-23 0 -51 13q-57 26 -57 87q0 53 122 105q26 11 31 14l256 117q26 38 113 352q-9 -1 -60.5 -14.5
t-115.5 -19.5t-64 39q0 44 33 58q78 33 244 66q7 26 23.5 84t23 81t21.5 71.5t23 70t23 60.5t27 59l30 50q42 71 120 124q-101 8 -207 8q-250 0 -367.5 -60t-117.5 -165q0 -56 51 -106t145 -85q0 -35 -9 -76.5t-20 -50.5q-154 54 -234.5 132.5t-80.5 162.5q0 179 176 288.5
t479 109.5h291q621 0 621 -27q0 -12 -19 -31l-100 -114q-52 -35 -104.5 -35t-187 21t-195.5 24q-8 -30 -62.5 -236.5t-91.5 -324.5q130 10 244 10z" />
    <glyph glyph-name="Eacute" unicode="&#xc9;" horiz-adv-x="1403" 
d="M0 0zM949 1518zM1276 1831l-88 -35q-111 -44 -397 -143l-23 55q88 81 217 165.5t203 88.5q34 0 70.5 -36t36.5 -63t-19 -32zM948 1518zM1053 805l219 -6q37 0 37 -31.5t-31.5 -64.5t-69.5 -33q-295 0 -434 -11v-2q-51 -187 -190 -419l32 2l58 -2q24 0 37 2
q7 -2 163 -61.5t197 -59.5t92 26q26 4 146.5 99.5t214.5 193.5v-110q-30 -28 -88 -80q-171 -155 -261 -214q-138 -91 -282 -91q-6 0 -20 8q-88 53 -431 158q-91 -72 -183.5 -119t-158.5 -47q-23 0 -51 13q-57 26 -57 87q0 53 122 105q26 11 31 14l256 117q26 38 113 352
q-9 -1 -60.5 -14.5t-115.5 -19.5t-64 39q0 44 33 58q78 33 244 66q7 26 23.5 84t23 81t21.5 71.5t23 70t23 60.5t27 59l30 50q42 71 120 124q-101 8 -207 8q-250 0 -367.5 -60t-117.5 -165q0 -56 51 -106t145 -85q0 -35 -9 -76.5t-20 -50.5q-154 54 -234.5 132.5
t-80.5 162.5q0 179 176 288.5t479 109.5h291q621 0 621 -27q0 -12 -19 -31l-100 -114q-52 -35 -104.5 -35t-187 21t-195.5 24q-8 -30 -62.5 -236.5t-91.5 -324.5q130 10 244 10z" />
    <glyph glyph-name="Ecircumflex" unicode="&#xca;" horiz-adv-x="1403" 
d="M0 0zM949 1518zM1016 1927l-262 -270l-59 43q78 137 185.5 266t164.5 129q29 0 79 -101t83 -189.5t37 -106.5l-72 -41q-18 25 -75.5 127.5t-80.5 142.5zM948 1518zM1053 805l219 -6q37 0 37 -31.5t-31.5 -64.5t-69.5 -33q-295 0 -434 -11v-2q-51 -187 -190 -419l32 2
l58 -2q24 0 37 2q7 -2 163 -61.5t197 -59.5t92 26q26 4 146.5 99.5t214.5 193.5v-110q-30 -28 -88 -80q-171 -155 -261 -214q-138 -91 -282 -91q-6 0 -20 8q-88 53 -431 158q-91 -72 -183.5 -119t-158.5 -47q-23 0 -51 13q-57 26 -57 87q0 53 122 105q26 11 31 14l256 117
q26 38 113 352q-9 -1 -60.5 -14.5t-115.5 -19.5t-64 39q0 44 33 58q78 33 244 66q7 26 23.5 84t23 81t21.5 71.5t23 70t23 60.5t27 59l30 50q42 71 120 124q-101 8 -207 8q-250 0 -367.5 -60t-117.5 -165q0 -56 51 -106t145 -85q0 -35 -9 -76.5t-20 -50.5
q-154 54 -234.5 132.5t-80.5 162.5q0 179 176 288.5t479 109.5h291q621 0 621 -27q0 -12 -19 -31l-100 -114q-52 -35 -104.5 -35t-187 21t-195.5 24q-8 -30 -62.5 -236.5t-91.5 -324.5q130 10 244 10z" />
    <glyph glyph-name="Edieresis" unicode="&#xcb;" horiz-adv-x="1403" 
d="M0 0zM948 1518zM770 1898q112 0 112 -88q0 -44 -53 -96t-105 -52q-92 0 -92 78q0 55 41 106.5t97 51.5zM1252 1898q112 0 112 -88q0 -44 -52 -96t-106 -52q-92 0 -92 78q0 55 41 106.5t97 51.5zM948 1518zM1053 805l219 -6q37 0 37 -31.5t-31.5 -64.5t-69.5 -33
q-295 0 -434 -11v-2q-51 -187 -190 -419l32 2l58 -2q24 0 37 2q7 -2 163 -61.5t197 -59.5t92 26q26 4 146.5 99.5t214.5 193.5v-110q-30 -28 -88 -80q-171 -155 -261 -214q-138 -91 -282 -91q-6 0 -20 8q-88 53 -431 158q-91 -72 -183.5 -119t-158.5 -47q-23 0 -51 13
q-57 26 -57 87q0 53 122 105q26 11 31 14l256 117q26 38 113 352q-9 -1 -60.5 -14.5t-115.5 -19.5t-64 39q0 44 33 58q78 33 244 66q7 26 23.5 84t23 81t21.5 71.5t23 70t23 60.5t27 59l30 50q42 71 120 124q-101 8 -207 8q-250 0 -367.5 -60t-117.5 -165q0 -56 51 -106
t145 -85q0 -35 -9 -76.5t-20 -50.5q-154 54 -234.5 132.5t-80.5 162.5q0 179 176 288.5t479 109.5h291q621 0 621 -27q0 -12 -19 -31l-100 -114q-52 -35 -104.5 -35t-187 21t-195.5 24q-8 -30 -62.5 -236.5t-91.5 -324.5q130 10 244 10z" />
    <glyph glyph-name="Igrave" unicode="&#xcc;" horiz-adv-x="1061" 
d="M207 0zM1217 1518zM952 1796l-88 35q-18 5 -18 32t36 63t70 36q75 -4 204.5 -89t215.5 -165l-22 -55q-288 100 -398 143zM403 303l-2 -90q0 -96 27 -134t84 -38q130 0 213 244q38 109 80 340l14 77q-273 20 -392 126q-65 58 -65 126q0 118 154 276q102 104 272 179.5
t390 75.5q45 0 117.5 21.5t105.5 23.5q-12 -75 -51 -136.5t-101 -82.5q-125 -215 -192 -518l-33 -146q-57 -289 -121 -424q-65 -135 -145 -194q-117 -86 -264 -86q-98 1 -188 55q-44 26 -71.5 72t-27.5 102q0 131 196 131zM526 950q0 -90 328 -108q45 168 110 282.5
t181 178.5q-126 0 -235 -31q-178 -51 -281 -158t-103 -164z" />
    <glyph glyph-name="Iacute" unicode="&#xcd;" horiz-adv-x="1061" 
d="M207 0zM1217 1518zM1544 1831l-88 -35q-111 -44 -397 -143l-23 55q88 81 217 165.5t203 88.5q34 0 70.5 -36t36.5 -63t-19 -32zM403 303l-2 -90q0 -96 27 -134t84 -38q130 0 213 244q38 109 80 340l14 77q-273 20 -392 126q-65 58 -65 126q0 118 154 276
q102 104 272 179.5t390 75.5q45 0 117.5 21.5t105.5 23.5q-12 -75 -51 -136.5t-101 -82.5q-125 -215 -192 -518l-33 -146q-57 -289 -121 -424q-65 -135 -145 -194q-117 -86 -264 -86q-98 1 -188 55q-44 26 -71.5 72t-27.5 102q0 131 196 131zM526 950q0 -90 328 -108
q45 168 110 282.5t181 178.5q-126 0 -235 -31q-178 -51 -281 -158t-103 -164z" />
    <glyph glyph-name="Icircumflex" unicode="&#xce;" horiz-adv-x="1061" 
d="M207 0zM1217 1518zM1284 1927l-262 -270l-59 43q78 137 185.5 266t164.5 129q29 0 79 -101t83 -189.5t37 -106.5l-72 -41q-18 25 -75.5 127.5t-80.5 142.5zM403 303l-2 -90q0 -96 27 -134t84 -38q130 0 213 244q38 109 80 340l14 77q-273 20 -392 126q-65 58 -65 126
q0 118 154 276q102 104 272 179.5t390 75.5q45 0 117.5 21.5t105.5 23.5q-12 -75 -51 -136.5t-101 -82.5q-125 -215 -192 -518l-33 -146q-57 -289 -121 -424q-65 -135 -145 -194q-117 -86 -264 -86q-98 1 -188 55q-44 26 -71.5 72t-27.5 102q0 131 196 131zM526 950
q0 -90 328 -108q45 168 110 282.5t181 178.5q-126 0 -235 -31q-178 -51 -281 -158t-103 -164z" />
    <glyph glyph-name="Idieresis" unicode="&#xcf;" horiz-adv-x="1061" 
d="M207 0zM1216 1518zM1038 1898q112 0 112 -88q0 -44 -53 -96t-105 -52q-92 0 -92 78q0 55 41 106.5t97 51.5zM1520 1898q112 0 112 -88q0 -44 -52 -96t-106 -52q-92 0 -92 78q0 55 41 106.5t97 51.5zM403 303l-2 -90q0 -96 27 -134t84 -38q130 0 213 244q38 109 80 340
l14 77q-273 20 -392 126q-65 58 -65 126q0 118 154 276q102 104 272 179.5t390 75.5q45 0 117.5 21.5t105.5 23.5q-12 -75 -51 -136.5t-101 -82.5q-125 -215 -192 -518l-33 -146q-57 -289 -121 -424q-65 -135 -145 -194q-117 -86 -264 -86q-98 1 -188 55q-44 26 -71.5 72
t-27.5 102q0 131 196 131zM526 950q0 -90 328 -108q45 168 110 282.5t181 178.5q-126 0 -235 -31q-178 -51 -281 -158t-103 -164z" />
    <glyph glyph-name="Eth" unicode="&#xd0;" horiz-adv-x="1780" 
d="M152 326l-7 -105q0 -82 25.5 -131t93.5 -49q39 0 75 26.5t58 75.5q63 129 125 367l-84 -6q-57 0 -57 41q0 73 49 86q23 8 123 14l109 563q13 39 129 39h94q-8 -47 -37.5 -259t-56.5 -331h22q209 0 209 -41q0 -30 -31.5 -63t-68.5 -33l-138 2h-28q-39 -131 -101 -258
q29 -88 113 -146.5t173.5 -58.5t176 50.5t155 138.5t110.5 220t42 260q-1 129 -21 222q-43 197 -182.5 320t-381.5 123q-145 0 -288.5 -58t-233 -147t-89.5 -174q0 -117 164 -180q0 -46 -9 -96.5t-17 -65.5q-149 47 -224 134.5t-75 177.5q0 267 323 426q219 108 580 108
q145 0 265 -42q217 -76 332 -259t115 -375.5t-56.5 -356t-153 -282.5t-233 -189.5t-290.5 -70.5q-228 0 -366 190q-78 -112 -168 -150t-205 -38t-189.5 75.5t-74.5 163.5q0 142 205 142z" />
    <glyph glyph-name="Ntilde" unicode="&#xd1;" horiz-adv-x="1473" 
d="M0 0zM987 1518zM805 1901q11 -82 82 -82q39 0 145.5 38t153.5 38q88 0 134 -61t46 -160l-125 -19q-16 88 -75 88q-33 0 -134 -42t-151 -42q-91 0 -137.5 61t-46.5 160zM549 1040q400 476 721 476q84 0 84 -93q0 -27 -42 -233q-124 -616 -124 -829.5t69 -213.5q37 0 84 48
l256 245l-2 -110q-9 -10 -66.5 -68.5t-68.5 -68.5l-28 -25q-27 -25 -36.5 -33.5t-39 -35t-46 -39t-44.5 -34.5t-80 -52.5t-86 -30.5q-137 0 -137 319q0 508 137 940q11 28 11 55t-12 44t-30 17t-36 -9q-159 -81 -293 -219q-263 -271 -369 -648q-23 -82 -57 -246t-42 -196
h-206q0 93 36.5 249t99 382t93.5 364l82 318l-322 -228l-30 -10q-27 0 -27 51q0 24 25 41l430 271q121 78 170 78q20 0 20 -19q0 -58 -39 -210.5t-39 -164.5z" />
    <glyph glyph-name="Ograve" unicode="&#xd2;" horiz-adv-x="1653" 
d="M100 0zM1137 1518zM872 1796l-88 35q-18 5 -18 32t36 63t70 36q75 -4 204.5 -89t215.5 -165l-22 -55q-288 100 -398 143zM1553 976q32 -92 32 -184.5t-12 -154.5q137 21 280 106v-92q-135 -106 -313 -141q-61 -168 -194.5 -299t-298.5 -199.5t-332 -68.5q-322 1 -492 247
q-123 178 -123 474q0 248 164 478q165 230 432 324q147 52 310 52q61 0 137 -13l-4 -102q-47 8 -137 8q-90 -1 -204 -41q-210 -74 -340 -253.5t-130 -368.5q0 -344 219 -498q128 -90 306 -90t320 93.5t222 242.5h-13q-214 0 -369 110t-155 334q0 119 91 209t268 90
q143 0 251 -114q54 -56 85 -149zM1030 999q0 -159 118 -264t300 -108q27 85 27 172q0 143 -73.5 235t-211.5 92q-81 0 -120.5 -34t-39.5 -93z" />
    <glyph glyph-name="Oacute" unicode="&#xd3;" horiz-adv-x="1653" 
d="M100 0zM1137 1518zM1464 1831l-88 -35q-111 -44 -397 -143l-23 55q88 81 217 165.5t203 88.5q34 0 70.5 -36t36.5 -63t-19 -32zM1553 976q32 -92 32 -184.5t-12 -154.5q137 21 280 106v-92q-135 -106 -313 -141q-61 -168 -194.5 -299t-298.5 -199.5t-332 -68.5
q-322 1 -492 247q-123 178 -123 474q0 248 164 478q165 230 432 324q147 52 310 52q61 0 137 -13l-4 -102q-47 8 -137 8q-90 -1 -204 -41q-210 -74 -340 -253.5t-130 -368.5q0 -344 219 -498q128 -90 306 -90t320 93.5t222 242.5h-13q-214 0 -369 110t-155 334q0 119 91 209
t268 90q143 0 251 -114q54 -56 85 -149zM1030 999q0 -159 118 -264t300 -108q27 85 27 172q0 143 -73.5 235t-211.5 92q-81 0 -120.5 -34t-39.5 -93z" />
    <glyph glyph-name="Ocircumflex" unicode="&#xd4;" horiz-adv-x="1653" 
d="M100 0zM1137 1518zM1204 1927l-262 -270l-59 43q78 137 185.5 266t164.5 129q29 0 79 -101t83 -189.5t37 -106.5l-72 -41q-18 25 -75.5 127.5t-80.5 142.5zM1553 976q32 -92 32 -184.5t-12 -154.5q137 21 280 106v-92q-135 -106 -313 -141q-61 -168 -194.5 -299
t-298.5 -199.5t-332 -68.5q-322 1 -492 247q-123 178 -123 474q0 248 164 478q165 230 432 324q147 52 310 52q61 0 137 -13l-4 -102q-47 8 -137 8q-90 -1 -204 -41q-210 -74 -340 -253.5t-130 -368.5q0 -344 219 -498q128 -90 306 -90t320 93.5t222 242.5h-13
q-214 0 -369 110t-155 334q0 119 91 209t268 90q143 0 251 -114q54 -56 85 -149zM1030 999q0 -159 118 -264t300 -108q27 85 27 172q0 143 -73.5 235t-211.5 92q-81 0 -120.5 -34t-39.5 -93z" />
    <glyph glyph-name="Otilde" unicode="&#xd5;" horiz-adv-x="1653" 
d="M100 0zM1136 1518zM954 1901q11 -82 82 -82q39 0 145.5 38t153.5 38q88 0 134 -61t46 -160l-125 -19q-16 88 -75 88q-33 0 -134 -42t-151 -42q-91 0 -137.5 61t-46.5 160zM1553 976q32 -92 32 -184.5t-12 -154.5q137 21 280 106v-92q-135 -106 -313 -141
q-61 -168 -194.5 -299t-298.5 -199.5t-332 -68.5q-322 1 -492 247q-123 178 -123 474q0 248 164 478q165 230 432 324q147 52 310 52q61 0 137 -13l-4 -102q-47 8 -137 8q-90 -1 -204 -41q-210 -74 -340 -253.5t-130 -368.5q0 -344 219 -498q128 -90 306 -90t320 93.5
t222 242.5h-13q-214 0 -369 110t-155 334q0 119 91 209t268 90q143 0 251 -114q54 -56 85 -149zM1030 999q0 -159 118 -264t300 -108q27 85 27 172q0 143 -73.5 235t-211.5 92q-81 0 -120.5 -34t-39.5 -93z" />
    <glyph glyph-name="Odieresis" unicode="&#xd6;" horiz-adv-x="1653" 
d="M100 0zM1137 1518zM959 1898q112 0 112 -88q0 -44 -53 -96t-105 -52q-92 0 -92 78q0 55 41 106.5t97 51.5zM1441 1898q112 0 112 -88q0 -44 -52 -96t-106 -52q-92 0 -92 78q0 55 41 106.5t97 51.5zM1553 976q32 -92 32 -184.5t-12 -154.5q137 21 280 106v-92
q-135 -106 -313 -141q-61 -168 -194.5 -299t-298.5 -199.5t-332 -68.5q-322 1 -492 247q-123 178 -123 474q0 248 164 478q165 230 432 324q147 52 310 52q61 0 137 -13l-4 -102q-47 8 -137 8q-90 -1 -204 -41q-210 -74 -340 -253.5t-130 -368.5q0 -344 219 -498
q128 -90 306 -90t320 93.5t222 242.5h-13q-214 0 -369 110t-155 334q0 119 91 209t268 90q143 0 251 -114q54 -56 85 -149zM1030 999q0 -159 118 -264t300 -108q27 85 27 172q0 143 -73.5 235t-211.5 92q-81 0 -120.5 -34t-39.5 -93z" />
    <glyph glyph-name="multiply" unicode="&#xd7;" horiz-adv-x="1120" 
d="M659 674q223 -193 187 -232q-66 -66 -113 -20q-17 17 -52.5 49.5t-51.5 48.5l-58 53l-151 -180q-30 -30 -45.5 -25.5t-24.5 13.5q-57 52 -41 82q26 41 162 201q-19 18 -100 90q-81 70 -86 76q-29 32 -2 59q45 50 94 29q69 -52 184 -154l74 82q144 151 170 127t28.5 -68.5
t-22.5 -73.5z" />
    <glyph glyph-name="Oslash" unicode="&#xd8;" horiz-adv-x="1653" 
d="M241 -162q-32 0 -32 20.5t33 61t44.5 58t60.5 80.5q-247 185 -247 606q0 248 164 478q165 230 432 324q147 52 310 52q61 0 137 -13l-4 -102q-47 8 -137 8q-90 -1 -204 -41q-210 -74 -340 -253.5t-130 -368.5q0 -315 187 -474l377 482q-34 77 -34 170q0 133 91 223
t268 90q28 0 51 -4l125 158q22 27 53 68t50 58t37 17t25.5 0.5t17.5 -0.5t18 -6.5t8 -21.5t-11 -31l-217 -279q94 -52 152.5 -160.5t58.5 -269.5q0 -69 -12 -131q137 21 280 106v-92q-135 -106 -313 -141q-61 -168 -194.5 -299t-298.5 -199.5t-323 -68.5t-281 58l-42 -54
q-79 -109 -160 -109zM1382 496q-130 0 -242.5 42t-184.5 122l-347 -447q106 -53 234 -53q189 0 331 93.5t222 242.5h-13zM1030 999q0 -159 118 -264t300 -108q27 85 27 172q0 143 -73.5 235t-211.5 92q-81 0 -120.5 -34t-39.5 -93z" />
    <glyph glyph-name="Ugrave" unicode="&#xd9;" horiz-adv-x="1595" 
d="M0 0zM1047 1518zM782 1796l-88 35q-18 5 -18 32t36 63t70 36q75 -4 204.5 -89t215.5 -165l-22 -55q-288 100 -398 143zM799 1509q0 -11 -53 -130t-116 -266.5t-116 -335t-53 -320.5q0 -310 284 -310q135 0 259.5 68.5t213 178.5t144 249.5t63.5 280.5q-58 9 -114 47
q-164 112 -164 264q0 107 51 196t164 89q82 0 125.5 -84t51.5 -155.5t12.5 -117t3 -79t-1 -46t0.5 -14.5l24 6q52 11 130 49q149 71 263 182v-114q-223 -187 -419 -227q-39 -310 -217 -566q-178 -258 -431 -358q-134 -54 -260 -53q-233 0 -327 126t-94 338t89.5 465.5
t224.5 438.5q0 4 -4 4t-13 -6l-114 -88q-18 -10 -150.5 -93t-298.5 -182v111q110 64 320 193.5t338.5 204.5t156 75t27.5 -21zM1430 1028l2 39q0 100 -31 186t-80 86q-55 0 -55 -83.5t47.5 -148t116.5 -79.5z" />
    <glyph glyph-name="Uacute" unicode="&#xda;" horiz-adv-x="1595" 
d="M0 0zM1047 1518zM1374 1831l-88 -35q-111 -44 -397 -143l-23 55q88 81 217 165.5t203 88.5q34 0 70.5 -36t36.5 -63t-19 -32zM799 1509q0 -11 -53 -130t-116 -266.5t-116 -335t-53 -320.5q0 -310 284 -310q135 0 259.5 68.5t213 178.5t144 249.5t63.5 280.5
q-58 9 -114 47q-164 112 -164 264q0 107 51 196t164 89q82 0 125.5 -84t51.5 -155.5t12.5 -117t3 -79t-1 -46t0.5 -14.5l24 6q52 11 130 49q149 71 263 182v-114q-223 -187 -419 -227q-39 -310 -217 -566q-178 -258 -431 -358q-134 -54 -260 -53q-233 0 -327 126t-94 338
t89.5 465.5t224.5 438.5q0 4 -4 4t-13 -6l-114 -88q-18 -10 -150.5 -93t-298.5 -182v111q110 64 320 193.5t338.5 204.5t156 75t27.5 -21zM1430 1028l2 39q0 100 -31 186t-80 86q-55 0 -55 -83.5t47.5 -148t116.5 -79.5z" />
    <glyph glyph-name="Ucircumflex" unicode="&#xdb;" horiz-adv-x="1595" 
d="M0 0zM1047 1518zM1114 1927l-262 -270l-59 43q78 137 185.5 266t164.5 129q29 0 79 -101t83 -189.5t37 -106.5l-72 -41q-18 25 -75.5 127.5t-80.5 142.5zM799 1509q0 -11 -53 -130t-116 -266.5t-116 -335t-53 -320.5q0 -310 284 -310q135 0 259.5 68.5t213 178.5
t144 249.5t63.5 280.5q-58 9 -114 47q-164 112 -164 264q0 107 51 196t164 89q82 0 125.5 -84t51.5 -155.5t12.5 -117t3 -79t-1 -46t0.5 -14.5l24 6q52 11 130 49q149 71 263 182v-114q-223 -187 -419 -227q-39 -310 -217 -566q-178 -258 -431 -358q-134 -54 -260 -53
q-233 0 -327 126t-94 338t89.5 465.5t224.5 438.5q0 4 -4 4t-13 -6l-114 -88q-18 -10 -150.5 -93t-298.5 -182v111q110 64 320 193.5t338.5 204.5t156 75t27.5 -21zM1430 1028l2 39q0 100 -31 186t-80 86q-55 0 -55 -83.5t47.5 -148t116.5 -79.5z" />
    <glyph glyph-name="Udieresis" unicode="&#xdc;" horiz-adv-x="1595" 
d="M0 0zM1046 1518zM868 1898q112 0 112 -88q0 -44 -53 -96t-105 -52q-92 0 -92 78q0 55 41 106.5t97 51.5zM1350 1898q112 0 112 -88q0 -44 -52 -96t-106 -52q-92 0 -92 78q0 55 41 106.5t97 51.5zM799 1509q0 -11 -53 -130t-116 -266.5t-116 -335t-53 -320.5
q0 -310 284 -310q135 0 259.5 68.5t213 178.5t144 249.5t63.5 280.5q-58 9 -114 47q-164 112 -164 264q0 107 51 196t164 89q82 0 125.5 -84t51.5 -155.5t12.5 -117t3 -79t-1 -46t0.5 -14.5l24 6q52 11 130 49q149 71 263 182v-114q-223 -187 -419 -227q-39 -310 -217 -566
q-178 -258 -431 -358q-134 -54 -260 -53q-233 0 -327 126t-94 338t89.5 465.5t224.5 438.5q0 4 -4 4t-13 -6l-114 -88q-18 -10 -150.5 -93t-298.5 -182v111q110 64 320 193.5t338.5 204.5t156 75t27.5 -21zM1430 1028l2 39q0 100 -31 186t-80 86q-55 0 -55 -83.5t47.5 -148
t116.5 -79.5z" />
    <glyph glyph-name="Yacute" unicode="&#xdd;" horiz-adv-x="1554" 
d="M152 0zM1157 1518zM1484 1831l-88 -35q-111 -44 -397 -143l-23 55q88 81 217 165.5t203 88.5q34 0 70.5 -36t36.5 -63t-19 -32zM1001 -139l-278 -162q-112 -52 -183 -116.5t-71 -131t24.5 -103.5t59.5 -42q66 0 152 64.5t159 166.5t101 203zM653 1487q47 31 111.5 31
t64.5 -29q0 -17 -28 -110.5t-49.5 -178.5t-124.5 -416t-103 -426q0 -37 24 -73.5t54 -36.5q70 0 164 38t185.5 101t165 157.5t97.5 194.5l91 375q15 68 57.5 217.5t60.5 155.5h217l-354 -1401l387 354v-112l-405 -361q-233 -605 -645 -717q-87 -24 -169 -24t-146.5 22
t-110 71.5t-45.5 114.5t51 93l809 432l159 498q-163 -188 -384 -331.5t-349 -143.5q-75 0 -123.5 62t-48.5 181t22 210t32.5 135t38 129t44.5 141t74 213l107 311l-308 -213l-10 -6q-8 -8 -16.5 -8t-18.5 9.5t-10 33.5t21 39z" />
    <glyph glyph-name="Thorn" unicode="&#xde;" horiz-adv-x="1554" 
d="M63 176l-2 -110q0 -148 117 -148q170 0 273 440q11 46 51 256l147 789q5 29 59.5 44t92.5 15h76l-33 -196q26 2 78 2q156 0 279 -35t197 -95q150 -121 150 -296q0 -176 -166 -318q-79 -68 -203.5 -109.5t-253 -41.5t-251.5 24q-93 -374 -287 -506q-105 -71 -226 -71
t-207.5 61t-86.5 172q0 123 196 123zM1094.5 1116.5q-98.5 28.5 -176.5 28.5t-97 -2q-94 -497 -127 -637q78 -10 170 -10q251 0 385.5 92.5t134.5 222.5q0 129 -129 229q-62 48 -160.5 76.5z" />
    <glyph glyph-name="germandbls" unicode="&#xdf;" horiz-adv-x="983" 
d="M283 43l49 113q86 -68 187.5 -68t151.5 69t50 163.5t-28.5 177.5t-86.5 153.5t-135 104.5v116q89 0 162.5 33.5t117.5 86.5q91 110 91 233q0 74 -32 122t-79 48t-83 -17q-78 -37 -146.5 -156t-106.5 -333q-8 -59 -106 -510t-127 -563h-207q-2 8 -2 51t25.5 171t77 328
t71.5 259q141 579 353 780q119 113 254.5 113t209.5 -87.5t74 -218t-105 -250t-311 -143.5q110 -42 189 -123q151 -155 151 -368q0 -161 -96 -274t-270 -113t-293 102z" />
    <glyph glyph-name="agrave" unicode="&#xe0;" 
d="M0 0zM647 823zM382 1101l-88 35q-18 5 -18 32t36 63t70 36q75 -4 204.5 -89t215.5 -165l-22 -55q-288 100 -398 143zM150 -29q-120 -1 -148 169q-6 40 -6 85q0 109 54 220t142.5 198t212 142t252.5 55q64 0 168 -33q-1 -7 -20 -91.5t-55 -248.5t-35.5 -222.5t30.5 -58.5
q66 0 306 254v-112q-152 -157 -289.5 -257t-183.5 -100q-76 0 -76 131q0 43 8 97q-72 -94 -167.5 -161t-192.5 -67zM209 281q0 -150 98 -150q42 0 103.5 44t111.5 97l115 492q-108 0 -209 -77t-160 -189t-59 -217z" />
    <glyph glyph-name="aacute" unicode="&#xe1;" 
d="M0 0zM647 823zM974 1136l-88 -35q-111 -44 -397 -143l-23 55q88 81 217 165.5t203 88.5q34 0 70.5 -36t36.5 -63t-19 -32zM150 -29q-120 -1 -148 169q-6 40 -6 85q0 109 54 220t142.5 198t212 142t252.5 55q64 0 168 -33q-1 -7 -20 -91.5t-55 -248.5t-35.5 -222.5
t30.5 -58.5q66 0 306 254v-112q-152 -157 -289.5 -257t-183.5 -100q-76 0 -76 131q0 43 8 97q-72 -94 -167.5 -161t-192.5 -67zM209 281q0 -150 98 -150q42 0 103.5 44t111.5 97l115 492q-108 0 -209 -77t-160 -189t-59 -217z" />
    <glyph glyph-name="acircumflex" unicode="&#xe2;" 
d="M0 0zM647 823zM714 1232l-262 -270l-59 43q78 137 185.5 266t164.5 129q29 0 79 -101t83 -189.5t37 -106.5l-72 -41q-18 25 -75.5 127.5t-80.5 142.5zM150 -29q-120 -1 -148 169q-6 40 -6 85q0 109 54 220t142.5 198t212 142t252.5 55q64 0 168 -33q-1 -7 -20 -91.5
t-55 -248.5t-35.5 -222.5t30.5 -58.5q66 0 306 254v-112q-152 -157 -289.5 -257t-183.5 -100q-76 0 -76 131q0 43 8 97q-72 -94 -167.5 -161t-192.5 -67zM209 281q0 -150 98 -150q42 0 103.5 44t111.5 97l115 492q-108 0 -209 -77t-160 -189t-59 -217z" />
    <glyph glyph-name="atilde" unicode="&#xe3;" 
d="M0 0zM647 823zM465 1206q11 -82 82 -82q39 0 145.5 38t153.5 38q88 0 134 -61t46 -160l-125 -19q-16 88 -75 88q-33 0 -134 -42t-151 -42q-91 0 -137.5 61t-46.5 160zM150 -29q-120 -1 -148 169q-6 40 -6 85q0 109 54 220t142.5 198t212 142t252.5 55q64 0 168 -33
q-1 -7 -20 -91.5t-55 -248.5t-35.5 -222.5t30.5 -58.5q66 0 306 254v-112q-152 -157 -289.5 -257t-183.5 -100q-76 0 -76 131q0 43 8 97q-72 -94 -167.5 -161t-192.5 -67zM209 281q0 -150 98 -150q42 0 103.5 44t111.5 97l115 492q-108 0 -209 -77t-160 -189t-59 -217z" />
    <glyph glyph-name="adieresis" unicode="&#xe4;" 
d="M0 0zM647 824zM469 1204q112 0 112 -88q0 -44 -53 -96t-105 -52q-92 0 -92 78q0 55 41 106.5t97 51.5zM951 1204q112 0 112 -88q0 -44 -52 -96t-106 -52q-92 0 -92 78q0 55 41 106.5t97 51.5zM150 -29q-120 -1 -148 169q-6 40 -6 85q0 109 54 220t142.5 198t212 142
t252.5 55q64 0 168 -33q-1 -7 -20 -91.5t-55 -248.5t-35.5 -222.5t30.5 -58.5q66 0 306 254v-112q-152 -157 -289.5 -257t-183.5 -100q-76 0 -76 131q0 43 8 97q-72 -94 -167.5 -161t-192.5 -67zM209 281q0 -150 98 -150q42 0 103.5 44t111.5 97l115 492q-108 0 -209 -77
t-160 -189t-59 -217z" />
    <glyph glyph-name="aring" unicode="&#xe5;" 
d="M0 0zM647 823zM805 1140q0 97 -90 97q-52 0 -82.5 -38.5t-30.5 -83.5q0 -100 86 -100q52 0 84.5 38.5t32.5 86.5zM836.5 1257q42.5 -47 42.5 -124t-58.5 -131t-130 -54t-119 41t-47.5 119t52 137t135 59t125.5 -47zM150 -29q-120 -1 -148 169q-6 40 -6 85q0 109 54 220
t142.5 198t212 142t252.5 55q64 0 168 -33q-1 -7 -20 -91.5t-55 -248.5t-35.5 -222.5t30.5 -58.5q66 0 306 254v-112q-152 -157 -289.5 -257t-183.5 -100q-76 0 -76 131q0 43 8 97q-72 -94 -167.5 -161t-192.5 -67zM209 281q0 -150 98 -150q42 0 103.5 44t111.5 97l115 492
q-108 0 -209 -77t-160 -189t-59 -217z" />
    <glyph glyph-name="ae" unicode="&#xe6;" horiz-adv-x="1219" 
d="M793 748q105 92 249 92q86 0 142.5 -44t56.5 -143t-91.5 -183.5t-207.5 -84.5q-46 0 -96 27.5t-84 81.5q-43 -89 -43 -177q0 -231 168 -231q44 0 108 42t114 89t125 122.5t105 102.5v-110q-109 -120 -195 -196q-188 -165 -356 -165q-86 0 -151 41t-90 119v-2
q-55 -75 -155 -116.5t-193 -41.5t-148 72t-55 182.5t58.5 220t162 197.5t260 142.5t336.5 54.5zM653 764q-135 -30 -237.5 -105t-154.5 -173.5t-52 -204.5q0 -150 98 -150q50 0 115 33.5t113 81.5zM791 569q76 -98 167 -98q58 0 101 57t43 120t-24 84.5t-68 21.5
q-86 0 -144 -65.5t-75 -119.5z" />
    <glyph glyph-name="ccedilla" unicode="&#xe7;" horiz-adv-x="696" 
d="M0 0zM229 0zM168 -174q-78 23 -78 89q0 31 37 58t102 27q105 0 105 -117q0 -79 -40 -173q-76 -177 -194 -202l-16 62q84 93 84 256zM508 840q199 0 199 -130q0 -38 -37.5 -66t-94.5 -28q-31 0 -58 64q-10 24 -32.5 43.5t-52.5 19.5q-58 0 -109 -65t-79.5 -158
t-28.5 -181.5t32 -143t97 -54.5q174 0 479 301v-112q-270 -264 -446 -330q-78 -30 -150 -29q-115 0 -173 72t-58 178.5t39 213t104.5 197t163.5 149.5t205 59z" />
    <glyph glyph-name="egrave" unicode="&#xe8;" horiz-adv-x="724" 
d="M27 0zM518 821zM253 1099l-88 35q-18 5 -18 32t36 63t70 36q75 -4 204.5 -89t215.5 -165l-22 -55q-288 100 -398 143zM303 565q76 -98 168 -98q58 0 100.5 57t42.5 120t-24 84q-24 22 -68 22q-86 0 -143 -64.5t-76 -120.5zM292 -31q-121 0 -193 79.5t-72 217.5t61 270.5
t175.5 218t254.5 85.5q236 0 236 -176q0 -114 -92 -198.5t-207 -84.5q-46 0 -96 27t-85 81q-43 -90 -43 -176q0 -231 168 -231q44 0 108.5 42t114 88.5t125.5 123t105 102.5v-110q-158 -174 -254 -242t-165.5 -92.5t-140.5 -24.5z" />
    <glyph glyph-name="eacute" unicode="&#xe9;" horiz-adv-x="724" 
d="M27 0zM518 807zM845 1120l-88 -35q-111 -44 -397 -143l-23 55q88 81 217 165.5t203 88.5q34 0 70.5 -36t36.5 -63t-19 -32zM303 565q76 -98 168 -98q58 0 100.5 57t42.5 120t-24 84q-24 22 -68 22q-86 0 -143 -64.5t-76 -120.5zM292 -31q-121 0 -193 79.5t-72 217.5
t61 270.5t175.5 218t254.5 85.5q236 0 236 -176q0 -114 -92 -198.5t-207 -84.5q-46 0 -96 27t-85 81q-43 -90 -43 -176q0 -231 168 -231q44 0 108.5 42t114 88.5t125.5 123t105 102.5v-110q-158 -174 -254 -242t-165.5 -92.5t-140.5 -24.5z" />
    <glyph glyph-name="ecircumflex" unicode="&#xea;" horiz-adv-x="724" 
d="M27 0zM518 821zM585 1230l-262 -270l-59 43q78 137 185.5 266t164.5 129q29 0 79 -101t83 -189.5t37 -106.5l-72 -41q-18 25 -75.5 127.5t-80.5 142.5zM303 565q76 -98 168 -98q58 0 100.5 57t42.5 120t-24 84q-24 22 -68 22q-86 0 -143 -64.5t-76 -120.5zM292 -31
q-121 0 -193 79.5t-72 217.5t61 270.5t175.5 218t254.5 85.5q236 0 236 -176q0 -114 -92 -198.5t-207 -84.5q-46 0 -96 27t-85 81q-43 -90 -43 -176q0 -231 168 -231q44 0 108.5 42t114 88.5t125.5 123t105 102.5v-110q-158 -174 -254 -242t-165.5 -92.5t-140.5 -24.5z" />
    <glyph glyph-name="edieresis" unicode="&#xeb;" horiz-adv-x="724" 
d="M27 0zM518 822zM340 1202q112 0 112 -88q0 -44 -53 -96t-105 -52q-92 0 -92 78q0 55 41 106.5t97 51.5zM822 1202q112 0 112 -88q0 -44 -52 -96t-106 -52q-92 0 -92 78q0 55 41 106.5t97 51.5zM303 565q76 -98 168 -98q58 0 100.5 57t42.5 120t-24 84q-24 22 -68 22
q-86 0 -143 -64.5t-76 -120.5zM292 -31q-121 0 -193 79.5t-72 217.5t61 270.5t175.5 218t254.5 85.5q236 0 236 -176q0 -114 -92 -198.5t-207 -84.5q-46 0 -96 27t-85 81q-43 -90 -43 -176q0 -231 168 -231q44 0 108.5 42t114 88.5t125.5 123t105 102.5v-110
q-158 -174 -254 -242t-165.5 -92.5t-140.5 -24.5z" />
    <glyph glyph-name="igrave" unicode="&#xec;" horiz-adv-x="469" 
d="M0 0zM346 836zM81 1114l-88 35q-18 5 -18 32t36 63t70 36q75 -4 204.5 -89t215.5 -165l-22 -55q-288 100 -398 143zM346 836zM231 199q0 -66 35 -66q22 0 138.5 114.5t185.5 190.5v-112l-20 -20q-188 -186 -279.5 -258.5t-173.5 -76.5q-44 0 -66 39.5t-22 101.5t56 291
t80 292t58.5 84t71.5 24.5t94 3.5q-158 -506 -158 -608z" />
    <glyph glyph-name="iacute" unicode="&#xed;" horiz-adv-x="469" 
d="M29 0zM346 836zM673 1149l-88 -35q-111 -44 -397 -143l-23 55q88 81 217 165.5t203 88.5q34 0 70.5 -36t36.5 -63t-19 -32zM346 836zM231 199q0 -66 35 -66q22 0 138.5 114.5t185.5 190.5v-112l-20 -20q-188 -186 -279.5 -258.5t-173.5 -76.5q-44 0 -66 39.5t-22 101.5
t56 291t80 292t58.5 84t71.5 24.5t94 3.5q-158 -506 -158 -608z" />
    <glyph glyph-name="icircumflex" unicode="&#xee;" horiz-adv-x="469" 
d="M29 0zM346 836zM413 1245l-262 -270l-59 43q78 137 185.5 266t164.5 129q29 0 79 -101t83 -189.5t37 -106.5l-72 -41q-18 25 -75.5 127.5t-80.5 142.5zM346 836zM231 199q0 -66 35 -66q22 0 138.5 114.5t185.5 190.5v-112l-20 -20q-188 -186 -279.5 -258.5t-173.5 -76.5
q-44 0 -66 39.5t-22 101.5t56 291t80 292t58.5 84t71.5 24.5t94 3.5q-158 -506 -158 -608z" />
    <glyph glyph-name="idieresis" unicode="&#xef;" horiz-adv-x="469" 
d="M29 0zM346 836zM168 1216q112 0 112 -88q0 -44 -53 -96t-105 -52q-92 0 -92 78q0 55 41 106.5t97 51.5zM650 1216q112 0 112 -88q0 -44 -52 -96t-106 -52q-92 0 -92 78q0 55 41 106.5t97 51.5zM346 836zM231 199q0 -66 35 -66q22 0 138.5 114.5t185.5 190.5v-112l-20 -20
q-188 -186 -279.5 -258.5t-173.5 -76.5q-44 0 -66 39.5t-22 101.5t56 291t80 292t58.5 84t71.5 24.5t94 3.5q-158 -506 -158 -608z" />
    <glyph glyph-name="eth" unicode="&#xf0;" horiz-adv-x="1036" 
d="M335 1531q148 0 322 -245l59 24q140 62 182.5 62t42.5 -42q0 -29 -16.5 -58.5t-45.5 -41.5q-82 -33 -147 -62q107 -183 175.5 -392.5t68.5 -385t-103 -290t-292 -114.5q-101 0 -194 41.5t-159 108.5t-105.5 154.5t-39.5 176.5q0 165 94.5 260.5t220.5 95.5t202 -47
q42 -26 42 -62q0 -16 -9 -35q-69 31 -141.5 31t-122.5 -61t-50 -162t42 -190t105 -141q64 -51 114 -51q91 0 130.5 38t52 99.5t12.5 155.5q0 267 -254 676l-145 -70q-30 -10 -45 -10t-28 26.5t-13 51.5t23 42.5t135 74.5q-98 145 -253 342h140z" />
    <glyph glyph-name="ntilde" unicode="&#xf1;" horiz-adv-x="838" 
d="M0 0zM512 823zM330 1206q11 -82 82 -82q39 0 145.5 38t153.5 38q88 0 134 -61t46 -160l-125 -19q-16 88 -75 88q-33 0 -134 -42t-151 -42q-91 0 -137.5 61t-46.5 160zM958 436v-112q-159 -162 -281.5 -257.5t-163.5 -95.5q-75 0 -75 84t37.5 200.5t75 211t37.5 126.5
t-11.5 47t-27.5 15q-57 0 -123 -79.5t-118 -192.5q-108 -234 -142 -383h-191q1 108 61 358t107 369q19 48 54.5 64t95.5 16h67l-108 -363q67 126 194 254q62 62 135 102t138 40q98 0 98 -117q0 -56 -70.5 -265.5t-70.5 -231t12.5 -21.5t33 13.5t118.5 107t118 110.5z" />
    <glyph glyph-name="ograve" unicode="&#xf2;" horiz-adv-x="867" 
d="M31 0zM611 823zM346 1101l-88 35q-18 5 -18 32t36 63t70 36q75 -4 204.5 -89t215.5 -165l-22 -55q-288 100 -398 143zM240 346q0 -92 54 -153.5t132 -61.5q105 0 198 122q-71 43 -110 112t-39 143.5t48 124t139 49.5t132.5 -49t41.5 -117q0 -136 -100 -232h31
q45 0 113 71q16 17 48 51.5t53 55.5v-110q-71 -76 -117.5 -109t-91 -33t-77.5 4q-154 -243 -364 -243q-179 -1 -257 153q-43 85 -43 193q0 253 172.5 399t458.5 146q20 0 22 -13q0 -17 -3.5 -25t-18.5 -18q-246 0 -356 -185q-66 -110 -66 -275zM741 494q0 92 -81.5 92
t-81.5 -97q0 -42 29.5 -91t73.5 -78q21 23 40.5 77.5t19.5 96.5z" />
    <glyph glyph-name="oacute" unicode="&#xf3;" horiz-adv-x="867" 
d="M31 0zM611 823zM938 1136l-88 -35q-111 -44 -397 -143l-23 55q88 81 217 165.5t203 88.5q34 0 70.5 -36t36.5 -63t-19 -32zM240 346q0 -92 54 -153.5t132 -61.5q105 0 198 122q-71 43 -110 112t-39 143.5t48 124t139 49.5t132.5 -49t41.5 -117q0 -136 -100 -232h31
q45 0 113 71q16 17 48 51.5t53 55.5v-110q-71 -76 -117.5 -109t-91 -33t-77.5 4q-154 -243 -364 -243q-179 -1 -257 153q-43 85 -43 193q0 253 172.5 399t458.5 146q20 0 22 -13q0 -17 -3.5 -25t-18.5 -18q-246 0 -356 -185q-66 -110 -66 -275zM741 494q0 92 -81.5 92
t-81.5 -97q0 -42 29.5 -91t73.5 -78q21 23 40.5 77.5t19.5 96.5z" />
    <glyph glyph-name="ocircumflex" unicode="&#xf4;" horiz-adv-x="867" 
d="M31 0zM611 823zM678 1232l-262 -270l-59 43q78 137 185.5 266t164.5 129q29 0 79 -101t83 -189.5t37 -106.5l-72 -41q-18 25 -75.5 127.5t-80.5 142.5zM240 346q0 -92 54 -153.5t132 -61.5q105 0 198 122q-71 43 -110 112t-39 143.5t48 124t139 49.5t132.5 -49t41.5 -117
q0 -136 -100 -232h31q45 0 113 71q16 17 48 51.5t53 55.5v-110q-71 -76 -117.5 -109t-91 -33t-77.5 4q-154 -243 -364 -243q-179 -1 -257 153q-43 85 -43 193q0 253 172.5 399t458.5 146q20 0 22 -13q0 -17 -3.5 -25t-18.5 -18q-246 0 -356 -185q-66 -110 -66 -275zM741 494
q0 92 -81.5 92t-81.5 -97q0 -42 29.5 -91t73.5 -78q21 23 40.5 77.5t19.5 96.5z" />
    <glyph glyph-name="otilde" unicode="&#xf5;" horiz-adv-x="867" 
d="M31 0zM610 823zM428 1206q11 -82 82 -82q39 0 145.5 38t153.5 38q88 0 134 -61t46 -160l-125 -19q-16 88 -75 88q-33 0 -134 -42t-151 -42q-91 0 -137.5 61t-46.5 160zM240 346q0 -92 54 -153.5t132 -61.5q105 0 198 122q-71 43 -110 112t-39 143.5t48 124t139 49.5
t132.5 -49t41.5 -117q0 -136 -100 -232h31q45 0 113 71q16 17 48 51.5t53 55.5v-110q-71 -76 -117.5 -109t-91 -33t-77.5 4q-154 -243 -364 -243q-179 -1 -257 153q-43 85 -43 193q0 253 172.5 399t458.5 146q20 0 22 -13q0 -17 -3.5 -25t-18.5 -18q-246 0 -356 -185
q-66 -110 -66 -275zM741 494q0 92 -81.5 92t-81.5 -97q0 -42 29.5 -91t73.5 -78q21 23 40.5 77.5t19.5 96.5z" />
    <glyph glyph-name="odieresis" unicode="&#xf6;" horiz-adv-x="867" 
d="M31 0zM610 824zM432 1204q112 0 112 -88q0 -44 -53 -96t-105 -52q-92 0 -92 78q0 55 41 106.5t97 51.5zM914 1204q112 0 112 -88q0 -44 -52 -96t-106 -52q-92 0 -92 78q0 55 41 106.5t97 51.5zM240 346q0 -92 54 -153.5t132 -61.5q105 0 198 122q-71 43 -110 112
t-39 143.5t48 124t139 49.5t132.5 -49t41.5 -117q0 -136 -100 -232h31q45 0 113 71q16 17 48 51.5t53 55.5v-110q-71 -76 -117.5 -109t-91 -33t-77.5 4q-154 -243 -364 -243q-179 -1 -257 153q-43 85 -43 193q0 253 172.5 399t458.5 146q20 0 22 -13q0 -17 -3.5 -25
t-18.5 -18q-246 0 -356 -185q-66 -110 -66 -275zM741 494q0 92 -81.5 92t-81.5 -97q0 -42 29.5 -91t73.5 -78q21 23 40.5 77.5t19.5 96.5z" />
    <glyph glyph-name="divide" unicode="&#xf7;" horiz-adv-x="862" 
d="M717 614l-199 2q-90 0 -346 -18q-57 0 -57 41q0 72 49 86q33 6 180 16.5t203 10.5q270 0 270 -41q0 -30 -31.5 -63.5t-68.5 -33.5zM440 489q112 1 111 -87q0 -44 -52 -96t-105 -52q-93 0 -93 78q0 54 41.5 105.5t97.5 51.5zM506 1100q106 0 106 -88q0 -44 -39.5 -96
t-89.5 -52q-100 0 -100 88q0 44 35.5 96t87.5 52z" />
    <glyph glyph-name="oslash" unicode="&#xf8;" horiz-adv-x="907" 
d="M96 -211q-20 3 -20 19.5t106 191.5q-76 39 -113.5 127t-37.5 183.5t49.5 190t127.5 169t180.5 122.5t179 48t132.5 -17l72 113q13 19 30 46t31.5 47t45 20t30.5 -29q0 -8 -6 -14l-133 -213q61 -36 119 -109q0 -43 -41 -57q-59 68 -119 100l-354 -567q37 -27 90 -27
q88 0 168 92q-60 66 -60 146.5t33 127t90 46.5q109 0 109 -111q0 -49 -19 -103t-38 -79q19 -8 37.5 -8t38 8.5t44.5 30t44 40.5t55 57t61 62v-110q-83 -88 -134.5 -125t-111 -37t-77.5 16q-78 -95 -184.5 -155t-219.5 -60q-17 0 -41 4l-68 -112q-45 -71 -96 -74zM317 217
q97 156 338 535q-27 6 -72 6t-110 -33t-111 -83q-102 -114 -102 -230.5t57 -194.5zM692 283q43 86 43 132t-37 46q-22 0 -34.5 -24t-12.5 -56q0 -72 41 -98z" />
    <glyph glyph-name="ugrave" unicode="&#xf9;" horiz-adv-x="993" 
d="M37 0zM557 821zM292 1099l-88 35q-18 5 -18 32t36 63t70 36q75 -4 204.5 -89t215.5 -165l-22 -55q-288 100 -398 143zM154 -29q-117 0 -117 168q0 57 14 111q60 227 166 532q4 25 162 25h35q0 -2 -82 -260t-82 -330t67 -72q57 0 141.5 49t98.5 78l109 416q22 85 56 102
t64 17h101l-33 -117q-102 -374 -117 -444q-8 -76 -8 -91t4.5 -20.5t23 -5.5t78.5 49t279 260v-112q-24 -22 -83 -78t-90 -84q-210 -194 -320 -193q-86 0 -86 131q0 55 10 93q-231 -224 -391 -224z" />
    <glyph glyph-name="uacute" unicode="&#xfa;" horiz-adv-x="993" 
d="M37 0zM557 821zM884 1134l-88 -35q-111 -44 -397 -143l-23 55q88 81 217 165.5t203 88.5q34 0 70.5 -36t36.5 -63t-19 -32zM154 -29q-117 0 -117 168q0 57 14 111q60 227 166 532q4 25 162 25h35q0 -2 -82 -260t-82 -330t67 -72q57 0 141.5 49t98.5 78l109 416
q22 85 56 102t64 17h101l-33 -117q-102 -374 -117 -444q-8 -76 -8 -91t4.5 -20.5t23 -5.5t78.5 49t279 260v-112q-24 -22 -83 -78t-90 -84q-210 -194 -320 -193q-86 0 -86 131q0 55 10 93q-231 -224 -391 -224z" />
    <glyph glyph-name="ucircumflex" unicode="&#xfb;" horiz-adv-x="993" 
d="M37 0zM557 821zM624 1230l-262 -270l-59 43q78 137 185.5 266t164.5 129q29 0 79 -101t83 -189.5t37 -106.5l-72 -41q-18 25 -75.5 127.5t-80.5 142.5zM154 -29q-117 0 -117 168q0 57 14 111q60 227 166 532q4 25 162 25h35q0 -2 -82 -260t-82 -330t67 -72q57 0 141.5 49
t98.5 78l109 416q22 85 56 102t64 17h101l-33 -117q-102 -374 -117 -444q-8 -76 -8 -91t4.5 -20.5t23 -5.5t78.5 49t279 260v-112q-24 -22 -83 -78t-90 -84q-210 -194 -320 -193q-86 0 -86 131q0 55 10 93q-231 -224 -391 -224z" />
    <glyph glyph-name="udieresis" unicode="&#xfc;" horiz-adv-x="993" 
d="M37 0zM557 822zM379 1202q112 0 112 -88q0 -44 -53 -96t-105 -52q-92 0 -92 78q0 55 41 106.5t97 51.5zM861 1202q112 0 112 -88q0 -44 -52 -96t-106 -52q-92 0 -92 78q0 55 41 106.5t97 51.5zM154 -29q-117 0 -117 168q0 57 14 111q60 227 166 532q4 25 162 25h35
q0 -2 -82 -260t-82 -330t67 -72q57 0 141.5 49t98.5 78l109 416q22 85 56 102t64 17h101l-33 -117q-102 -374 -117 -444q-8 -76 -8 -91t4.5 -20.5t23 -5.5t78.5 49t279 260v-112q-24 -22 -83 -78t-90 -84q-210 -194 -320 -193q-86 0 -86 131q0 55 10 93q-231 -224 -391 -224
z" />
    <glyph glyph-name="yacute" unicode="&#xfd;" horiz-adv-x="860" 
d="M0 0zM504 821zM831 1134l-88 -35q-111 -44 -397 -143l-23 55q88 81 217 165.5t203 88.5q34 0 70.5 -36t36.5 -63t-19 -32zM113 -29q-117 0 -117 172q0 127 180 639q4 25 162 25h35q0 -2 -82 -260t-82 -330t67 -72q57 0 141.5 49t98.5 78l109 416q22 85 55.5 102t63.5 17
h102q-27 -76 -162 -578l-18 -65q228 190 317 276v-112l-334 -301v-4q-23 -127 -72.5 -228t-111.5 -161q-127 -123 -260 -123q-69 0 -129 44t-60 104t40.5 101.5t115.5 83.5l301 191l33 160q-233 -224 -393 -224zM461 -88l-185 -117q-52 -31 -81 -60.5t-29 -72.5
q0 -82 74 -82q89 0 144 91t77 241z" />
    <glyph glyph-name="thorn" unicode="&#xfe;" horiz-adv-x="967" 
d="M408 -16q-72 0 -72 52q0 37 26 68t38 46q76 86 135 214t59 209.5t-66 81.5q-113 0 -202.5 -172.5t-159.5 -398.5l-27 -86q-16 -60 -96 -387h-180q54 211 130 563q177 819 304 1208q26 70 107 78q20 2 53 2h67q-10 -35 -53.5 -205.5t-113.5 -408.5t-107 -371
q64 110 149 197q163 166 290.5 166t127.5 -152q0 -132 -91.5 -304.5t-197.5 -238.5q102 1 270 147q80 70 185 177v-115q-24 -23 -68 -66.5t-63.5 -62t-56.5 -53.5t-56 -50t-51.5 -40t-54 -35.5t-53.5 -26.5q-74 -36 -172 -36z" />
    <glyph glyph-name="ydieresis" unicode="&#xff;" horiz-adv-x="860" 
d="M0 0zM504 822zM326 1202q112 0 112 -88q0 -44 -53 -96t-105 -52q-92 0 -92 78q0 55 41 106.5t97 51.5zM808 1202q112 0 112 -88q0 -44 -52 -96t-106 -52q-92 0 -92 78q0 55 41 106.5t97 51.5zM113 -29q-117 0 -117 172q0 127 180 639q4 25 162 25h35q0 -2 -82 -260
t-82 -330t67 -72q57 0 141.5 49t98.5 78l109 416q22 85 55.5 102t63.5 17h102q-27 -76 -162 -578l-18 -65q228 190 317 276v-112l-334 -301v-4q-23 -127 -72.5 -228t-111.5 -161q-127 -123 -260 -123q-69 0 -129 44t-60 104t40.5 101.5t115.5 83.5l301 191l33 160
q-233 -224 -393 -224zM461 -88l-185 -117q-52 -31 -81 -60.5t-29 -72.5q0 -82 74 -82q89 0 144 91t77 241z" />
    <glyph glyph-name="Ccircumflex" unicode="&#x108;" horiz-adv-x="1268" 
d="M82 0zM955 1518zM1022 1927l-262 -270l-59 43q78 137 185.5 266t164.5 129q29 0 79 -101t83 -189.5t37 -106.5l-72 -41q-18 25 -75.5 127.5t-80.5 142.5zM954 1518zM1096 1149q-54 268 -170 268q-110 -4 -210 -51q-186 -87 -302.5 -288.5t-116.5 -440.5t120.5 -375.5
t317.5 -136.5q155 0 329 83.5t339 242.5v-111q-420 -397 -787 -397q-308 -1 -452 267q-82 154 -82 351q0 281 155 543q105 178 287.5 296t431.5 118q149 0 254 -103t105 -237q0 -58 -45 -80.5t-257.5 -140t-232.5 -117.5q-39 0 -39 41q-1 49 177 126q66 29 122 68t56 74z
" />
    <glyph glyph-name="ccircumflex" unicode="&#x109;" horiz-adv-x="696" 
d="M0 0zM506 821zM573 1230l-262 -270l-59 43q78 137 185.5 266t164.5 129q29 0 79 -101t83 -189.5t37 -106.5l-72 -41q-18 25 -75.5 127.5t-80.5 142.5zM508 840q199 0 199 -130q0 -38 -37.5 -66t-94.5 -28q-31 0 -58 64q-10 24 -32.5 43.5t-52.5 19.5q-58 0 -109 -65
t-79.5 -158t-28.5 -181.5t32 -143t97 -54.5q174 0 479 301v-112q-270 -264 -446 -330q-78 -30 -150 -29q-115 0 -173 72t-58 178.5t39 213t104.5 197t163.5 149.5t205 59z" />
    <glyph glyph-name="ecaron" unicode="&#x11b;" horiz-adv-x="724" 
d="M27 0zM518 807zM876 1341q-80 -139 -184.5 -267t-161.5 -128q-49 0 -138 224q-42 105 -61 171l113 23l115 -270q88 106 221 270zM303 565q76 -98 168 -98q58 0 100.5 57t42.5 120t-24 84q-24 22 -68 22q-86 0 -143 -64.5t-76 -120.5zM292 -31q-121 0 -193 79.5t-72 217.5
t61 270.5t175.5 218t254.5 85.5q236 0 236 -176q0 -114 -92 -198.5t-207 -84.5q-46 0 -96 27t-85 81q-43 -90 -43 -176q0 -231 168 -231q44 0 108.5 42t114 88.5t125.5 123t105 102.5v-110q-158 -174 -254 -242t-165.5 -92.5t-140.5 -24.5z" />
    <glyph glyph-name="hbar" unicode="&#x127;" horiz-adv-x="881" 
d="M732 226q0 -23 15.5 -23t118 103.5t142.5 137.5v-112q-315 -361 -412 -361q-64 0 -64 76q0 39 58.5 235t58.5 316q0 57 -57 57q-88 0 -185.5 -128.5t-132 -259t-55.5 -185.5t-53 -82h-156q15 113 245 968q-11 0 -77 -5q-57 0 -57 41q0 70 49 86q35 8 122 15
q59 225 81 267t34 56t41.5 24t83.5 10t64 -4l-95 -343q17 1 52 1q209 0 209 -41q0 -30 -31 -63t-69 -33l-138 2q-33 0 -60 -1l-130 -470q74 137 194 233.5t234 96.5q98 0 98 -117q0 -42 -64.5 -229.5t-64.5 -260.5z" />
    <glyph glyph-name="Itilde" unicode="&#x128;" horiz-adv-x="1061" 
d="M207 0zM1216 1518zM1034 1901q11 -82 82 -82q39 0 145.5 38t153.5 38q88 0 134 -61t46 -160l-125 -19q-16 88 -75 88q-33 0 -134 -42t-151 -42q-91 0 -137.5 61t-46.5 160zM403 303l-2 -90q0 -96 27 -134t84 -38q130 0 213 244q38 109 80 340l14 77q-273 20 -392 126
q-65 58 -65 126q0 118 154 276q102 104 272 179.5t390 75.5q45 0 117.5 21.5t105.5 23.5q-12 -75 -51 -136.5t-101 -82.5q-125 -215 -192 -518l-33 -146q-57 -289 -121 -424q-65 -135 -145 -194q-117 -86 -264 -86q-98 1 -188 55q-44 26 -71.5 72t-27.5 102q0 131 196 131z
M526 950q0 -90 328 -108q45 168 110 282.5t181 178.5q-126 0 -235 -31q-178 -51 -281 -158t-103 -164z" />
    <glyph glyph-name="itilde" unicode="&#x129;" horiz-adv-x="469" 
d="M29 0zM346 836zM164 1219q11 -82 82 -82q39 0 145.5 38t153.5 38q88 0 134 -61t46 -160l-125 -19q-16 88 -75 88q-33 0 -134 -42t-151 -42q-91 0 -137.5 61t-46.5 160zM346 836zM231 199q0 -66 35 -66q22 0 138.5 114.5t185.5 190.5v-112l-20 -20
q-188 -186 -279.5 -258.5t-173.5 -76.5q-44 0 -66 39.5t-22 101.5t56 291t80 292t58.5 84t71.5 24.5t94 3.5q-158 -506 -158 -608z" />
    <glyph glyph-name="Iogonek" unicode="&#x12e;" horiz-adv-x="1061" 
d="M207 0zM498 -29zM629 -576q-35 -6 -75 -6q-143 0 -245 85q-72 60 -72 174.5t75 180t124 88.5t51 25h148q-18 0 -72 -31t-89.5 -59.5t-61 -72t-25.5 -91t32 -95t105 -70.5t105 -23v-105zM403 303l-2 -90q0 -96 27 -134t84 -38q130 0 213 244q38 109 80 340l14 77
q-273 20 -392 126q-65 58 -65 126q0 118 154 276q102 104 272 179.5t390 75.5q45 0 117.5 21.5t105.5 23.5q-12 -75 -51 -136.5t-101 -82.5q-125 -215 -192 -518l-33 -146q-57 -289 -121 -424q-65 -135 -145 -194q-117 -86 -264 -86q-98 1 -188 55q-44 26 -71.5 72
t-27.5 102q0 131 196 131zM526 950q0 -90 328 -108q45 168 110 282.5t181 178.5q-126 0 -235 -31q-178 -51 -281 -158t-103 -164z" />
    <glyph glyph-name="iogonek" unicode="&#x12f;" horiz-adv-x="469" 
d="M0 0zM82 0zM213 -547q-35 -6 -75 -6q-143 0 -245 85q-72 60 -72 174.5t75 180t124 88.5t51 25h148q-18 0 -72 -31t-89.5 -59.5t-61 -72t-25.5 -91t32 -95t105 -70.5t105 -23v-105zM231 199q0 -66 35 -66q22 0 138.5 114.5t185.5 190.5v-112l-20 -20
q-188 -186 -279.5 -258.5t-173.5 -76.5q-44 0 -66 39.5t-22 101.5t56 291t80 291t56 83.5t65 25.5t91 4h12q-158 -506 -158 -608zM511.5 1099.5q-47.5 -56.5 -101.5 -56.5q-98 0 -98 102q0 50 43 96.5t98.5 46.5t80.5 -20t25 -66t-47.5 -102.5z" />
    <glyph glyph-name="dotlessi" unicode="&#x131;" horiz-adv-x="469" 
d="M346 836zM231 199q0 -66 35 -66q22 0 138.5 114.5t185.5 190.5v-112l-20 -20q-188 -186 -279.5 -258.5t-173.5 -76.5q-44 0 -66 39.5t-22 101.5t56 291t80 292t58.5 84t71.5 24.5t94 3.5q-158 -506 -158 -608z" />
    <glyph glyph-name="IJ" unicode="&#x132;" horiz-adv-x="1851" 
d="M403 303l-2 -90q0 -96 27 -134t84 -38q130 0 213 244q38 109 80 340l14 77q-273 20 -392 126q-65 58 -65 126q0 118 154 276q102 104 272 179.5t390 75.5h598q45 0 117.5 21.5t105.5 23.5q-12 -74 -51 -136t-101 -83q-105 -183 -172 -471l-147 -707q36 22 101.5 57.5
t108.5 61.5q120 71 247 194v-112q-78 -92 -235 -192t-245 -132q-46 -214 -152 -326t-249 -112q-65 0 -131.5 29.5t-113 87.5t-46.5 116.5t21.5 101.5t62.5 54l418 113q22 132 166 766q75 347 262 463q-354 0 -496 6q-117 -202 -184 -482q102 0 274 27q0 -81 -30 -115
q-143 -37 -273 -47l-10 -45q-57 -289 -121 -424q-65 -135 -145 -194q-117 -86 -264 -86q-98 1 -188 55q-44 26 -71.5 72t-27.5 102q0 131 196 131zM526 950q0 -90 328 -108q45 168 110 282.5t181 178.5q-126 0 -235 -31q-178 -51 -281 -158t-103 -164zM1298 -66
q-35 -12 -116.5 -29.5t-115.5 -29.5q-70 -25 -70.5 -82t34 -103t82.5 -46q83 0 130 112q35 84 56 178z" />
    <glyph glyph-name="ij" unicode="&#x133;" horiz-adv-x="911" 
d="M123 -791q-97 0 -97 153q0 267 407 624l18 16l38 135q2 14 52.5 193t55.5 201q-89 -265 -169.5 -370t-120.5 -129q-68 -42 -108.5 -50.5t-83 -9.5t-64.5 38.5t-22 101.5t56 291t80.5 292.5t58.5 84t71 24t94 3.5q-158 -506 -158 -608q0 -66 35.5 -66t91.5 71.5t135 219.5
t108.5 223t38 90.5t20.5 26.5t21 18.5t27 12t30 8.5q14 4 66 4h40q-2 -5 -20 -67q-160 -542 -160 -634q20 8 138 112t234 222v-112q-92 -94 -146 -146q-149 -144 -263 -198q-5 -24 -16 -77t-14.5 -67.5t-11.5 -53.5t-11 -51.5t-10 -43t-11.5 -47t-11.5 -45t-14.5 -54.5
t-16.5 -59q-27 -97 -147.5 -187t-239.5 -90zM152 -598.5q0 -38.5 19.5 -61t47 -22.5t46.5 12q30 20 74.5 110.5t106.5 442.5q-212 -250 -253 -346.5t-41 -135zM912 1288q102 0 102 -80q0 -40 -47.5 -87.5t-108.5 -47.5q-72 0 -72 72q0 49 37 96t89 47zM458 1288
q101 0 101 -80q0 -40 -47.5 -87.5t-108.5 -47.5q-71 0 -71 72q0 50 37.5 96.5t88.5 46.5z" />
    <glyph glyph-name="Jcircumflex" unicode="&#x134;" horiz-adv-x="1077" 
d="M39 0zM1078 1518zM1145 1927l-262 -270l-59 43q78 137 185.5 266t164.5 129q29 0 79 -101t83 -189.5t37 -106.5l-72 -41q-18 25 -75.5 127.5t-80.5 142.5zM1073 1311q-105 -183 -172 -471q133 0 275 22q0 -80 -31 -114q-130 -36 -273 -48l-118 -567q25 15 124.5 69
t171.5 106t160 138v-112q-77 -92 -234 -192t-245 -132q-46 -214 -152 -326t-249 -112q-65 0 -131.5 29.5t-113 87.5t-46.5 117q0 133 84 155l418 113q18 111 72.5 347.5t62.5 276.5v2q-324 18 -440 148q-32 36 -43 74q-14 27 3 84t42 94.5t66 91.5t145 127t246 119.5
t306 46.5q45 0 118 21.5t106 23.5q-12 -75 -51 -136.5t-101 -82.5zM350 950q0 -44 88.5 -73.5t268.5 -36.5q39 165 99 282t163 181q-126 0 -235 -31q-178 -51 -281 -158t-103 -164zM524 -66q-35 -12 -116.5 -29.5t-115.5 -29.5q-70 -25 -70.5 -82t34 -103t82.5 -46
q83 0 130 112q35 84 56 178z" />
    <glyph glyph-name="jcircumflex" unicode="&#x135;" horiz-adv-x="442" 
d="M0 0zM314 821zM381 1230l-262 -270l-59 43q78 137 185.5 266t164.5 129q29 0 79 -101t83 -189.5t37 -106.5l-72 -41q-18 25 -75.5 127.5t-80.5 142.5zM313 821zM-18 2l38 135q23 121 69 319t59.5 232t22 49.5t20.5 26.5t21 18.5t27 12t30.5 8.5t64.5 4h41q-1 -5 -19 -67
q-160 -542 -161 -634q20 8 138 112t234 222v-112q-93 -94 -147 -146q-149 -144 -262 -198q-5 -24 -16 -77t-14.5 -67.5t-11.5 -53.5t-11 -51.5t-10 -43t-11.5 -47t-11.5 -45t-14.5 -54.5t-16.5 -59q-27 -97 -147.5 -187t-239.5 -90q-33 0 -55 20t-36 71q-32 114 54.5 273.5
t232.5 305.5q82 83 132 123zM-304 -650q18 -32 49.5 -32t50.5 12q30 20 74.5 110.5t106.5 442.5q-212 -250 -261 -366t-20 -167z" />
    <glyph glyph-name="kcommaaccent" unicode="&#x137;" horiz-adv-x="905" 
d="M0 0zM353 0zM287 -326q-78 0 -78 89q0 44 41.5 95.5t97.5 51.5q105 0 105 -76q0 -67 -65 -220t-66 -155l-58 21l4 26q10 65 19 168zM686 262l-2 -74q0 -67 18 -67q7 0 12.5 5.5t134 132t179.5 181.5v-112q-20 -19 -139 -136.5t-182 -169t-117 -51.5q-94 0 -94 142l14 190
q0 29 -16 46q-35 38 -205 38l-6 -27q-67 -300 -138 -360h-155q16 131 309 1204q47 175 79.5 214.5t71 41.5t77 2t48.5 -4q-38 -139 -133 -461.5t-94 -322.5q141 166 348 166q59 0 96 -41t37 -86q0 -133 -77.5 -185.5t-229.5 -103.5q104 0 134 -47t30 -115zM295 457h67
q91 1 160 33q129 61 129 156t-78 95q-36 0 -99.5 -45.5t-118 -114.5t-60.5 -124z" />
    <glyph glyph-name="kgreenlandic" unicode="&#x138;" horiz-adv-x="905" 
d="M496 113l14 190q0 33 -13 54.5t-50 29.5h-158l-6 -27q-67 -300 -138 -360h-155q18 131 178 687q18 81 56 101t94 20t69 -5q-5 -18 -32 -114t-60 -232q68 -7 104.5 -7t62.5 9q45 16 99 117.5t143 228.5l175 1q-21 -34 -73 -130t-90 -154q-62 -96 -124 -101q60 -10 77 -55
t17 -104l-2 -74q0 -67 18 -67q7 0 12.5 5.5t133.5 132.5t180 181v-112q-20 -19 -139 -136.5t-182 -169t-117 -51.5q-94 0 -94 142z" />
    <glyph glyph-name="Ldotaccent" unicode="&#x13f;" horiz-adv-x="1368" 
d="M0 0zM1029 746q112 -1 112 -89q0 -44 -52 -95.5t-106 -51.5q-92 0 -92 78q0 55 41 106.5t97 51.5zM263 117q-222 -146 -363 -146q-21 -1 -50 13q-58 27 -58 88q0 37 44 64.5t109 53.5l262 119l232 828q19 63 51.5 90.5t54.5 43t49 35.5t94 65t163.5 96t140.5 51
q129 0 233.5 -105t104.5 -235q0 -58 -44 -80t-257.5 -140t-233.5 -118q-39 0 -39 41q-1 49 175 125q66 28 122 67t57 74l-5 28q-52 242 -165 242q-48 -6 -117 -75t-120.5 -149.5t-61.5 -125.5q-99 -487 -233 -801q13 -4 39.5 -13t38 -12t175.5 -62.5t218 -59.5q88 1 280 169
q72 64 156 150v-112q-226 -226 -360.5 -304.5t-261.5 -78.5q-8 0 -20.5 7t-76.5 39t-333 128z" />
    <glyph glyph-name="ldot" unicode="&#x140;" horiz-adv-x="975" 
d="M80 0zM849 805q112 -1 112 -89q0 -44 -52 -95.5t-106 -51.5q-92 0 -92 78q0 55 41 106.5t97 51.5zM668 1417q-81 0 -157.5 -195t-176.5 -604q85 77 160 185.5t120 210.5q97 219 97 311t-43 92zM170 -29q-35 0 -48 18q-13 19 -20 31q-22 38 -22 148v39q0 193 53.5 427
t137 432t195.5 332t218 134q65 0 102.5 -44.5t37.5 -132t-30 -197.5q-52 -191 -159.5 -352.5t-201 -259.5t-125.5 -124l-5 -41q-16 -131 -16 -197.5t35 -66.5q27 0 150.5 124.5t225.5 240.5v-112q-190 -214 -308 -306.5t-220 -92.5z" />
    <glyph glyph-name="Lslash" unicode="&#x141;" horiz-adv-x="1368" 
d="M205 880q-38 0 -38 60q0 30 26 49q44 18 224 71l22 77q10 33 18 45t12 19.5t14 17t14 14.5t17 14.5t30 22.5t47 34.5t97 66.5t163.5 96t140.5 51q129 0 233.5 -105t104.5 -235q0 -58 -44 -80t-257.5 -140t-233.5 -118q-39 0 -39 41q0 49 176 125q66 28 121.5 67t56.5 74
l-6 28q-27 153 -95 214q-31 28 -69 28q-58 -7 -142.5 -101.5t-132.5 -187.5q3 0 56.5 17.5t90 17.5t43.5 -6t7 -27t-18 -50.5t-51 -40t-107 -29.5l-60 -15q-93 -434 -218 -729q10 -3 37 -12t41 -13t177 -63t216 -59q89 1 281 169q72 64 155 150v-112
q-226 -226 -360.5 -304.5t-261.5 -78.5q-8 0 -20.5 7t-76.5 39t-333 128q-222 -146 -363 -146q-21 -1 -50 13q-58 27 -58 88q0 37 44 64.5t109 53.5l262 119l173 619l-149 -43q-20 -5 -26 -5z" />
    <glyph glyph-name="lslash" unicode="&#x142;" horiz-adv-x="553" 
d="M180 -29q-35 0 -48 18q-13 19 -20 31q-22 38 -22 148v39q0 75 10 180l-73 -19q-5 0 -9 -2t-20.5 -2t-24.5 23q-20 59 19 86q11 5 127 41q43 245 131 476t208.5 386.5t235.5 155.5q65 0 102.5 -44.5t37.5 -115.5q0 -216 -115.5 -440.5t-255.5 -317.5q33 8 97.5 26t117 27
t63.5 -12q7 -25 -11 -61.5t-43 -43.5t-63 -20t-66 -17.5t-191 -47.5q-2 -8 -36 -112.5t-34 -170t35 -65.5q25 0 137 110t205 213v-112q-172 -185 -284.5 -267.5t-209.5 -89.5zM632.5 1023q88.5 209 88.5 301.5t-43 92.5q-66 0 -128 -180.5t-140 -556.5q134 134 222.5 343z
" />
    <glyph glyph-name="Nacute" unicode="&#x143;" horiz-adv-x="1473" 
d="M0 0zM987 1518zM1314 1831l-88 -35q-111 -44 -397 -143l-23 55q88 81 217 165.5t203 88.5q34 0 70.5 -36t36.5 -63t-19 -32zM549 1040q400 476 721 476q84 0 84 -93q0 -27 -42 -233q-124 -616 -124 -829.5t69 -213.5q37 0 84 48l256 245l-2 -110q-9 -10 -66.5 -68.5
t-68.5 -68.5l-28 -25q-27 -25 -36.5 -33.5t-39 -35t-46 -39t-44.5 -34.5t-80 -52.5t-86 -30.5q-137 0 -137 319q0 508 137 940q11 28 11 55t-12 44t-30 17t-36 -9q-159 -81 -293 -219q-263 -271 -369 -648q-23 -82 -57 -246t-42 -196h-206q0 93 36.5 249t99 382t93.5 364
l82 318l-322 -228l-30 -10q-27 0 -27 51q0 24 25 41l430 271q121 78 170 78q20 0 20 -19q0 -58 -39 -210.5t-39 -164.5z" />
    <glyph glyph-name="nacute" unicode="&#x144;" horiz-adv-x="838" 
d="M0 0zM512 823zM839 1136l-88 -35q-111 -44 -397 -143l-23 55q88 81 217 165.5t203 88.5q34 0 70.5 -36t36.5 -63t-19 -32zM958 436v-112q-159 -162 -281.5 -257.5t-163.5 -95.5q-75 0 -75 84t37.5 200.5t75 211t37.5 126.5t-11.5 47t-27.5 15q-57 0 -123 -79.5
t-118 -192.5q-108 -234 -142 -383h-191q1 108 61 358t107 369q19 48 54.5 64t95.5 16h67l-108 -363q67 126 194 254q62 62 135 102t138 40q98 0 98 -117q0 -56 -70.5 -265.5t-70.5 -231t12.5 -21.5t33 13.5t118.5 107t118 110.5z" />
    <glyph glyph-name="OE" unicode="&#x152;" horiz-adv-x="2105" 
d="M1319 240l57 -2q23 0 37 2q7 -2 163 -61.5t206 -59.5q92 -1 286 167q74 64 158 152v-110q-31 -28 -88 -79.5t-84 -75.5q-187 -166 -318 -208q-67 -22 -141 -22q-5 0 -19 8q-97 56 -431 158l-35 10q-97 -83 -227.5 -129.5t-259.5 -46.5t-230.5 45.5t-164.5 124.5
q-128 161 -128 401q0 312 170 584q116 185 315 302.5t472 117.5h594q620 0 620 -27q0 -11 -18 -31l-101 -114q-50 -35 -103.5 -35t-188 21t-195.5 24q-8 -27 -62 -235t-92 -326q130 10 244 10l219 -6q37 0 37 -31.5t-31 -64.5t-69 -33q-295 0 -434 -11v-2
q-52 -190 -191 -419zM1217 631q-103 -15 -191 -37q-49 0 -49 43q0 8 1 14q8 44 82 67q28 9 193 42q78 272 139 405t152 195q-17 3 -245 17t-248 14q-141 0 -261 -47q-220 -86 -342 -293.5t-122 -416.5t107.5 -341.5t315.5 -132.5t353 112l2 7q24 35 113 352z" />
    <glyph glyph-name="oe" unicode="&#x153;" horiz-adv-x="1333" 
d="M764 655q147 185 356 185q236 0 236 -176q0 -114 -92 -198.5t-207 -84.5q-47 0 -96.5 27t-83.5 81q-43 -87 -43 -176q0 -231 167 -231q44 0 108.5 42t114 88.5t125.5 123t105 102.5v-110q-159 -175 -284 -266t-237 -91t-183.5 35t-102.5 119q-156 -154 -346 -154
q-161 -1 -231 153q-38 85 -38.5 191t44.5 205t114.5 167.5t154 110.5t169.5 42t152.5 -46t97.5 -139zM465 133q155 0 219 170q31 83 31 199t-53.5 183t-144.5 67t-174 -100.5t-83 -229.5t59.5 -209t145.5 -80zM905 565q76 -98 168 -98q58 0 101 57t43 120t-24 84
q-25 22 -69 22q-87 0 -143.5 -65.5t-75.5 -119.5z" />
    <glyph glyph-name="Racute" unicode="&#x154;" horiz-adv-x="1616" 
d="M0 0zM891 1518zM1218 1831l-88 -35q-111 -44 -397 -143l-23 55q88 81 217 165.5t203 88.5q34 0 70.5 -36t36.5 -63t-19 -32zM891 1518zM762 688q114 0 214 38.5t164.5 98t101 128t36.5 130.5q0 123 -115 216.5t-293 93.5q-228 1 -426 -79q-94 -38 -152.5 -98
t-58.5 -128.5t44 -106.5t118 -68q0 -91 -26 -159q-119 38 -208 115t-89 189.5t71.5 198.5t187.5 142q246 119 530 119t479 -112q92 -52 148 -132.5t56 -173.5q0 -183 -145 -282t-418 -169q54 -30 113 -123t100 -187t80.5 -168.5t60.5 -74.5t60.5 26t88.5 70t92.5 85.5
t93 90.5t67.5 66l2 -102q-11 -12 -70 -77t-125 -131t-158 -128q-122 -82 -241 -40q-75 26 -141 144q-20 35 -31 50q-114 302 -225 450q-3 -10 -15.5 -57.5t-40.5 -143.5q-26 -96 -72 -180q-78 -142 -155 -196q-115 -80 -243 -80t-232.5 68t-104.5 194q0 55 62.5 84.5
t154.5 29.5q7 0 15 -4q-4 -40 -4 -73q0 -189 125 -189q67 0 128 103q62 102 104 257q72 263 113.5 499t55.5 272t41 47q45 18 98 18t80 -2q-26 -217 -96 -559z" />
    <glyph glyph-name="Rcommaaccent" unicode="&#x156;" horiz-adv-x="1616" 
d="M0 0zM762 0zM696 -326q-78 0 -78 89q0 44 41.5 95.5t97.5 51.5q105 0 105 -76q0 -67 -65 -220t-66 -155l-58 21l4 26q10 65 19 168zM891 1518zM762 688q114 0 214 38.5t164.5 98t101 128t36.5 130.5q0 123 -115 216.5t-293 93.5q-228 1 -426 -79q-94 -38 -152.5 -98
t-58.5 -128.5t44 -106.5t118 -68q0 -91 -26 -159q-119 38 -208 115t-89 189.5t71.5 198.5t187.5 142q246 119 530 119t479 -112q92 -52 148 -132.5t56 -173.5q0 -183 -145 -282t-418 -169q54 -30 113 -123t100 -187t80.5 -168.5t60.5 -74.5t60.5 26t88.5 70t92.5 85.5
t93 90.5t67.5 66l2 -102q-11 -12 -70 -77t-125 -131t-158 -128q-122 -82 -241 -40q-75 26 -141 144q-20 35 -31 50q-114 302 -225 450q-3 -10 -15.5 -57.5t-40.5 -143.5q-26 -96 -72 -180q-78 -142 -155 -196q-115 -80 -243 -80t-232.5 68t-104.5 194q0 55 62.5 84.5
t154.5 29.5q7 0 15 -4q-4 -40 -4 -73q0 -189 125 -189q67 0 128 103q62 102 104 257q72 263 113.5 499t55.5 272t41 47q45 18 98 18t80 -2q-26 -217 -96 -559z" />
    <glyph glyph-name="rcommaaccent" unicode="&#x157;" horiz-adv-x="639" 
d="M89 0zM346 0zM280 -326q-78 0 -78 89q0 44 41.5 95.5t97.5 51.5q105 0 105 -76q0 -67 -65 -220t-66 -155l-58 21l4 26q10 65 19 168zM462 729l120 14q29 0 29 -14q1 -14 -69 -157q-158 -324 -158 -390v-8q-3 -37 23.5 -37t160 118.5t182.5 184.5v-112
q-357 -357 -481 -357q-44 0 -66 39.5t-22 77.5t15 87.5t40.5 114t47.5 117t48.5 113t30.5 70.5q-57 -64 -132.5 -139t-141.5 -149v116l203 229q-122 30 -158 94q-8 13 -8 23q0 70 53 123t141 53q45 0 45 -53q0 -31 -18 -67.5t-43 -49.5q46 -41 158 -41z" />
    <glyph glyph-name="Rcaron" unicode="&#x158;" horiz-adv-x="1616" 
d="M0 0zM891 1518zM1249 2052q-80 -139 -184.5 -267t-161.5 -128q-49 0 -138 224q-42 105 -61 171l113 23l115 -270q88 106 221 270zM891 1518zM762 688q114 0 214 38.5t164.5 98t101 128t36.5 130.5q0 123 -115 216.5t-293 93.5q-228 1 -426 -79q-94 -38 -152.5 -98
t-58.5 -128.5t44 -106.5t118 -68q0 -91 -26 -159q-119 38 -208 115t-89 189.5t71.5 198.5t187.5 142q246 119 530 119t479 -112q92 -52 148 -132.5t56 -173.5q0 -183 -145 -282t-418 -169q54 -30 113 -123t100 -187t80.5 -168.5t60.5 -74.5t60.5 26t88.5 70t92.5 85.5
t93 90.5t67.5 66l2 -102q-11 -12 -70 -77t-125 -131t-158 -128q-122 -82 -241 -40q-75 26 -141 144q-20 35 -31 50q-114 302 -225 450q-3 -10 -15.5 -57.5t-40.5 -143.5q-26 -96 -72 -180q-78 -142 -155 -196q-115 -80 -243 -80t-232.5 68t-104.5 194q0 55 62.5 84.5
t154.5 29.5q7 0 15 -4q-4 -40 -4 -73q0 -189 125 -189q67 0 128 103q62 102 104 257q72 263 113.5 499t55.5 272t41 47q45 18 98 18t80 -2q-26 -217 -96 -559z" />
    <glyph glyph-name="rcaron" unicode="&#x159;" horiz-adv-x="639" 
d="M89 0zM475 840zM833 1374q-80 -139 -184.5 -267t-161.5 -128q-49 0 -138 224q-42 105 -61 171l113 23l115 -270q88 106 221 270zM462 729l120 14q29 0 29 -14q1 -14 -69 -157q-158 -324 -158 -390v-8q-3 -37 23.5 -37t160 118.5t182.5 184.5v-112q-357 -357 -481 -357
q-44 0 -66 39.5t-22 77.5t15 87.5t40.5 114t47.5 117t48.5 113t30.5 70.5q-57 -64 -132.5 -139t-141.5 -149v116l203 229q-122 30 -158 94q-8 13 -8 23q0 70 53 123t141 53q45 0 45 -53q0 -31 -18 -67.5t-43 -49.5q46 -41 158 -41z" />
    <glyph glyph-name="Scaron" unicode="&#x160;" horiz-adv-x="1069" 
d="M0 0zM805 1518zM1163 2052q-80 -139 -184.5 -267t-161.5 -128q-49 0 -138 224q-42 105 -61 171l113 23l115 -270q88 106 221 270zM805 1518zM446 1285q-59 -70 -59 -141t29.5 -124t77.5 -99.5t149.5 -133t175.5 -175.5q107 -129 107 -288q0 -96 -41 -180
q-74 -151 -255 -237.5t-378 -86.5q-116 0 -219 60t-103 182q0 62 48 102t118 43l43 2q-4 -54 -4 -91q1 -102 15 -130q40 -76 167 -76q176 0 303 114q89 80 89 190t-107 235q-54 63 -166 175q-111 110 -159 166q-107 124 -107 223t40 180q71 145 243.5 234t349.5 89
q120 0 223 -62q53 -32 86 -91t33 -138q0 -20 -197 -135t-250 -134v99q14 9 92 45q176 83 175 123q0 198 -209 198q-85 0 -168 -34t-142 -104z" />
    <glyph glyph-name="scaron" unicode="&#x161;" horiz-adv-x="645" 
d="M0 0zM381 840zM739 1374q-80 -139 -184.5 -267t-161.5 -128q-49 0 -138 224q-42 105 -61 171l113 23l115 -270q88 106 221 270zM545 367q0 -74 -70 -170l297 243v-110q-12 -10 -60 -52q-46 -42 -68 -60q-286 -247 -445 -247q-106 0 -195.5 37t-89.5 135q0 39 29 89
t63.5 88t81.5 87t64 70q-27 67 -27 158.5t89.5 159t267.5 67.5q63 0 63 -34q0 -66 -77.5 -99t-160.5 -33q37 -103 137.5 -190t100.5 -139zM195 399q-8 -9 -61 -57q-118 -106 -118 -162t58 -94.5t125 -38.5t108 22.5t41 57.5t-9 63t-28.5 58.5t-34 50t-43.5 54t-38 46.5z" />
    <glyph glyph-name="Umacron" unicode="&#x16a;" horiz-adv-x="1595" 
d="M0 0zM1047 1517zM1295 1675l-138 2q-90 0 -346 -18q-57 0 -57 41q0 70 49 86q26 7 146.5 16.5t236.5 9.5q209 0 209 -41q0 -30 -31 -63t-69 -33zM799 1509q0 -11 -53 -130t-116 -266.5t-116 -335t-53 -320.5q0 -310 284 -310q135 0 259.5 68.5t213 178.5t144 249.5
t63.5 280.5q-58 9 -114 47q-164 112 -164 264q0 107 51 196t164 89q82 0 125.5 -84t51.5 -155.5t12.5 -117t3 -79t-1 -46t0.5 -14.5l24 6q52 11 130 49q149 71 263 182v-114q-223 -187 -419 -227q-39 -310 -217 -566q-178 -258 -431 -358q-134 -54 -260 -53q-233 0 -327 126
t-94 338t89.5 465.5t224.5 438.5q0 4 -4 4t-13 -6l-114 -88q-18 -10 -150.5 -93t-298.5 -182v111q110 64 320 193.5t338.5 204.5t156 75t27.5 -21zM1430 1028l2 39q0 100 -31 186t-80 86q-55 0 -55 -83.5t47.5 -148t116.5 -79.5z" />
    <glyph glyph-name="umacron" unicode="&#x16b;" horiz-adv-x="993" 
d="M37 0zM557 821zM805 979l-138 2q-90 0 -346 -18q-57 0 -57 41q0 70 49 86q26 7 146.5 16.5t236.5 9.5q209 0 209 -41q0 -30 -31 -63t-69 -33zM154 -29q-117 0 -117 168q0 57 14 111q60 227 166 532q4 25 162 25h35q0 -2 -82 -260t-82 -330t67 -72q57 0 141.5 49t98.5 78
l109 416q22 85 56 102t64 17h101l-33 -117q-102 -374 -117 -444q-8 -76 -8 -91t4.5 -20.5t23 -5.5t78.5 49t279 260v-112q-24 -22 -83 -78t-90 -84q-210 -194 -320 -193q-86 0 -86 131q0 55 10 93q-231 -224 -391 -224z" />
    <glyph glyph-name="Uogonek" unicode="&#x172;" horiz-adv-x="1595" 
d="M0 0zM631 0zM762 -547q-35 -6 -75 -6q-143 0 -245 85q-72 60 -72 174.5t75 180t124 88.5t51 25h148q-18 0 -72 -31t-89.5 -59.5t-61 -72t-25.5 -91t32 -95t105 -70.5t105 -23v-105zM799 1509q0 -11 -53 -130t-116 -266.5t-116 -335t-53 -320.5q0 -310 284 -310
q135 0 259.5 68.5t213 178.5t144 249.5t63.5 280.5q-58 9 -114 47q-164 112 -164 264q0 107 51 196t164 89q82 0 125.5 -84t51.5 -155.5t12.5 -117t3 -79t-1 -46t0.5 -14.5l24 6q52 11 130 49q149 71 263 182v-114q-223 -187 -419 -227q-39 -310 -217 -566
q-178 -258 -431 -358q-134 -54 -260 -53q-233 0 -327 126t-94 338t89.5 465.5t224.5 438.5q0 4 -4 4t-13 -6l-114 -88q-18 -10 -150.5 -93t-298.5 -182v111q110 64 320 193.5t338.5 204.5t156 75t27.5 -21zM1430 1028l2 39q0 100 -31 186t-80 86q-55 0 -55 -83.5t47.5 -148
t116.5 -79.5z" />
    <glyph glyph-name="uogonek" unicode="&#x173;" horiz-adv-x="993" 
d="M37 0zM576 0zM707 -547q-35 -6 -75 -6q-143 0 -245 85q-72 60 -72 174.5t75 180t124 88.5t51 25h148q-18 0 -72 -31t-89.5 -59.5t-61 -72t-25.5 -91t32 -95t105 -70.5t105 -23v-105zM154 -29q-117 0 -117 168q0 57 14 111q60 227 166 532q4 25 162 25h35q0 -2 -82 -260
t-82 -330t67 -72q57 0 141.5 49t98.5 78l109 416q22 85 56 102t64 17h101l-33 -117q-102 -374 -117 -444q-8 -76 -8 -91t4.5 -20.5t23 -5.5t78.5 49t279 260v-112q-24 -22 -83 -78t-90 -84q-210 -194 -320 -193q-86 0 -86 131q0 55 10 93q-231 -224 -391 -224z" />
    <glyph glyph-name="Ydieresis" unicode="&#x178;" horiz-adv-x="1554" 
d="M152 0zM1157 1518zM979 1898q112 0 112 -88q0 -44 -53 -96t-105 -52q-92 0 -92 78q0 55 41 106.5t97 51.5zM1461 1898q112 0 112 -88q0 -44 -52 -96t-106 -52q-92 0 -92 78q0 55 41 106.5t97 51.5zM1001 -139l-278 -162q-112 -52 -183 -116.5t-71 -131t24.5 -103.5
t59.5 -42q66 0 152 64.5t159 166.5t101 203zM653 1487q47 31 111.5 31t64.5 -29q0 -17 -28 -110.5t-49.5 -178.5t-124.5 -416t-103 -426q0 -37 24 -73.5t54 -36.5q70 0 164 38t185.5 101t165 157.5t97.5 194.5l91 375q15 68 57.5 217.5t60.5 155.5h217l-354 -1401l387 354
v-112l-405 -361q-233 -605 -645 -717q-87 -24 -169 -24t-146.5 22t-110 71.5t-45.5 114.5t51 93l809 432l159 498q-163 -188 -384 -331.5t-349 -143.5q-75 0 -123.5 62t-48.5 181t22 210t32.5 135t38 129t44.5 141t74 213l107 311l-308 -213l-10 -6q-8 -8 -16.5 -8
t-18.5 9.5t-10 33.5t21 39z" />
    <glyph glyph-name="Zcaron" unicode="&#x17d;" horiz-adv-x="1450" 
d="M102 0zM916 1528zM1274 2062q-80 -139 -184.5 -267t-161.5 -128q-49 0 -138 224q-42 105 -61 171l113 23l115 -270q88 106 221 270zM236 211l247 111q160 209 238 333l446 721q-177 17 -353.5 17t-315 -39t-138.5 -74q0 -126 62 -180q0 -25 -68 -39q-118 44 -177.5 126.5
t-59.5 182.5q-1 80 351 124q188 24 379 24t361.5 -17.5t196.5 -19.5l43 -97q-37 -57 -131 -218.5t-176 -299.5t-205.5 -311.5t-237.5 -294.5q10 -3 60 -18.5t82.5 -25t179 -53.5t195.5 -44t83 16q116 55 205 133v-100q-42 -24 -143 -93.5t-170.5 -100.5t-145.5 -31
q-5 0 -13 4q-113 57 -458 170q-95 -63 -193.5 -104.5t-168.5 -41.5q-19 0 -50 13q-59 25 -59 88q0 80 134 139z" />
    <glyph glyph-name="zcaron" unicode="&#x17e;" horiz-adv-x="737" 
d="M0 0zM543 805zM901 1339q-80 -139 -184.5 -267t-161.5 -128q-49 0 -138 224q-42 105 -61 171l113 23l115 -270q88 106 221 270zM569 729l119 14q27 0 27 -30q0 -11 -2 -13l-135 -282q-24 -56 -97 -205q28 -10 46 -28.5t18 -32.5q81 53 200.5 173.5t126.5 127.5l41 -74
q-235 -238 -338 -316q-20 -250 -134 -417.5t-283 -180.5q-114 0 -178 45.5t-64 120.5q0 155 118.5 259t354.5 180q-11 3 -78 16t-67 25q0 32 85.5 214.5t108.5 235.5l-61 14q-19 -19 -115 -110.5t-147 -142.5v110l194 205q-73 36 -73 133q0 59 52 114.5t136 55.5
q19 0 35 -12t16 -36.5t-9 -52.5t-26.5 -45.5t-25.5 -21.5q42 -43 155 -43zM451 -4q-84 -46 -181 -76t-138.5 -76t-41.5 -155q0 -46 20 -81.5t68 -35.5t112.5 67.5t111 168.5t49.5 188z" />
    <glyph glyph-name="acaron" unicode="&#x1ce;" 
d="M0 0zM647 823zM1005 1357q-80 -139 -184.5 -267t-161.5 -128q-49 0 -138 224q-42 105 -61 171l113 23l115 -270q88 106 221 270zM150 -29q-120 -1 -148 169q-6 40 -6 85q0 109 54 220t142.5 198t212 142t252.5 55q64 0 168 -33q-1 -7 -20 -91.5t-55 -248.5t-35.5 -222.5
t30.5 -58.5q66 0 306 254v-112q-152 -157 -289.5 -257t-183.5 -100q-76 0 -76 131q0 43 8 97q-72 -94 -167.5 -161t-192.5 -67zM209 281q0 -150 98 -150q42 0 103.5 44t111.5 97l115 492q-108 0 -209 -77t-160 -189t-59 -217z" />
    <glyph glyph-name="DZ" unicode="&#x1f1;" horiz-adv-x="2882" 
d="M2005 117q-225 -146 -363 -146q-21 -1 -50 13q-58 27 -58 88q0 33 31.5 70t101.5 69l248 111q5 7 37.5 49.5t48 64t52.5 72t99 147.5l447 721q-136 17 -292 17t-294.5 -39t-138.5 -74q0 -127 61 -180q0 -22 -67 -39q-118 44 -178 126.5t-60 182.5q0 80 316 124
q170 24 346.5 24t347 -17.5t196.5 -19.5l43 -97q-37 -57 -130.5 -218.5t-176 -299.5t-205.5 -311.5t-237 -294.5q12 -4 60.5 -18.5t82 -25t180.5 -54t195.5 -43.5t97.5 26q16 5 79.5 44.5t109.5 78.5v-100q-42 -24 -143 -93.5t-170.5 -100.5t-145.5 -31q-5 0 -13 4
q-113 57 -458 170zM152 326l-7 -105q0 -82 25.5 -131t93.5 -49q39 0 75 26.5t58 75.5q74 152 146 451l119 614q13 39 129 39h94q-13 -74 -34 -229.5t-36.5 -250.5t-57 -236t-102.5 -267q29 -88 113 -146.5t173.5 -58.5t176 50.5t155 138.5t110.5 220t42 260q-1 129 -21 222
q-43 197 -182.5 320t-381.5 123q-145 0 -288.5 -58t-233 -147t-89.5 -174q0 -117 164 -180q0 -46 -9 -96.5t-17 -65.5q-149 47 -224 134.5t-75 177.5q0 267 323 426q219 108 580 108q145 0 265 -42q217 -76 332 -259t115 -375.5t-56.5 -356t-153 -282.5t-233 -189.5
t-290.5 -70.5q-228 0 -366 190q-78 -112 -168 -150t-205 -38t-189.5 75.5t-74.5 163.5q0 142 205 142z" />
    <glyph glyph-name="Dz" unicode="&#x1f2;" horiz-adv-x="2292" 
d="M152 326l-7 -105q0 -82 25.5 -131t93.5 -49q39 0 75 26.5t58 75.5q74 152 146 451l119 614q13 39 129 39h94q-13 -74 -34 -229.5t-36.5 -250.5t-57 -236t-102.5 -267q29 -88 113 -146.5t173.5 -58.5t176 50.5t155 138.5t110.5 220t42 260q-1 129 -21 222
q-43 197 -182.5 320t-381.5 123q-145 0 -288.5 -58t-233 -147t-89.5 -174q0 -117 164 -180q0 -46 -9 -96.5t-17 -65.5q-149 47 -224 134.5t-75 177.5q0 267 323 426q219 108 580 108q145 0 265 -42q217 -76 332 -259t115 -388q0 -267 -118 -489q59 53 157.5 156.5
t141.5 140.5q-74 37 -74 133q0 58 52.5 114t135.5 56q19 0 35.5 -12t16.5 -36.5t-8.5 -52t-28 -46.5t-25.5 -21q43 -43 156 -43l119 14q26 0 26 -30q0 -11 -2 -13l-135 -282q-22 -53 -56 -122.5t-40 -82.5q27 -10 45 -28.5t18 -32.5q77 50 269 242l59 59l41 -74
q-236 -238 -338 -316q-21 -250 -135 -417.5t-283 -180.5q-113 0 -177.5 45.5t-64.5 120.5q0 155 119 258.5t355 180.5q-11 3 -78.5 16.5t-67.5 24.5q0 32 85.5 213.5t109.5 236.5l-62 14q-2 -2 -82.5 -87.5t-226 -219t-270.5 -184.5q-184 -141 -407 -141t-361 190
q-78 -112 -168 -150t-205 -38t-189.5 75.5t-74.5 163.5q0 142 205 142zM1712 -134q-66 -46 -66 -170q-2 -124 86 -124q48 0 112.5 67.5t111 168.5t49.5 188q-53 -28 -118.5 -52.5t-102 -39t-72.5 -38.5z" />
    <glyph glyph-name="dotlessj" unicode="&#x237;" horiz-adv-x="442" 
d="M313 821zM-18 2l38 135q23 121 69 319t59.5 232t22 49.5t20.5 26.5t21 18.5t27 12t30.5 8.5t64.5 4h41q-1 -5 -19 -67q-160 -542 -161 -634q20 8 138 112t234 222v-112q-93 -94 -147 -146q-149 -144 -262 -198q-5 -24 -16 -77t-14.5 -67.5t-11.5 -53.5t-11 -51.5t-10 -43
t-11.5 -47t-11.5 -45t-14.5 -54.5t-16.5 -59q-27 -97 -147.5 -187t-239.5 -90q-33 0 -55 20t-36 71q-32 114 54.5 273.5t232.5 305.5q82 83 132 123zM-304 -650q18 -32 49.5 -32t50.5 12q30 20 74.5 110.5t106.5 442.5q-212 -250 -261 -366t-20 -167z" />
    <glyph glyph-name="circumflex" unicode="&#x2c6;" horiz-adv-x="1706" 
d="M1053 805zM1120 1214l-262 -270l-59 43q78 137 185.5 266t164.5 129q29 0 79 -101t83 -189.5t37 -106.5l-72 -41q-18 25 -75.5 127.5t-80.5 142.5z" />
    <glyph glyph-name="caron" unicode="&#x2c7;" horiz-adv-x="1706" 
d="M1053 805zM1411 1339q-80 -139 -184.5 -267t-161.5 -128q-49 0 -138 224q-42 105 -61 171l113 23l115 -270q88 106 221 270z" />
    <glyph glyph-name="breve" unicode="&#x2d8;" horiz-adv-x="1706" 
d="M1053 805zM1452 1257q-19 -105 -95 -199q-39 -48 -101 -79t-129.5 -31t-113.5 22t-71 54.5t-41.5 73t-21.5 73t-7.5 59t-3.5 27.5l121 25q0 -93 41.5 -137.5t88 -44.5t95.5 25t87.5 79t48.5 78z" />
    <glyph glyph-name="dotaccent" unicode="&#x2d9;" horiz-adv-x="743" 
d="M352 817zM470 1280q112 0 112 -88q0 -44 -53 -96t-105 -52q-92 0 -92 78q0 55 41 106.5t97 51.5z" />
    <glyph glyph-name="ring" unicode="&#x2da;" horiz-adv-x="666" 
d="M305 805zM463 1122q0 97 -90 97q-52 0 -82.5 -38.5t-30.5 -83.5q0 -100 86 -100q52 0 84.5 38.5t32.5 86.5zM494.5 1239q42.5 -47 42.5 -124t-58.5 -131t-130 -54t-119 41t-47.5 119t52 137t135 59t125.5 -47z" />
    <glyph glyph-name="ogonek" unicode="&#x2db;" horiz-adv-x="1706" 
d="M748 0zM879 -547q-35 -6 -75 -6q-143 0 -245 85q-72 60 -72 174.5t75 180t124 88.5t51 25h148q-18 0 -72 -31t-89.5 -59.5t-61 -72t-25.5 -91t32 -95t105 -70.5t105 -23v-105z" />
    <glyph glyph-name="tilde" unicode="&#x2dc;" horiz-adv-x="1118" 
d="M530 805zM348 1188q11 -82 82 -82q39 0 145.5 38t153.5 38q88 0 134 -61t46 -160l-125 -19q-16 88 -75 88q-33 0 -134 -42t-151 -42q-91 0 -137.5 61t-46.5 160z" />
    <glyph glyph-name="hungarumlaut" unicode="&#x2dd;" horiz-adv-x="1706" 
d="M1053 805zM1141 1343q0 -30 -61.5 -104t-146.5 -186t-91 -119l-45 39q49 190 145 337q52 79 92 79q107 0 107 -46zM1477 1288l-70 -63q-246 -226 -315 -281l-43 43q83 179 209 318q70 77 110.5 77t79.5 -24t39 -44.5t-10 -25.5z" />
    <glyph glyph-name="dotaccentcmb" unicode="&#x307;" horiz-adv-x="743" 
d="M352 817zM470 1280q112 0 112 -88q0 -44 -53 -96t-105 -52q-92 0 -92 78q0 55 41 106.5t97 51.5z" />
    <glyph glyph-name="uni030F" unicode="&#x30f;" horiz-adv-x="940" 
d="M512 805zM646 1053q-85 112 -146.5 186t-61.5 104q0 46 107 46q41 0 93 -79q96 -147 144 -337l-45 -39q-6 7 -91 119zM102 1288q-10 5 -10 25.5t39 44.5t79 24t110 -77q125 -139 210 -318l-43 -43q-69 55 -315 281z" />
    <glyph glyph-name="uni0311" unicode="&#x311;" horiz-adv-x="965" 
d="M420 805zM293 948l-103 25q18 101 96 199q38 48 100 79t129.5 31t113.5 -22t71 -54.5t41.5 -73t21.5 -73t7.5 -59t3.5 -27.5l-121 -25q0 93 -41.5 137.5t-88 44.5t-96.5 -26t-87 -79t-47 -77z" />
    <glyph glyph-name="uni0326" unicode="&#x326;" horiz-adv-x="709" 
d="M365 0zM299 -326q-78 0 -78 89q0 44 41.5 95.5t97.5 51.5q105 0 105 -76q0 -67 -65 -220t-66 -155l-58 21l4 26q10 65 19 168z" />
    <glyph glyph-name="endash" unicode="&#x2013;" horiz-adv-x="930" 
d="M776 614l-137 2q-139 0 -510 -18q-57 0 -57 41q0 72 49 86q45 6 255.5 16.5t291.5 10.5q209 0 209 -41q0 -30 -31.5 -63.5t-69.5 -33.5z" />
    <glyph glyph-name="emdash" unicode="&#x2014;" horiz-adv-x="1196" 
d="M1042 614l-219 2q-194 0 -694 -18q-57 0 -57 41q0 72 49 86q59 6 341 16.5t390 10.5q291 0 291 -41q0 -30 -31.5 -63.5t-69.5 -33.5z" />
    <glyph glyph-name="quoteleft" unicode="&#x2018;" horiz-adv-x="375" 
d="M213 1303q78 0 78 -89q0 -44 -41.5 -95.5t-97.5 -51.5q-105 0 -105 117q0 47 39 121q114 214 133 233l57 -20l-10 -30q-34 -102 -53 -185z" />
    <glyph glyph-name="quoteright" unicode="&#x2019;" horiz-adv-x="443" 
d="M272 1303q-78 -1 -78 87q0 44 41 96t98 52q105 0 105 -117q0 -65 -134 -290q-37 -62 -38 -64l-58 20l10 30q30 83 54 186z" />
    <glyph glyph-name="quotesinglbase" unicode="&#x201a;" horiz-adv-x="373" 
d="M162 -29q-78 1 -78 89q0 44 41 95.5t98 51.5q105 0 105 -117q0 -65 -134 -290q-37 -62 -38 -64l-58 20l10 30q29 77 54 185z" />
    <glyph glyph-name="quotedblleft" unicode="&#x201c;" horiz-adv-x="752" 
d="M256 1303q78 0 78 -89q0 -44 -41.5 -95.5t-97.5 -51.5q-105 0 -105 117q0 47 39 121q114 214 133 233l57 -20l-10 -30q-34 -102 -53 -185zM561 1303q78 0 78 -89q0 -44 -41 -95.5t-98 -51.5q-105 0 -105 117q0 65 134 290q37 62 38 64l58 -20l-11 -30q-34 -102 -53 -185z
" />
    <glyph glyph-name="quotedblright" unicode="&#x201d;" horiz-adv-x="490" 
d="M190 1303q-77 0 -77 88q0 44 41 95.5t97.5 51.5t80.5 -30t24 -70t-16 -85t-81 -160.5t-75 -125.5l-57 20l11 30q30 90 52 186zM496 1303q-78 -1 -78 87q0 44 41 96t98 52q105 0 105 -117q0 -45 -62 -163t-111 -191l-57 20l10 30q30 83 54 186z" />
    <glyph glyph-name="quotedblbase" unicode="&#x201e;" horiz-adv-x="750" 
d="M190 0q-77 0 -77 88q0 44 41 96t98 52q104 0 104 -117q0 -46 -38.5 -119t-58.5 -109t-46 -79t-29 -48l-57 21l11 29q30 90 52 186zM496 0q-78 0 -78 88q0 44 41 96t98 52q105 0 105 -117q0 -65 -144 -307q-25 -42 -29 -48l-57 21l10 29q30 83 54 186z" />
    <glyph glyph-name="bullet" unicode="&#x2022;" horiz-adv-x="422" 
d="M158 403q-80 0 -120 45.5t-40 114.5t36.5 142t103.5 125q68 51 162 51t149 -45t55 -113q0 -111 -105.5 -215.5t-240.5 -104.5z" />
    <glyph glyph-name="guilsinglleft" unicode="&#x2039;" horiz-adv-x="696" 
d="M332 438l92 -125q127 -156 127 -217q0 -24 -21 -42.5t-64 -18.5t-114 88q-332 416 -332 493q0 36 54 95q54 58 73 80l156 174q14 15 47 57.5t56.5 69t61.5 50t77 23.5q55 0 55 -53q0 -20 -35 -52q-155 -144 -219 -231l-153 -180z" />
    <glyph glyph-name="guilsinglright" unicode="&#x203a;" horiz-adv-x="727" 
d="M242 313l112 125l174 211l-122 180q-40 71 -96 135t-85.5 96.5t-25.5 51.5q7 53 54.5 53t81.5 -23.5t53 -50t45 -69t38 -57.5l127 -174q15 -20 44 -58t44.5 -64t9.5 -53q-15 -82 -413 -493q-84 -88 -128 -88t-61 18.5t-14 42.5q10 58 162 217z" />
    <glyph glyph-name="fraction" unicode="&#x2044;" horiz-adv-x="821" 
d="M885 1374q39 126 78.5 165.5t130.5 39.5q8 0 14 -10t6 -22.5t-6 -33.5l-778 -1556q-6 -10 -24 -53t-54.5 -85t-116.5 -42q-22 0 -22 32t32 88.5t55 117.5t196 403.5t329 641.5t160 314z" />
    <glyph glyph-name="foursuperior" unicode="&#x2074;" horiz-adv-x="889" 
d="M387 203l-199 35q-58 -31 -82 -31t-39 4.5t-33 22t-18 41.5t11 40t49 27l76 29l206 475q46 132 62 151q39 46 70.5 56t71 10t46.5 -14q-102 -230 -323 -703q66 -21 143 -35q72 180 102 256q13 19 74 19h64q-8 -38 -107 -287q91 0 146 31q9 2 54.5 30t78.5 56l34 -60
q-41 -29 -87 -69q-45 -41 -67 -57q-55 -42 -157 -42q-28 0 -45 2l-51 -122q-20 -68 -39 -68h-109l-4 14q48 130 72 189z" />
    <glyph glyph-name="Euro" unicode="&#x20ac;" horiz-adv-x="1372" 
d="M840 125q245 0 524 223v-110q-347 -295 -643 -295q-122 0 -221 46t-162 124q-128 158 -148 374l-106 -4q-55 0 -55 37q0 63 47 76q28 0 110 6q1 11 11 107l-117 -7q-55 0 -55 37q0 25 4 40q8 31 48 39q16 3 144 9q53 221 177 391q219 300 560 300q167 0 283.5 -103
t116.5 -237q0 -60 -37 -76q-264 -126 -358 -160q-35 0 -35 41q0 31 105.5 79t105.5 87q-27 135 -97 215q-47 54 -114 53q-128 -6 -236 -90q-211 -163 -272 -491q39 2 117 2q200 0 200 -37q0 -27 -30 -55.5t-66 -28.5l-131 2q-53 0 -107 -2q-2 -19 -2 -103q96 4 140 4
q200 0 200 -36q0 -26 -30 -55t-66 -29l-131 2q-49 0 -98 -2q38 -179 151 -276t273 -97z" />
    <glyph glyph-name="commaaccent" unicode="&#xf6c3;" horiz-adv-x="709" 
d="M365 0zM299 -326q-78 0 -78 89q0 44 41.5 95.5t97.5 51.5q105 0 105 -76q0 -67 -65 -220t-66 -155l-58 21l4 26q10 65 19 168z" />
    <glyph glyph-name="fi" unicode="&#xfb01;" horiz-adv-x="971" 
d="M778 117q20 0 110 61.5t138 102.5l23 -56q-88 -81 -217 -165.5t-203 -88.5q-44 0 -66 39.5t-22 101.5t59 308q-205 -281 -324 -281q-51 0 -77 54q0 -16 -48 -257t-57 -272h-168q40 296 140 737.5t196 788.5q27 97 147.5 186.5t239.5 89.5q86 0 93 -103q1 -15 1 -70
t-39 -187t-145 -289.5t-195 -255t-124 -129.5q0 -141 65 -141q39 0 98 48.5t113 116.5q123 152 155 227.5t65.5 96t70.5 24t94 3.5q-3 -7 -19 -63q-140 -469 -139.5 -548t35.5 -79zM547 1358q-46 0 -89 -91q-98 -205 -184 -681q20 32 99.5 149t161 262t81.5 253t-69 108z
M936 1288q100 0 100 -80q0 -40 -47 -87.5t-108 -47.5q-72 0 -72 72q0 50 37.5 96.5t89.5 46.5z" />
    <glyph glyph-name="fl" unicode="&#xfb02;" horiz-adv-x="1006" 
d="M0 0zM1121 1417q-81 0 -157.5 -195t-176.5 -604q85 77 160 185.5t120 210.5q97 219 97 311t-43 92zM623 -29q-35 0 -48 18q-13 19 -20 31q-22 38 -22 148v39q0 193 53.5 427t137 432t195.5 332t218 134q65 0 102.5 -44.5t37.5 -132t-30 -197.5q-52 -191 -159.5 -352.5
t-201 -259.5t-125.5 -124l-5 -41q-16 -131 -16 -197.5t35 -66.5q27 0 150.5 124.5t225.5 240.5v-112q-190 -214 -308 -306.5t-220 -92.5zM547 1358q-46 0 -89 -91q-98 -205 -184 -681q20 32 99.5 149t161 262t81.5 253t-69 108zM575 440v-112q-184 -197 -268.5 -197
t-107.5 62q0 -16 -48 -261t-57 -277h-168q40 298 140 742t196 793q27 97 147.5 186.5t239.5 89.5q86 0 93 -103q1 -15 1 -38q0 -119 -53.5 -250.5t-129.5 -240t-152 -202t-129.5 -163.5t-53.5 -109.5t31 -80.5t66 -41t122.5 74.5t130.5 127.5z" />
    <glyph glyph-name="ffi" unicode="&#xfb03;" horiz-adv-x="1361" 
d="M1211 117q20 0 110 61.5t138 102.5l23 -56q-88 -81 -217 -165.5t-203 -88.5q-44 0 -66 39.5t-22 101.5t59 308q-205 -281 -324 -281q-51 0 -77 54q0 -16 -48 -257t-57 -272h-168q28 213 99 552q-101 -85 -155 -85q-81 0 -104 62q0 -16 -48 -257t-57 -272h-168
q40 296 140 737.5t196 788.5q27 97 147.5 186.5t239.5 89.5q86 0 93 -103q1 -15 1 -38.5t-3 -47.5q58 78 154 133.5t188 55.5q86 0 93 -103q1 -15 1 -70t-39 -187t-145 -289.5t-195 -255t-124 -129.5q0 -141 65 -141q39 0 98 49q60 48 114 116q123 152 154.5 227.5t65 96
t70.5 24t94 3.5l-18 -63q-140 -469 -140 -548t35 -79zM487 350q62 284 144 603q-99 -178 -252.5 -358t-153.5 -227.5t31 -88.5t70 -41t161 112zM980 1358q-46 0 -89 -91q-98 -205 -184 -681q20 32 99.5 149t161 262t81.5 253t-69 108zM547 1358q-46 0 -89 -91
q-98 -205 -184 -681q20 32 99.5 149t161 262t81.5 253t-69 108zM1368 1288q100 0 101 -80q0 -40 -47 -87.5t-108 -47.5q-72 0 -72 72q0 50 37 96.5t89 46.5z" />
    <glyph glyph-name="st" unicode="&#xfb06;" horiz-adv-x="1167" 
d="M1008 813l305 14l-23 -36q-28 -46 -299 -46q-1 0 -61 -221t-60 -279t9 -81t41 -23q54 0 380 310v-113q-33 -30 -93.5 -87t-129.5 -120q-175 -160 -301 -160q-119 0 -119 166q0 87 27 195q12 69 27 127q-210 -488 -521 -488q-96 0 -159 26q-117 48 -117 146q0 39 29 89
t63.5 88t81.5 87t64 70q-27 67 -27 146q0 117 72 193.5t215 76.5q63 0 63 -35q0 -62 -53.5 -96.5t-114.5 -34.5q11 -109 81 -185q28 -32 58 -63q70 -74 78 -180l215 436q-53 0 -53 43q0 23 37 27l53 4l86 174q48 127 112.5 192.5t170.5 65.5l4 -4q0 -4 -56 -164t-85 -260z
M195 399q-8 -9 -61 -57q-118 -106 -118 -162t58 -94.5t125 -38.5t108 22.5t41 57.5t-9 63t-28.5 58.5t-34 50t-43.5 54t-38 46.5z" />
    <glyph glyph-name="Dr" horiz-adv-x="2267" 
d="M152 326l-7 -105q0 -82 25.5 -131t93.5 -49q39 0 75 26.5t58 75.5q74 152 146 451l119 614q13 39 129 39h94q-13 -74 -34 -229.5t-36.5 -250.5t-57 -236t-102.5 -267q29 -88 113 -146.5t173.5 -58.5t176 50.5t155 138.5t110.5 220t42 260q-1 129 -21 222
q-43 197 -182.5 320t-381.5 123q-145 0 -288.5 -58t-233 -147t-89.5 -174q0 -117 164 -180q0 -46 -9 -96.5t-17 -65.5q-149 47 -224 134.5t-75 177.5q0 267 323 426q219 108 580 108q145 0 265 -42q217 -76 332 -259t115 -388q0 -265 -118 -487l364 299q-123 31 -159 99
q-8 14 -7 24q0 70 53.5 123t141.5 53q45 0 45 -53q0 -31 -18 -67.5t-43 -49.5q45 -41 157 -41l121 14q29 0 29 -14q1 -14 -69 -157q-158 -325 -159 -390v-16q0 -29 25.5 -29t158.5 118t183 185v-112q-357 -357 -481 -357q-44 0 -66 39.5t-22 77.5t15 87.5t40.5 113.5
t47.5 116t48.5 112.5t30.5 70.5q-1 -1 -38.5 -39.5t-48 -48.5t-51 -50t-61 -57.5t-64.5 -56.5t-74.5 -61.5t-114.5 -85.5t-246 -142q-168 -104 -353 -104q-228 0 -366 190q-78 -112 -168 -150t-205 -38t-189.5 75.5t-74.5 163.5q0 142 205 142z" />
    <glyph glyph-name="Pr" horiz-adv-x="1688" 
d="M-59 94l278 -24q38 0 76 4q85 76 136.5 259t70.5 281l110 576q6 29 54.5 43t85.5 14l88 2q0 -33 -28.5 -181.5t-41.5 -193.5q222 25 343.5 107t121.5 179.5t-115.5 165t-320.5 67.5q-119 0 -253.5 -36.5t-235.5 -107.5t-101 -149.5t41 -117t123 -69.5q0 -104 -27 -159
q-166 50 -252 172q-47 66 -47 156.5t71 177.5q72 86 189 142q243 116 548 116t461.5 -91t156.5 -234t-188 -273q-89 -62 -229 -103.5t-306 -50.5q-30 -138 -43 -188.5t-32.5 -129t-62.5 -195t-94 -171.5q58 11 90 17q390 72 600 297q80 86 142 210q-122 30 -158 94
q-8 13 -8 23q0 55 35.5 95t97.5 40q45 0 45 -53v-76q46 -41 158 -41l120 14q29 0 29 -14q1 -15 -69 -146q-158 -298 -158 -360l-2 -20q0 -25 26 -25t159.5 118.5t182.5 184.5v-112q-355 -357 -481 -357q-44 0 -66 39.5t-22 102.5t119 317q-150 -286 -414 -398
q-171 -72 -351 -91t-369 -19t-292 23q-30 5 -30 77t39 72z" />
    <glyph glyph-name="ahungarumlaut" 
d="M0 0zM647 823zM735 1361q0 -30 -61.5 -104t-146.5 -186t-91 -119l-45 39q49 190 145 337q52 79 92 79q107 0 107 -46zM1071 1306l-70 -63q-246 -226 -315 -281l-43 43q83 179 209 318q70 77 110.5 77t79.5 -24t39 -44.5t-10 -25.5zM150 -29q-120 -1 -148 169q-6 40 -6 85
q0 109 54 220t142.5 198t212 142t252.5 55q64 0 168 -33q-1 -7 -20 -91.5t-55 -248.5t-35.5 -222.5t30.5 -58.5q66 0 306 254v-112q-152 -157 -289.5 -257t-183.5 -100q-76 0 -76 131q0 43 8 97q-72 -94 -167.5 -161t-192.5 -67zM209 281q0 -150 98 -150q42 0 103.5 44
t111.5 97l115 492q-108 0 -209 -77t-160 -189t-59 -217z" />
    <glyph glyph-name="ehungarumlaut" horiz-adv-x="724" 
d="M27 0zM518 807zM606 1345q0 -30 -61.5 -104t-146.5 -186t-91 -119l-45 39q49 190 145 337q52 79 92 79q107 0 107 -46zM942 1290l-70 -63q-246 -226 -315 -281l-43 43q83 179 209 318q70 77 110.5 77t79.5 -24t39 -44.5t-10 -25.5zM303 565q76 -98 168 -98q58 0 100.5 57
t42.5 120t-24 84q-24 22 -68 22q-86 0 -143 -64.5t-76 -120.5zM292 -31q-121 0 -193 79.5t-72 217.5t61 270.5t175.5 218t254.5 85.5q236 0 236 -176q0 -114 -92 -198.5t-207 -84.5q-46 0 -96 27t-85 81q-43 -90 -43 -176q0 -231 168 -231q44 0 108.5 42t114 88.5t125.5 123
t105 102.5v-110q-158 -174 -254 -242t-165.5 -92.5t-140.5 -24.5z" />
    <glyph glyph-name="tt" horiz-adv-x="1030" 
d="M132 735q-69 0 -69 39q0 13 2.5 20t34.5 11l84 8q47 156 79 227t70 115q74 86 189 86l4 -4q0 -4 -56 -164t-85 -260l289 12q53 187 97.5 264.5t100.5 114.5t136 37l4 -4q0 -4 -54.5 -148.5t-87.5 -257.5l306 15l-23 -55q-25 -46 -299 -46q-1 0 -61 -221t-60 -291.5
t16 -81t33 -10.5q55 0 381 310v-113q-33 -30 -93.5 -87t-129.5 -120q-175 -160 -301 -160q-119 0 -119 166q0 37 2 58q-116 -109 -203 -166.5t-165 -57.5q-119 0 -119 166q0 91 28.5 214.5t48.5 202t44 181.5h-24zM297 141q38 0 248 187q28 141 106 415l-282 2
q-1 0 -61 -221t-60 -291.5t16 -81t33 -10.5z" />
    <glyph glyph-name="a.fina" 
d="M792 118q82 0 208 135l41 -85q-41 -53 -117 -104q-252 -167 -356 -41q-44 54 -45 176q-74 -94 -173.5 -161t-199.5 -67q-120 -1 -148 169q-6 40 -6 85q0 109 54 220t142.5 198t212 142t252.5 55q64 0 168 -33q-2 -11 -56 -254t-54 -325q0 -110 77 -110zM209 281
q0 -150 98 -150q42 0 103.5 44t111.5 97l115 492q-108 0 -209 -77t-160 -189t-59 -217z" />
    <glyph glyph-name="e.fina" horiz-adv-x="731" 
d="M303 565q76 -98 168 -98q58 0 100.5 57t42.5 120t-24 84q-24 22 -68 22q-86 0 -143 -64.5t-76 -120.5zM381 -31q-259 0 -331 183q-26 66 -25 144q0 238 201 425q128 119 292 119q236 0 236 -176q0 -114 -92 -198.5t-207 -84.5q-46 0 -96 27t-85 81q-43 -90 -43 -190
t50 -155.5t128 -55.5q162 0 322 162l40 -67q-71 -94 -183.5 -154t-206.5 -60z" />
    <glyph glyph-name="b.fina" horiz-adv-x="986" 
d="M400 784q119 85 241.5 289.5t122.5 325.5q0 67 -67 67q-38 0 -111.5 -152t-129.5 -317t-56 -213zM702 756q211 0 211 -228q0 -174 -104.5 -329.5t-294.5 -220.5q-102 -35 -196 -35q-160 0 -200 55t-40 130t9 154t19.5 140t36 163t40 155.5t52 183t55.5 194t63.5 145.5
t107 153t141.5 118.5t158 46.5q154 0 154 -131q0 -305 -553 -857q-5 -23 -37 -149t-31 -208q0 -160 117 -160q70 0 147.5 57.5t128.5 142.5t51 160q0 144 -256 144q14 55 89.5 115.5t131.5 60.5z" />
    <glyph glyph-name="c.fina" horiz-adv-x="696" 
d="M511 840q199 0 199 -130q0 -38 -37.5 -66t-94.5 -28q-31 0 -58 64q-10 24 -32.5 43.5t-52.5 19.5q-58 0 -110 -63t-80.5 -154t-28.5 -188.5t44.5 -160.5t138.5 -63q134 0 305 143l35 -67q-185 -219 -447 -219q-138 0 -215.5 72t-77.5 178.5t39 213t104.5 197t163.5 149.5
t205 59z" />
    <glyph glyph-name="d.fina" horiz-adv-x="913" 
d="M1084 178q-214 -207 -362 -207q-93 0 -130 65t-37 199q-112 -124 -225 -194q-112 -70 -168 -70q-97 0 -124.5 68.5t-27.5 158.5t49 208.5t125 213.5t173.5 157.5t172.5 62.5t146 -21l133 475q8 30 10.5 38t9.5 30.5t10.5 27.5t12 20t14.5 18t18 12t24 10t32 5.5t82 4.5
h35q-5 -49 -52 -192t-155.5 -536.5t-108.5 -474t18.5 -110t55.5 -29.5q89 0 213 135zM657 731q-4 14 -35.5 26.5t-58.5 12.5q-86 0 -167 -79t-128 -191.5t-47 -214.5q0 -127 82 -127q64 0 160 72.5t106 113.5z" />
    <glyph glyph-name="f.fina" horiz-adv-x="683" 
d="M715 480l-287 2q-111 0 -435 -18q-57 0 -57 41q0 31 49 37q62 19 335 51t369.5 32t96.5 -64q0 -25 -22 -53t-49 -28zM547 1358q-46 0 -89 -91q-98 -205 -184 -681q20 32 99.5 149t161 262t81.5 253t-69 108zM233 372l-34 -179q0 -16 -48 -257t-57 -272h-168
q40 296 140 737.5t196 788.5q27 97 147.5 186.5t239.5 89.5q86 0 93 -103q1 -15 1 -38q0 -305 -379 -755q-131 -155 -131 -198z" />
    <glyph glyph-name="ff.fina" horiz-adv-x="983" 
d="M1077 1355q-76 0 -160 -275q-45 -146 -113 -478q20 31 99.5 144.5t161 255.5t81.5 247.5t-69 105.5zM763 372l-34 -179q0 -16 -48 -257t-57 -272h-168q40 295 140 735.5t196 787.5q27 97 147.5 186.5t239.5 89.5q86 0 93 -103q1 -15 1 -38q0 -306 -378 -752
q-132 -154 -132 -198zM1095 456l-667 6q-111 0 -435 2q-57 0 -57 41q0 31 49 37q95 13 513.5 36t578.5 23q89 0 89 -64q0 -25 -22 -53t-49 -28zM547 1358q-46 0 -89 -91q-98 -205 -184 -681q20 32 99.5 149t161 262t81.5 253t-69 108zM233 372l-34 -179q0 -16 -48 -257
t-57 -272h-168q40 296 140 737.5t196 788.5q27 97 147.5 186.5t239.5 89.5q86 0 93 -103q1 -15 1 -38q0 -305 -379 -755q-131 -155 -131 -198z" />
    <glyph glyph-name="t.fina" horiz-adv-x="735" 
d="M166 735h-35q-58 0 -58 43q0 16 9.5 20.5t27.5 6.5l84 8q47 156 79 227t70 115q74 86 189 86l4 -4q0 -4 -56 -164t-85 -260l305 14l-22 -36q-25 -46 -299 -46q-1 0 -61 -221t-60 -291q0 -137 114 -137q119 0 375 288q137 154 227 286l53 -37q-205 -334 -435 -520
q-176 -142 -327 -142q-113 0 -165.5 62t-52.5 156t29.5 208t53.5 202.5t36 135.5z" />
    <glyph glyph-name="o.fina" horiz-adv-x="987" 
d="M610 823zM675 184q-71 -94 -170 -153.5t-204 -59.5q-161 -1 -231 153q-38 85 -39 193q0 243 172.5 383t458.5 140q20 0 22 -13q0 -17 -3.5 -25t-18.5 -18q-199 0 -301 -111q-101 -111 -101 -261q0 -110 54 -184.5t134.5 -74.5t155.5 70q-61 45 -95 116.5t-34 152
t48 135.5t139 55t132.5 -49t41.5 -121q0 -151 -120 -258q33 -6 63 -6q85 0 167 56.5t195 192.5l43 -60q-183 -262 -418 -262q-45 0 -91 9zM741 494q0 92 -82.5 92t-82.5 -120q0 -96 85 -176q27 27 53.5 91t26.5 113z" />
    <glyph glyph-name="U.init" horiz-adv-x="1645" 
d="M1478 601q20 -12 51 -12q158 0 406 170v-114q-21 -9 -79 -39q-56 -31 -102 -53q-124 -60 -244 -60q-34 0 -67 9q-81 -176 -217 -312q-248 -248 -601 -247q-303 0 -379 274q-22 82 -23 186q0 216 89.5 469.5t224.5 438.5q0 4 -4 4t-13 -6l-114 -88q-30 -23 -449 -275v111
q110 64 320 193.5t338.5 204.5t156 75t27.5 -21q0 -11 -53 -130t-116 -266.5t-116 -335t-53 -320.5q0 -310 284 -310q247 0 431 197q87 92 144 208q-136 101 -199.5 243.5t-63.5 348.5q0 286 189 356q57 21 140.5 21t143.5 -108t60 -319t-112 -493zM1447 1074
q0 297 -110 297q-135 0 -135 -292q0 -177 108 -357q36 -60 58 -84q31 92 55 223t24 213z" />
    <glyph glyph-name="No" horiz-adv-x="2371" 
d="M549 1040q400 476 721 476q84 0 84 -93q0 -27 -42 -233q-124 -616 -124 -829.5t69 -213.5q9 0 69.5 72.5t75.5 76.5q323 20 536.5 20t213.5 -31.5t-31.5 -65t-68.5 -33.5l-199 2q-113 0 -415 5q-250 -250 -338 -250q-137 0 -137 319q0 508 137 940q11 28 11 55t-12 44
t-30 17t-36 -9q-159 -81 -293 -219q-263 -271 -369 -648q-23 -82 -57 -246t-42 -196h-206q0 93 36.5 249t99 382t93.5 364l82 318l-322 -228l-30 -10q-27 0 -27 51q0 24 25 41l430 271q121 78 170 78q20 0 20 -19q0 -58 -39 -210.5t-39 -164.5zM1520 582q-20 58 -20 128.5
t22 148.5q44 156 166.5 276.5t291.5 120.5q266 0 343 -218q22 -62 22 -134q-1 -72 -23 -146q-46 -150 -177 -262t-318 -112q-240 0 -307 198zM2110.5 1103.5q-30.5 46.5 -93 46.5t-120 -48.5t-97.5 -121.5q-89 -162 -89 -322t118 -160q60 0 119 48q58 49 100 121
q92 160 93 313q0 77 -30.5 123.5z" />
    <glyph glyph-name="u.fina" horiz-adv-x="993" 
d="M154 -29q-117 0 -117 168q0 57 14 111q60 227 166 532q4 25 162 25h35q0 -2 -82 -260t-82 -330t67 -72q57 0 141.5 49t98.5 78l109 416q23 84 54 102q32 17 72 17h95q-54 -174 -97.5 -345t-43.5 -216q0 -128 81.5 -128t208.5 135l55 -75q-83 -90 -184 -149.5t-181 -59.5
t-123 56q-43 55 -43 151v23q-100 -109 -205.5 -168.5t-200.5 -59.5z" />
    <glyph glyph-name="n.fina" horiz-adv-x="838" 
d="M486 147q0 103 76 345q26 80 26 106.5t-11.5 41.5t-27.5 15q-57 0 -123 -79.5t-118 -192.5q-108 -234 -142 -383h-191q1 108 61 358t107 369q19 48 54.5 64t95.5 16h67l-108 -363q67 126 194 254q62 62 135 102t138 40q98 0 98 -117q0 -47 -35.5 -153t-71 -212.5
t-35.5 -152.5q0 -87 69 -87q82 0 211 135l55 -75q-82 -90 -184 -149.5t-173 -59.5q-167 0 -167 178z" />
    <glyph glyph-name="m.fina" horiz-adv-x="1348" 
d="M683 839q99 0 99 -134q0 -91 -53 -265q71 139 191 263q60 61 130 99t126 38t84.5 -35t28.5 -77t-12.5 -89.5t-67 -212.5t-54.5 -217q0 -91 72 -91q80 0 194 135l55 -75q-61 -72 -163 -140.5t-180.5 -68.5t-122.5 44.5t-44 110.5q0 114 57 275.5t57 208.5t-31 47
q-86 0 -171.5 -137.5t-142.5 -285.5t-80 -232h-192q0 131 65.5 344t65.5 248.5t-14 51t-33 15.5q-62 0 -150.5 -124t-154 -280t-76.5 -255h-191q8 128 70 403t111 355q19 31 61.5 40t144.5 9q-14 -70 -57.5 -203t-52.5 -164q164 290 325 372q54 28 106 27z" />
    <glyph glyph-name="s.fina" horiz-adv-x="695" 
d="M331 709q37 -92 99 -156q27 -28 77 -73t83.5 -92t33.5 -132.5t-56 -151.5q-115 -134 -368 -133q-100 0 -165 26q-121 48 -121 146q0 52 45 114t124 139t93 94q-27 53 -27 105q0 97 84 179.5t213 82.5q73 0 113 -14.5t40 -32.5q0 -32 -45 -56q-85 -44 -223 -45zM219 412
q-9 -10 -69 -60q-134 -112 -134 -170t61 -96.5t141 -38.5t135 22.5t55 58.5t-11 65t-35.5 61.5t-42 52.5t-53.5 56.5t-47 48.5z" />
    <glyph glyph-name="r.fina" horiz-adv-x="769" 
d="M318 779l115 14q29 0 29 -14q0 -26 -136 -335q89 174 218 285q130 111 226 111t96 -75q0 -33 -21.5 -102t-21.5 -82.5t8 -13.5q23 0 135 72v-112q-52 -34 -120.5 -59.5t-121.5 -25.5q-94 0 -94 85l10 106q0 25 -27.5 25t-91 -67.5t-126 -164.5t-109 -216.5t-46.5 -209.5
h-191q1 103 52.5 303t112.5 335q-8 23 -49 60.5t-41 46.5q0 30 36 58t52.5 28t21.5 -8q4 -8 10 -18q14 -26 74 -26z" />
    <glyph glyph-name="y.fina" horiz-adv-x="860" 
d="M113 -29q-117 0 -117 172q0 127 180 639q4 25 162 25h35q0 -2 -82 -260t-82 -330t67 -72q57 0 141.5 49t98.5 78l109 416q23 84 54.5 101.5t71.5 17.5h95q-43 -123 -221 -808l347 116v-112l-374 -122q-69 -247 -234 -330q-80 -40 -154 -40t-134 44q-60 43 -60 105
q0 118 156 184l289 121l45 230q-233 -224 -393 -224zM449 -148l-173 -62q-46 -16 -78 -50t-32 -78q0 -82 74 -82q84 0 136 74.5t73 197.5z" />
    <glyph glyph-name="g.fina" 
d="M512 -188l-173 -62q-46 -16 -78 -50t-32 -78q0 -82 74 -82q84 0 136 74.5t73 197.5zM702 -41l347 116v-112l-374 -122q-71 -247 -243 -330q-82 -40 -157.5 -40t-135.5 44q-60 43 -60 105q0 118 156 184l289 121l45 239q-128 -114 -212.5 -153.5t-158.5 -39.5t-110.5 62
t-36.5 145.5t26.5 178t77 180.5t117.5 154t156 108.5t181 40.5t302 -39zM270 324q0 -193 97 -193q86 0 217 148l116 487q-73 18 -98 18q-67 0 -130 -44q-62 -44 -106 -111q-96 -147 -96 -305z" />
    <glyph glyph-name="V.init" horiz-adv-x="1415" 
d="M-63 1057l659 398q128 75 155 75t27 -21q0 21 -59 -176t-93 -332q-82 -323 -83 -542q0 -277 155 -277q69 0 147 54q133 92 251 287q-60 47 -98 103q-82 123 -82 352q0 230 70 380q34 74 90 117.5t124 43.5q188 0 235 -170q13 -47 13 -106.5t-11 -132.5t-33.5 -152
t-41 -136t-47.5 -139t-38 -111q6 -1 13 -1h15q166 0 373 159v-115q-19 -10 -63.5 -40.5t-80.5 -52.5q-98 -60 -225 -60q-37 0 -76 6q-82 -153 -167 -262t-137.5 -149t-136 -77t-177 -37t-165.5 40.5t-112 112.5q-78 139 -78 343.5t52.5 409t117.5 302.5q25 37 54.5 90
t29.5 63.5t-2.5 10.5t-11.5 -6l-115 -88q-35 -27 -448 -275v111zM1067 1094q-4 -47 -4 -140t29.5 -190.5t66.5 -147.5q48 120 92.5 285.5t44.5 260t-21.5 142t-56.5 47.5t-63.5 -22t-45.5 -56t-27.5 -83t-14.5 -96z" />
    <glyph glyph-name="W.init" horiz-adv-x="1978" 
d="M1772 1372q-50 0 -85 -38q-67 -72 -67 -254t92 -317q47 -69 109 -86q20 45 46.5 180t26.5 249q0 266 -122 266zM1221 1174q82 0 82 -115q0 -182 -169 -609l-20 -49q0 -58 35 -101q68 -83 203 -83q75 0 122 26t76 46t91 89t132 191q-93 25 -165 110q-143 169 -143 426
q-1 213 119 329q86 84 226 84q163 0 207 -269q12 -74 12 -179.5t-25 -224t-62 -176.5l54 9q55 8 151 41.5t179 82.5v-115q-223 -102 -425 -125q-56 -142 -145 -262.5t-162 -191t-168.5 -118t-178.5 -47.5t-139.5 29.5t-86 65t-53 86.5t-30.5 91q-74 -101 -203 -185.5
t-218 -84.5t-153 44q-66 44 -102 114q-72 139 -72 314.5t61.5 382t168.5 351.5q23 33 53.5 88.5t30.5 65.5t-2 10t-13 -6l-114 -88q-38 -29 -449 -275v111q112 64 442 268.5t373 204.5q27 0 27 -21q0 -39 -102 -282q-194 -462 -193 -674q0 -371 221 -371q52 0 126.5 44.5
t107.5 99.5q-8 40 -8 124.5t9 176.5t31.5 191.5t55.5 177t86.5 128t118.5 50.5z" />
    <glyph glyph-name=".ttfautohint" horiz-adv-x="1978" 
d="M0 0z" />
    </font>
</defs>
</svg>
